<svg width="1038" height="523" viewBox="0 0 1038 523" fill="none" xmlns="http://www.w3.org/2000/svg">
<path d="M525.907 321.978C524.767 323.752 523.668 325.484 522.147 327.891C520.965 322.865 524.133 319.698 525.4 316.319C526.795 312.687 528.358 309.308 529.16 305.38C529.709 302.635 528.696 298.496 533.131 297.271C533.3 297.271 536.553 294.272 532.371 293.174C531.146 292.836 531.695 289.626 533.174 288.317C536.849 285.065 536.427 280.208 537.905 276.195C538.623 274.253 535.37 271.212 538.159 268.255C534.525 268.34 531.357 268.255 528.189 269.227C525.358 270.071 522.401 269.353 520.035 267.706C515.43 264.581 512.304 259.85 507.742 256.471C503.052 253.008 504.193 249.756 508.967 246.335C512.346 243.885 514.712 240.295 518.895 238.564C521.134 237.635 524.049 238.648 525.443 236.705C529.034 231.764 534.863 230.624 539.679 227.836C541.749 226.611 543.228 225.386 541.496 222.683C540.862 221.67 540.567 219.854 541.074 218.84C545.467 209.126 540.609 199.707 540.398 190.162C540.355 187.797 543.524 185.939 541.876 183.658C538.919 179.603 540.82 175.169 540.102 170.945C539.595 167.989 540.862 167.186 543.313 167.946C546.396 168.918 549.523 169.045 552.649 169.594C554.381 169.889 557.127 169.805 555.099 173.184C554.17 174.704 555.817 174.493 556.704 174.451C559.873 174.24 560.845 175.971 561.732 178.801C563.548 184.672 565.407 190.5 565.956 196.709C566.125 198.483 565.576 201.228 568.576 201.904C571.406 202.537 572.842 201.017 574.152 198.82C575.546 196.497 577.405 194.555 580.404 194.386C580.742 194.386 581.207 194.386 581.376 194.175C584.122 190.416 585.601 185.052 591.938 185.812C592.74 180.659 597.894 179.097 600.429 175.38C601.147 174.324 601.95 173.733 603.259 173.69C605.203 173.606 606.301 172.93 605.329 170.734C604.442 168.749 605.583 167.609 607.104 166.637C615.046 161.611 619.524 153.755 624.425 146.069C626.283 143.154 628.184 140.029 630.381 137.199C631.86 135.299 633.676 133.398 633.381 130.104C633.169 127.95 635.324 124.486 637.352 123.473C639.549 122.375 638.957 121.445 639.042 119.967C639.253 116.969 640.225 114.434 642.168 111.858C645.548 107.254 643.562 101.257 645.041 95.9777C645.378 94.7951 643.097 93.7392 640.731 94.7106C633 97.836 625.438 101.257 617.876 104.805C599.5 113.463 582.855 124.782 566.717 136.904C563.041 139.691 560.042 143.45 557 146.998C549.523 155.74 541.116 163.681 534.694 173.268C532.709 176.225 530.766 176.14 528.062 174.24C525.231 172.254 522.654 169.932 519.317 168.58C514.29 166.553 511.713 167.609 510.614 172.93C508.46 183.067 506.432 193.245 504.404 203.382C500.391 223.486 496.209 243.548 492.449 263.651C490.379 274.717 489.111 285.909 487.21 297.017C484.718 311.42 483.408 325.991 481.042 340.393C478.423 356.442 477.789 372.618 475.93 388.668C475.001 396.777 476.184 405.182 473.1 413.037C472.382 414.896 473.945 416.374 474.114 418.19C474.748 425.075 472.466 431.705 472.889 438.548C473.48 448.346 472.551 458.145 473.649 467.943C474.367 474.447 473.649 481.163 474.621 487.583C475.339 492.102 477.789 496.41 479.564 500.76C479.986 501.816 480.873 502.661 481.507 503.632C485.816 510.094 484.211 515.204 477.24 519.048C470.988 522.511 464.651 523.989 457.638 522.3C454.639 521.582 452.611 520.104 452.146 516.852C451.893 514.951 450.668 513.346 449.273 512.332C447.626 511.108 447.077 509.672 447.457 508.024C448.893 501.9 445.471 496.452 445.091 490.539C444.922 487.963 444.753 485.049 445.133 482.852C446.316 476.601 443.824 470.477 445.176 464.353C445.809 461.481 444.88 449.824 444.626 446.952C444.288 443.067 443.19 438.97 445.64 435.211C445.978 434.662 446.57 433.817 446.401 433.479C442.261 426.13 448.724 419.119 446.739 411.264C445.345 405.689 446.739 398.677 446.823 392.3C446.865 388.71 448.006 384.824 449.696 381.614C452.019 377.222 451.174 373.548 449.104 369.662C448.259 368.057 446.02 366.156 450.203 365.903C451.005 365.861 451.343 365.1 451.048 364.002C449.273 357.878 449.823 351.923 452.78 346.221C453.16 345.503 453.54 344.152 453.245 343.898C450.118 341.195 453.625 337.605 451.808 334.649C450.456 332.495 454.765 332.537 454.132 331.228C452.907 328.651 453.498 326.202 453.413 323.668C453.287 320.373 452.188 317.332 455.061 314.249C455.737 313.531 455.737 309.899 455.568 307.703C455.061 300.607 458.187 294.272 459.201 287.557C459.666 284.473 459.328 281.306 459.539 278.18C459.75 275.435 459.455 272.943 460.849 270.325C462.158 267.917 463.679 265.341 460.976 262.173C459.793 260.779 460.975 257.57 463.257 256.26C464.904 255.331 465.031 253.008 464.693 252.501C461.482 247.982 464.82 243.674 464.566 239.451C464.271 234.129 468.664 229.948 466.763 224.331C466.003 222.134 469.636 219.051 466.89 215.546C459.412 238.733 452.273 261.54 444.669 284.178C441.965 292.16 439.092 300.143 436.177 308.083C433.304 315.854 431.657 324.217 429.122 332.199C427.517 337.225 424.644 339.126 419.152 340.646C413.153 342.293 407.915 342.42 402.212 341.238C398.705 340.52 394.312 333.635 395.706 330.425C396.635 328.356 396.339 326.962 395.072 325.442C393.002 322.992 393.002 320.373 394.692 317.797C396.551 314.925 392.368 313.32 393.382 310.152C394.016 308.167 393.213 305.549 394.143 303.015C394.987 300.607 396.086 297.482 392.96 295.286C391.861 294.525 391.566 292.836 392.157 292.118C394.776 288.739 390.256 284.811 393.171 281.559C387.637 278.518 397.565 273.112 391.397 270.156C394.988 264.876 390.298 259.766 391.101 254.486C391.735 250.474 390.89 246.377 390.171 242.407C389.791 240.211 388.439 237.972 390.467 235.818C390.678 235.565 390.974 235.143 390.89 234.932C386.581 226.189 392.917 216.475 388.355 207.732C387.13 205.367 388.608 201.819 385.144 200.045C377.751 212.082 371.414 224.668 365.204 237.339C360.008 247.982 355.234 258.794 350.967 269.86C348.052 277.462 341.927 283.037 336.899 289.288C330.858 296.848 323.508 303.141 316.959 310.195C312.355 315.136 308.426 314.798 304.286 309.308C303.272 307.998 302.089 306.816 300.906 305.591C300.061 304.704 299.301 304.071 298.033 305.422C279.361 325.188 255.281 335.747 230.355 344.743C224.652 346.813 218.696 348.587 212.697 349.516C203.445 350.994 194.996 348.882 188.152 341.787C187.391 340.984 185.744 339.633 183.885 340.351C183.167 340.646 181.9 340.9 181.519 340.52C176.239 335.62 175.351 340.731 173.746 343.898C172.225 346.939 170.282 349.685 167.578 351.712C165.128 353.528 162.973 353.444 161.579 350.234C159.509 345.546 159.256 341.195 160.185 335.789C160.946 331.186 162.34 327.765 164.874 324.344C165.466 323.583 165.043 322.739 164.79 321.936C163.903 318.895 165.297 317.164 167.789 315.39C171.085 313.067 171.465 309.477 171.127 305.464C170.958 303.437 172.098 300.1 173.577 299.425C176.788 297.989 174.844 296.384 174.253 295.159C173.239 293.005 171.803 294.441 170.578 295.243C169.733 295.792 168.93 296.384 168.043 296.891C165.17 298.58 163.1 298.369 163.354 294.441C163.48 292.329 162.424 291.062 161.284 289.584C160.27 288.275 156.805 287.05 160.439 284.811C160.523 284.769 160.27 284.009 160.016 283.671C155.116 276.28 154.144 268.213 156.13 259.766C156.763 257.063 155.116 255.078 154.862 252.67C154.271 247.18 156.468 241.225 154.904 236.579C153.172 231.384 154.904 226.527 153.595 221.501C152.919 218.924 153.003 215.334 153.13 212.209C153.215 209.337 152.201 205.113 152.961 203.846C155.073 200.341 151.482 199.201 151.482 196.92C151.482 193.794 149.286 190.585 149.539 188.219C150.215 181.8 145.737 177.745 144.174 171.832C137.795 178.928 131.923 185.939 125.586 192.443C111.349 207.056 95.8025 220.149 79.6646 232.651C77.1721 234.594 74.7641 236.663 72.3561 238.775C71.6379 239.408 70.624 240.338 70.6662 241.098C70.7507 242.196 72.2716 241.816 72.9897 242.196C77.0453 244.434 81.3544 242.323 85.748 243.548C94.7464 246.039 103.871 247.518 111.18 253.853C116.334 258.33 116.461 264.369 112.616 269.649C105.054 280.039 95.4645 288.486 86.6352 297.651C74.9753 309.815 67.2021 324.555 58.0347 338.408C49.5433 351.205 42.953 364.974 36.2781 378.742C34.9263 381.488 32.6872 383.093 29.6878 383.6C20.7317 385.12 13.1697 382.29 7.00176 375.828C3.91782 372.618 4.50927 368.141 6.36808 364.045C7.7622 361.004 10.6772 358.554 9.95897 354.162C9.57876 351.881 12.7894 349.178 13.8033 346.433C16.1269 340.266 17.4365 333.846 18.6616 327.342C19.5488 322.527 22.337 318.177 25.083 313.996C25.6744 313.109 28.6316 300.396 28.2514 299.34C26.6883 294.737 29.5188 296.595 31.4621 297.144C31.2509 294.61 27.66 291.78 32.1803 289.668C32.5182 289.499 32.9407 288.655 32.814 288.528C29.5188 284.685 34.6305 281.559 33.9968 279.025C33.0252 275.224 34.4616 272.183 34.4616 268.804C34.4616 266.059 32.3915 266.143 30.4482 266.65C26.4771 267.664 22.4215 267.579 18.5771 266.65C14.0146 265.594 10.5082 262.342 6.57931 259.977C3.36863 258.034 0.749374 256.387 0.115686 252.332C-0.306772 249.672 0.453663 250.432 1.97451 247.729C5.86113 240.802 15.2397 242.323 19.0841 235.354C20.0557 233.58 24.576 233.538 26.4349 231.257C29.561 227.371 34.4193 226.569 38.0525 223.95C40.7984 221.965 41.2631 217.024 39.6578 213.603C38.8974 211.998 38.8974 210.646 39.3198 209.633C41.8123 203.551 41.9391 197.596 39.1508 191.598C38.4749 190.162 38.7284 188.768 39.4043 187.29C40.376 185.136 40.2915 182.771 38.8551 180.786C38.1792 179.899 37.5455 179.097 38.2214 178.167C40.5027 174.915 38.1369 171.705 38.1369 168.453C38.1369 167.228 38.4749 167.228 39.1086 166.975C40.8407 166.257 42.277 164.145 44.5161 165.581C45.3187 166.088 45.6144 167.186 46.7551 167.44C62.724 171.114 61.8369 184.841 63.4 196.54C63.8224 199.919 65.9769 199.834 67.3288 201.27C68.0892 202.073 68.3005 201.777 70.2015 199.496C72.5673 196.666 74.2571 193.076 78.3972 192.147C80.594 191.64 78.3127 187.332 80.7207 188.219C84.2271 189.486 84.0582 186.614 85.3255 185.347C86.0015 184.629 88.7474 183.996 85.748 182.644C85.9592 182.222 86.1282 181.462 86.4239 181.377C90.564 180.364 91.7469 175.507 95.9715 174.324C99.9848 173.184 103.069 170.269 103.407 165.792C103.66 162.498 108.603 165.624 108.138 161.907C112.743 161.316 112.236 156.543 114.348 153.924C117.559 149.954 121.403 146.871 125.037 143.492C126.008 142.605 126.769 141.465 126.769 140.62C126.769 136.143 130.148 132.765 130.402 128.288C130.529 125.838 131.331 123.177 134.457 121.868C135.302 121.53 136.781 118.7 136.823 117.644C136.992 111.309 139.654 106.325 143.202 101.342C144.005 100.243 145.568 96.569 142.569 93.8659C140.161 91.7119 138.598 92.6833 136.485 93.4436C122.544 98.3429 109.744 105.692 96.8586 112.703C77.1298 123.473 60.485 138.002 45.9524 155.065C41.7278 160.006 36.9963 164.441 33.7434 170.143C33.0252 171.41 32.0113 172.339 30.0257 171.494C23.1819 168.538 16.0001 166.13 10.128 161.358C7.93118 159.584 4.55151 157.726 6.7483 153.713C2.05901 149.659 9.78999 147.758 8.39588 144.084C7.80444 142.563 9.66325 142.69 10.6349 142.183C12.6627 141.212 15.1552 140.705 15.1552 137.453C15.1552 136.228 16.3803 134.201 18.5349 135.848C18.7461 136.017 18.8728 136.228 19.0418 136.439C19.1686 136.143 19.2953 135.848 19.4643 135.552C21.2809 131.793 22.8862 127.823 27.829 127.274C29.1808 127.147 28.8006 126.725 28.7584 125.753C28.6739 122.121 31.8423 120.094 35.7289 121.868C32.8985 118.067 35.2642 116.462 38.0102 116.546C41.3899 116.715 42.9107 115.026 44.2203 112.618C45.9102 109.535 49.5433 108.268 51.0219 105.058C51.4021 104.214 52.1203 104.889 52.7117 105.016C53.3454 105.143 54.5283 105.227 54.5706 105.016C56.2182 99.9478 61.7524 99.6099 64.7941 96.4845C67.6668 93.5703 67.0753 93.0212 70.7507 92.5989C70.7085 90.9517 68.9764 90.7405 68.216 89.6846C66.9908 87.953 65.3855 86.1791 69.1876 85.5456C69.4834 85.5033 69.6946 84.7431 69.9481 84.3208C74.8908 76.2538 79.7913 74.0154 89.5924 75.4091C94.6619 76.1271 99.6046 76.2538 103.28 71.6502C105.35 69.0738 105.73 71.608 106.617 73.2129C106.955 66.4975 113.123 67.3 116.756 65.864C118.826 65.0615 122.248 64.7658 124.952 64.6814C132.218 64.4702 140.161 63.6677 146.624 66.1174C155.918 69.6651 164.199 75.029 169.648 85.0387C174.591 94.1616 176.112 102.82 173.704 112.196C171.042 122.586 168.127 132.976 162.635 142.648C165.931 140.958 169.352 140.198 172.648 138.382C177.717 135.594 181.055 129.555 187.814 129.681C189.25 129.681 187.687 128.752 187.518 128.372C186.842 126.429 188.955 126.007 189.25 126.345C192.039 129.259 193.179 125.585 193.897 124.74C198.206 119.629 203.656 115.828 208.768 111.647C212.401 108.69 216.964 106.705 218.527 101.764C218.907 100.539 219.498 100.708 220.343 100.961C221.442 101.299 222.498 101.173 222.92 100.074C224.864 94.8373 230.187 92.8523 233.693 89.0933C235.974 86.6437 238.551 84.1518 240.832 81.322C242.522 83.0115 240.199 84.0673 241.001 85.2499C241.677 85.5456 241.72 84.7431 241.973 84.6164C243.916 83.9406 241.677 77.8165 246.578 81.0264C246.578 81.0264 246.958 80.7308 247.043 80.5618C249.451 75.1135 250.887 75.1557 256.928 75.1557C260.561 75.1557 264.406 75.5358 268.123 75.4091C272.644 75.2402 278.685 77.5209 281.6 80.8997C284.81 84.5742 290.049 85.63 292.034 90.4449C295.076 97.7093 298.456 104.467 299.005 112.872C300.23 131.117 300.357 149.405 302.723 167.566C304.539 181.715 306.694 195.779 308.595 209.886C311.13 228.512 312.693 247.306 311.932 266.186C311.848 267.959 311.298 269.776 310.961 271.676C311.425 271.507 311.679 271.423 311.932 271.296C315.819 269.564 315.565 265.299 317.213 262.215C317.931 260.864 317.847 259.259 320.043 259.681C320.297 259.724 320.931 259.132 320.931 258.837C320.55 250.939 325.366 244.899 329.211 239.071C332.252 234.467 333.14 229.188 336.012 224.711C338.716 220.529 341.04 216.052 342.814 211.407C344.504 206.972 345.433 202.241 347.672 198.06C349.7 194.344 349.7 189.951 353.84 186.699C356.628 184.503 358.487 179.308 358.445 174.915C358.445 170.396 360.895 167.102 362.669 163.47C363.43 161.907 364.57 160.175 363.937 158.95C362.205 155.529 364.275 153.333 365.711 150.841C367.57 147.631 371.034 144.59 370.569 140.916C369.809 135.299 374.034 131.835 375.005 127.063C375.47 124.698 379.483 123.177 376.315 119.841C375.766 119.292 378.596 119.292 379.145 117.011C379.948 113.548 378.934 109.704 380.455 106.874C383.412 101.342 381.089 96.1044 380.92 90.7405C380.877 88.7554 382.525 87.6151 382.947 85.9257C383.074 85.3766 384.299 84.8698 384.215 84.4897C383.708 82.3357 382.694 80.3506 386.074 79.337C390.594 77.9855 395.03 77.5209 399.592 78.619C400.184 78.7457 400.86 79.8438 400.944 80.5618C401.282 82.6736 401.662 83.0115 402.634 80.8575C402.718 80.7308 403.859 80.8575 403.901 80.9419C404.957 86.1369 410.787 84.9965 413.533 88.2064C415.308 90.3182 416.913 92.5144 416.195 94.7106C412.562 106.241 414.843 117.982 414.505 129.597C414.167 142.901 414.632 156.29 415.73 169.551C417.293 188.811 416.786 208.154 419.321 227.371C419.913 231.891 419.448 236.579 419.617 241.14C419.617 241.605 418.645 243.083 420.335 242.872C421.18 242.745 422.067 242.745 422.785 241.689C425.489 237.761 424.56 232.313 428.911 228.723C429.967 227.878 430.347 222.599 430.77 219.347C431.361 214.447 432.333 210.308 436.642 207.099C438.078 206.043 436.938 202.537 438.416 200.51C436.726 199.369 437.402 198.145 438.585 197.258C443.824 193.372 443.528 186.699 446.401 181.631C449.696 175.844 448.513 167.778 455.23 163.512C455.399 163.385 455.399 162.92 455.399 162.583C455.188 155.149 460.215 150.63 464.186 145.224C465.96 142.774 467.355 139.184 468.453 135.848C470.058 130.948 471.706 124.782 477.958 122.67C478.212 122.586 478.719 122.29 478.676 122.248C476.48 117.095 482.521 115.659 483.83 111.816C484.633 109.324 486.365 103.538 491.815 103.749C492.068 103.749 492.491 103.073 492.575 102.651C493.04 100.75 495.533 97.287 497.265 96.8646C498.659 96.5267 499.166 95.682 499.63 94.5839C500.095 93.4436 501.362 92.9367 502.081 93.4013C507.826 97.287 515.43 95.1752 521.091 99.8211C525.485 103.453 527.766 107.423 526.33 113.041C525.062 117.982 524.006 123.008 521.894 127.696C521.176 129.343 520.373 131.202 522.232 132.68C523.457 133.651 524.724 136.143 525.95 132.427C527.048 129.006 530.132 126.809 532.286 124.022C534.019 121.826 537.525 122.544 539.637 119.672C540.862 118.067 542.003 115.955 543.439 114.308C546.819 110.464 551.551 109.155 555.606 106.621C558.141 105.058 560 103.242 561.478 100.328C562.83 97.6671 565.787 94.4572 570.012 95.8087C571.11 96.1466 571.11 96.4 571.322 95.133C571.913 91.543 574.068 90.107 577.785 90.9094C579.813 91.3318 579.813 90.9517 579.517 87.9107C579.222 85.081 582.179 86.7704 583.488 85.4611C585.347 83.5605 584.122 87.5729 585.601 87.784C588.22 83.645 590.543 79.1681 596.711 79.9705C597.387 80.055 598.401 78.9146 598.993 78.1122C603.006 72.9595 609.512 71.8191 614.919 69.454C616.82 68.6515 621.974 68.6093 623.537 67.6378C626.664 65.6528 629.79 65.9907 632.663 64.9348C635.746 63.7944 638.408 65.2727 640.351 65.8217C645.294 67.3 650.406 68.018 655.18 71.5657C659.784 74.9868 665.065 78.4078 668.74 82.3357C674.359 88.3331 677.739 96.569 676.64 105.438C675.162 117.475 671.698 129.006 666.501 140.029C665.952 141.127 664.643 142.479 666.079 143.619C667.98 145.139 668.402 142.479 669.628 142.056C671.951 141.254 671.74 136.481 675.584 138.213C674.444 133.271 680.569 135.214 681.752 131.582C683.104 127.57 686.864 124.782 691.764 124.318C693.581 124.149 692.314 120.728 694.553 120.052C694.595 120.052 694.299 118.785 694.384 118.742C699.284 116.926 700.298 111.394 704.227 108.733C709.888 104.889 716.183 101.848 719.435 95.3441C719.816 94.5839 720.999 93.8659 721.421 94.7106C722.942 97.5404 723.069 94.4994 723.026 94.246C722.139 90.4026 725.012 88.7132 727.209 86.6014C727.462 86.3903 727.673 86.1369 727.885 85.8412C729.025 84.194 732.87 89.7691 732.447 84.1096C732.278 81.4488 737.474 82.927 736.123 79.337C740.136 79.5904 740.727 75.5358 743.178 73.8464C744.529 72.9172 744.867 72.2837 744.698 70.9322C744.656 70.5943 744.656 70.2564 744.614 69.9185C750.486 72.1148 748.163 61.0914 754.119 64.3013C755.471 62.4851 749.303 62.5696 753.57 61.1336C756.781 60.0355 758.175 57.4592 760.16 55.5586C762.061 53.7425 766.497 52.9822 764.807 48.632C768.905 48.7165 766.666 41.9588 771.313 42.5924C769.497 37.9043 778.706 39.0446 775.96 33.8919C780.185 31.9913 780.438 27.261 782.889 24.0933C785.846 20.2922 790.113 18.3071 794.295 17.5469C797.717 16.9556 801.942 18.2649 805.11 20.5456C811.193 24.8958 817.319 29.246 821.079 36.0881C822.008 37.8198 824.121 38.6222 826.486 37.5664C826.655 36.1304 823.698 36.6794 824.628 35.0745C827.923 29.5839 825.641 23.3753 827.036 17.6313C827.205 16.9556 826.74 15.6885 827.669 15.773C832.992 16.1953 837.893 9.26878 843.511 14.9283C845.286 16.7022 847.82 14.5482 850.313 16.3643C855.551 20.1655 857.368 22.7418 856.65 29.3305C855.763 37.0595 854.96 44.8308 854.242 52.6021C853.777 57.3747 854.538 61.8516 856.777 66.2441C859.396 71.3968 858.213 73.2974 852.299 74.3955C847.229 75.3669 842.075 74.311 838.695 71.1011C834.471 67.0888 828.937 65.8217 824.29 62.8653C819.009 59.5287 814.615 55.4319 809.841 51.6729C807.729 50.0257 806.673 50.1525 805.575 52.053C797.126 66.4975 784.325 77.0985 772.707 88.7132C763.625 97.7938 753.655 105.945 744.065 114.519C743.473 115.068 742.924 115.702 742.459 116.673C746.304 115.11 749.937 119.883 753.781 116.462C752.852 115.068 751.035 117.729 750.148 115.87C750.993 114.012 753.063 113.632 754.288 114.308C758.175 116.504 761.301 112.407 765.019 113.379C765.906 113.59 763.751 110.38 765.441 110.802C769.708 111.9 772.961 107.592 777.185 109.197C778.284 109.62 781.199 112.492 780.269 107.719C780.143 107.086 781.664 107.254 782.466 107.212C787.24 106.874 791.718 106.621 796.534 104.763C802.237 102.609 807.518 97.118 814.827 99.8633C817.15 100.75 818.164 97.118 820.825 96.7801C826.951 96.0199 833.668 97.0758 836.837 101.088C839.498 104.467 844.314 104.847 845.793 109.282C847.018 112.872 847.525 115.321 843.511 117.56C827.416 126.345 814.362 139.015 801.35 151.644C787.156 165.412 775.115 181.039 763.54 196.962C752.556 212.082 741.488 227.245 732.954 244.054C726.195 257.401 718.971 270.536 712.296 284.051C714.028 280.588 718.253 279.743 720.069 276.449C720.069 276.364 720.534 276.491 720.534 276.449C722.181 271.169 728.603 269.058 730.039 265.087C731.687 260.568 734.348 257.992 737.474 255.416C739.291 253.937 740.094 252.375 740.812 250.263C742.333 246.039 743.22 245.828 747.318 247.602C749.008 240.169 754.204 235.227 760.372 231.891C762.906 230.497 761.132 226.4 765.145 226.78C769.328 227.202 769.201 223.781 769.328 220.909C773.637 221.078 772.876 212.927 778.537 215.25C779.213 215.546 779.636 214.828 780.058 214.236C783.184 209.928 785.804 205.029 792.014 204.269C792.183 204.269 793.915 201.439 794.506 199.496C795.647 195.695 800.167 194.681 803.167 192.443C804.899 191.134 805.997 186.995 809.673 189.275C808.828 186.065 811.743 184.925 813.348 183.489C818.544 178.801 824.754 175.084 829.275 169.847C832.697 165.919 837.47 163.638 840.385 159.119C841.695 157.092 845.328 156.078 848.201 156.712C852.51 157.641 857.284 157.345 860.832 160.555C862.902 162.414 864.17 161.231 863.747 159.499C862.353 153.882 867.38 150.799 868.394 146.195C868.394 146.069 868.774 145.942 868.774 145.9C867.296 138.72 876.167 136.186 876.125 129.301C876.125 126.725 880.688 124.655 878.153 120.939C877.984 120.685 878.829 119.46 879.42 118.911C882.124 116.462 883.814 113.674 885.419 110.211C886.771 107.212 888.545 103.369 891.249 100.708C893.911 98.0894 892.939 93.0212 897.459 91.6697C895.939 85.1655 904.092 83.0959 904.092 77.0985C904.092 73.8464 908.781 74.9023 910.175 71.7769C910.978 69.9608 910.725 67.5111 913.048 65.9062C917.737 62.6541 922.004 58.8529 924.919 53.5735C926.778 50.2369 927.623 45.3799 932.946 45.1687C932.016 37.9887 939.536 36.7639 942.705 32.6248C945.577 28.9081 947.014 21.4748 954.491 22.3195C956.223 22.5306 956.097 19.7853 957.913 19.8698C957.702 13.3656 965.602 14.3792 967.334 9.69112C972.572 11.2538 973.882 5.59431 977.473 4.11607C978.614 3.65149 979.627 2.21549 980.937 3.82043C981.529 4.53843 982.331 4.36949 982.5 3.69373C983.81 -1.24779 986.894 1.11738 989.555 1.96209C990.611 2.29997 991.752 2.46889 992.386 1.66642C994.033 -0.529807 995.47 -0.318619 997.159 1.4975C997.371 1.75091 998.258 1.75091 998.596 1.4975C1005.1 -2.55709 1010.51 2.72231 1015.79 4.41172C1021.37 6.22783 1026.73 10.1979 1030.15 15.7308C1034.04 21.8971 1036.15 28.528 1037.25 35.7503C1039.79 52.3065 1035.39 67.8913 1031.46 83.6028C1029.48 91.6274 1028.76 100.074 1025.89 107.719C1020.77 121.234 1017.1 135.256 1010.3 148.18C1006.07 156.163 1003.71 164.99 1001.85 173.986C1000.12 182.306 996.906 190.373 993.695 198.314C988.499 211.111 983.303 223.95 978.529 236.832C972.953 251.826 967.63 266.988 963.067 282.404C958.167 299.045 953.52 315.854 946.718 331.904C943.296 339.971 941.099 348.544 935.945 355.935C932.481 360.835 928.341 365.143 924.75 369.873C919.258 377.18 913.513 384.402 908.824 392.3C907.134 395.13 905.064 396.017 902.275 393.989C899.614 392.047 896.488 393.102 893.615 392.384C890.953 391.709 886.687 389.724 887.194 388.668C888.461 385.796 884.532 382.459 888.588 380.052C890.278 379.038 887.447 374.857 891.376 374.266C888.883 370.464 896.065 367.592 892.432 363.664C892.263 363.496 892.305 362.946 892.432 362.735C897.248 355.64 892.686 346.601 896.488 339.886C899.318 334.902 897.755 330.045 899.107 325.23C900.163 321.556 899.698 317.459 902.656 314.292C902.656 314.292 903.416 313.489 902.318 313.362C899.572 313.024 898.853 311.588 900.67 309.434C903.036 306.605 904.683 304.028 902.191 300.354C901.811 299.763 901.092 297.693 903.247 296.553C905.19 295.539 904.979 289.162 903.163 287.768C901.937 286.839 900.543 287.768 899.445 288.232C894.249 290.598 889.137 291.611 883.729 288.781C882.335 288.063 880.561 288.612 878.913 289.373C869.155 294.061 864.761 291.696 864.508 281.221C864.465 278.941 863.62 279.279 862.48 278.772C861.762 278.434 861.086 277.8 860.621 277.125C857.579 273.112 853.524 269.818 852.383 264.496C852.045 262.891 851.918 260.23 848.961 260.315C847.99 260.315 847.652 259.386 847.44 258.583C846.173 253.219 844.145 248.024 845.075 242.28C845.75 238.141 845.581 233.791 845.75 229.61C846.046 223.781 846.3 217.784 847.018 211.913C848.116 203.297 852.425 195.315 852.214 185.981C842.624 192.485 833.795 199.623 824.839 206.718C815.418 214.194 806.673 222.43 797.844 230.497C792.056 235.776 786.86 241.731 781.326 247.306C769.159 259.681 758.809 273.577 748.501 287.43C738.319 301.199 728.518 315.474 723.322 332.157C722.646 334.395 721.252 336.254 719.773 338.112C716.943 341.618 714.324 345.208 713.732 349.98C712.972 356.062 708.494 360.37 705.072 364.974C699.453 372.618 694.891 380.896 688.934 388.372C680.274 399.227 673.176 401.296 659.446 397.875C657.841 397.495 656.278 396.946 654.757 396.397C650.786 395.045 645.716 394.75 647.026 388.33C642.295 386.725 645.505 383.853 645.885 381.361C646.35 378.32 645.379 375.152 646.773 372.112C647.322 370.887 646.181 368.099 649.223 370.422C649.941 370.971 650.195 369.746 650.068 369.155C649.138 365.016 650.786 361.764 652.856 358.258C653.954 356.4 652.856 353.528 653.659 350.783C655.18 345.588 658.475 341.28 660.122 336.423C662.023 330.805 664.093 325.188 665.53 319.36C666.67 314.841 668.064 309.899 670.304 306.013C673.387 300.481 675.796 294.906 677.274 288.908C677.781 286.796 679.429 286.078 680.485 284.685C681.287 283.629 685.639 283.206 681.541 280.799C681.414 280.715 681.33 280.503 681.33 280.377C681.161 278.772 687.16 271.465 690.497 270.494C687.667 270.409 685.639 269.395 686.948 268.044C689.23 265.763 691.342 262.384 691.511 260.357C692.018 254.402 700.932 252.417 697.975 245.364C697.594 244.434 698.904 244.139 699.369 243.505C703.171 238.268 704.734 231.51 710.268 227.456C710.986 226.907 710.775 226.273 709.761 226.231C708.24 226.147 708.071 225.513 708.958 224.373C712.718 219.473 715.169 213.898 718.168 208.577C719.182 206.761 720.449 203.931 722.9 202.664C725.223 201.481 725.899 199.496 726.026 196.92C726.153 192.95 729.743 192.401 732.574 191.007C729.152 190.373 728.054 189.444 731.56 186.952C732.996 185.939 734.095 182.391 734.475 182.306C739.756 181.039 739.418 176.225 741.108 172.761C741.868 171.156 743.135 172.297 744.191 172.297C745.205 172.297 746.008 171.663 745.966 170.861C745.924 169.34 744.825 171.03 744.234 170.481C742.882 169.298 743.473 168.369 744.614 167.735C749.557 164.948 751.331 159.204 756.02 155.994C759.104 153.882 758.513 153.08 760.879 154.811C759.189 150.292 761.639 147.969 764.512 145.857C765.103 145.393 766.244 145.857 765.948 144.041C765.23 139.522 768.018 141.634 770.384 142.521C769.497 139.902 770.299 136.481 765.779 137.664C749.979 141.803 734.813 147.8 720.069 154.685C713.648 157.683 707.987 162.034 700.383 162.456C696.876 162.667 694.088 166.004 691.638 168.791C688.723 172.043 685.554 172.972 681.372 170.903C676.049 168.284 670.43 166.13 664.981 163.765C662.953 162.878 661.516 161.358 660.291 159.457C658.728 156.965 656.954 156.459 655.095 159.457C643.731 177.661 628.269 192.274 613.103 207.141C601.865 218.164 589.487 227.752 577.109 237.381C575.8 238.395 574.659 239.704 573.434 240.802C572.631 241.52 571.955 242.28 572.504 243.379C573.011 244.434 574.025 243.548 574.701 243.759C581.038 245.913 587.797 244.181 594.219 245.87C603.471 248.32 611.413 252.29 616.398 261.075C618.933 265.552 615.933 268.466 614.117 271.423C610.483 277.378 604.949 281.897 600.387 287.134C587.291 302.086 573.476 316.403 563.337 333.72C555.268 347.488 546.397 360.877 540.271 375.702C537.06 383.473 531.019 386.64 522.401 383.684C517.331 381.952 512.22 380.981 508.629 376.757C506.685 374.477 504.404 372.027 508.333 369.366C509.347 368.648 509.981 367.55 509.558 366.283C507.488 360.624 511.755 356.147 512.473 351.036C512.727 349.22 511.966 346.264 516.106 346.601C517.5 346.728 516.486 342.843 517.247 341.069C518.81 337.436 520.584 333.846 522.739 330.51C524.598 327.638 524.893 324.428 525.569 321.218L525.907 321.978ZM940.846 242.449C945.704 242.534 947.985 237.635 947.985 235.438C947.985 225.724 954.914 218.629 956.392 209.759C957.11 205.451 960.068 202.368 960.87 198.145C961.757 193.71 965.264 190.078 966.32 185.39C966.616 184.123 968.939 183.278 969.193 180.49C969.7 175 973.037 170.058 973.46 164.356C973.502 163.681 974.811 163.005 975.656 162.414C979.712 159.626 979.036 154.938 979.67 151.095C979.881 149.701 979.501 147.8 980.177 146.153C981.402 143.112 983.387 140.789 986.176 138.973C987.697 138.002 987.781 136.819 987.021 136.735C982.711 136.228 985.373 133.863 985.711 132.131C986.64 127.485 992.977 124.698 990.4 118.785C994.287 117.813 990.738 113.21 994.202 111.182C995.385 110.464 996.23 106.621 998.765 104.889C999.525 104.382 999.694 101.848 998.68 100.37C998.004 99.3565 998.258 98.6385 998.68 97.6248C1000.5 93.4013 1002.44 89.22 1002.27 84.4897C1002.19 82.3779 1002.1 80.9842 1004.09 79.0414C1005.52 77.6054 1009.62 74.311 1005.95 70.5943C1005.02 69.6651 1005.95 68.8204 1006.37 67.8912C1009.66 60.4578 1010.85 52.5599 1010.8 44.4929C1010.8 41.2831 1010.47 37.9042 1010.68 34.8633C1010.89 31.6534 1005.95 28.7814 1010.55 25.5293C1002.14 28.1901 994.54 31.6957 987.021 35.4546C981.402 38.2844 977.431 43.1414 972.488 46.7314C964.63 52.3909 957.237 58.515 951.112 66.0329C937.72 82.5046 927.665 101.299 915.372 118.574C909.753 126.429 905.824 135.425 901.346 144.041C892.474 161.231 885.842 179.308 880.181 197.722C875.787 212.04 872.07 226.527 872.196 241.689C872.281 250.347 873.041 258.752 878.575 265.89C881.828 270.113 886.602 273.281 891.503 273.197C897.121 273.07 902.233 268.931 908.105 268.255C908.697 268.171 909.668 267.791 908.866 266.481C906.627 262.849 907.852 259.301 908.992 255.542C909.499 253.937 914.4 251.065 908.697 249.376C908.105 249.207 908.19 247.729 908.697 247.644C912.076 247.18 909.499 244.646 910.006 243.928C911.907 241.182 908.697 239.746 909.035 237.297C909.795 231.764 914.569 226.4 910.218 220.445C909.922 220.065 910.387 218.629 910.894 218.249C913.386 216.39 911.865 213.814 912.33 211.66C912.921 208.788 908.95 206.845 910.471 204.564C913.64 199.876 909.795 194.977 911.569 190.5C913.048 186.699 909.711 183.7 910.344 180.448C911.316 175.38 909.753 170.312 910.978 165.201C911.4 163.512 910.894 160.555 909.711 159.668C906.965 157.641 909.584 157.345 910.302 156.585C913.978 152.742 918.751 155.023 922.849 155.023C926.355 155.023 930.876 154.727 932.65 159.795C936.959 172.043 941.522 184.334 941.733 197.427C941.86 206.212 943.338 215.165 940.423 223.866C944.225 230.159 940.339 236.536 940.761 242.407L940.846 242.449ZM279.192 268.72C277.882 266.946 276.826 265.721 276.91 263.145C276.995 259.977 277.037 256.514 275.939 253.05C274.333 248.024 276.446 242.618 276.023 237.212C275.812 234.678 277.037 231.342 276.488 228.512C276.15 226.78 278.093 225.724 276.953 223.866C275.178 220.994 275.221 211.069 276.234 207.225C276.572 205.958 276.572 203.973 274.545 203.509C273.615 203.297 272.813 202.875 272.897 201.988C273.362 196.793 271.503 191.894 271.165 186.826C270.742 180.617 270.236 174.366 269.602 168.158C269.391 166.215 265.631 164.019 270.193 162.667C270.067 162.371 270.024 162.034 269.813 161.865C266.687 159.204 267.616 155.276 267.278 152.066C266.476 144.59 266.518 137.073 266.349 129.555C266.307 126.852 263.518 123.726 266.011 121.657C268.461 119.629 264.49 120.01 265.42 118.531C265.842 117.856 264.11 117.138 262.758 117.856C258.66 120.052 253.971 121.108 250.127 123.853C235.847 134.116 221.568 144.379 207.331 154.727C198.291 161.316 189.419 168.073 180.379 174.662C178.224 176.225 178.14 177.576 178.942 180.152C181.055 186.952 182.956 193.879 184.223 200.89C185.617 208.746 186.589 216.728 187.645 224.626C188.659 232.44 186.969 240.169 188.363 247.94C189.842 256.176 189.166 264.538 189.293 272.859C189.419 280.081 189.377 287.219 182.702 292.16C182.195 292.54 181.435 293.132 181.477 293.554C181.984 298.115 179.829 302.17 179.027 306.436C178.562 308.843 177.675 311.757 179.998 314.334C183.843 318.642 186.631 309.054 190.475 313.742C191.067 314.46 190.856 312.94 190.982 312.518C191.532 310.49 192.25 308.505 192.503 306.436C192.926 302.592 194.404 299.087 194.024 294.906C193.559 289.753 198.206 284.811 195.967 279.11C195.841 278.856 195.967 278.18 196.094 278.138C199.601 277.125 197.53 272.985 200.15 271.043C201.333 270.156 201.417 266.692 198.206 265.89C199.981 262.173 198.291 258.076 199.601 254.191C201.502 248.447 204.036 242.407 197.995 237.297C196.517 236.03 196.855 234.509 197.108 232.82C198.418 224.88 197.868 217.066 194.911 209.506C194.531 208.577 193.517 207.605 194.278 206.761C198.037 202.537 199.77 197.722 200.319 192.063C200.445 190.669 200.783 187.797 202.642 186.699C209.021 182.856 215.231 184.798 221.442 187.375C222.498 187.797 223.681 187.924 224.483 188.853C228.666 193.626 231.116 199.116 231.75 205.451C233.059 218.375 232.975 231.257 232.806 244.266C232.51 266.228 229.342 287.726 225.751 309.223C225.455 310.913 224.188 313.447 226.342 314.292C227.736 314.841 230.313 317.121 231.961 312.982C232.595 311.42 236.397 308.801 239.819 309.35C241.17 309.561 241.889 309.181 242.734 308.167C247.212 302.93 252.83 299.129 258.956 296.13C262.04 294.61 261.575 289.668 265.842 289.711C264.828 285.107 269.855 284.938 271.714 282.488C273.362 280.292 275.178 279.447 274.164 276.195C273.235 273.197 276.657 268.466 279.276 268.762L279.192 268.72ZM65.9347 274.253C64.6673 272.436 63.6112 270.831 66.4416 269.48C67.3288 269.058 68.8497 273.197 68.6807 269.227C68.6384 268.044 69.3144 265.594 66.5261 265.51C64.7096 265.51 63.4844 266.143 63.3577 267.917C63.1887 270.325 61.1609 273.577 65.9769 274.253H65.9347ZM565.111 275.139C566.337 274.548 567.731 274.041 568.871 273.239C570.477 272.099 570.139 270.24 569.97 268.593C569.843 267.495 568.871 267.537 568.026 267.579C565.914 267.579 565.703 269.184 565.618 270.747C565.576 272.183 563.675 273.323 565.111 275.182V275.139Z" fill="#1CD1C2"/>
</svg>
