<svg width="162" height="82" viewBox="0 0 162 82" fill="none" xmlns="http://www.w3.org/2000/svg">
<path d="M4.45521 45.0392C9.14908 37.7359 13.4456 33.6171 18.7941 27.7075C26.2711 19.507 35.6011 9.95394 45.6328 1.77613C45.8465 1.60631 46.1056 1.41158 46.5512 1.22447C46.7836 1.13213 47.0215 1.04889 47.4227 0.999209C47.9713 0.926469 48.7496 1.03262 49.3704 1.40392C49.981 1.73618 50.4398 2.38624 50.5383 2.58387C50.6826 2.8376 50.7686 3.06174 50.8294 3.25672C50.947 3.63764 50.9766 3.96088 50.9889 4.14774C51.0219 4.73704 50.9556 5.16298 50.918 5.44706C50.8952 5.60575 50.8671 5.77202 50.838 5.92897C50.8145 6.05639 50.7887 6.18608 50.7609 6.31883C50.7061 6.58134 50.6369 6.87755 50.5832 7.09638C50.3293 8.12434 50.0691 9.00671 49.7934 9.91088C49.2375 11.7202 48.6519 13.4464 48.0472 15.1725C46.8608 18.5497 45.6245 21.826 44.4295 24.8956C39.506 37.4935 34.0426 50.101 28.4801 62.302C28.1925 62.9323 27.9622 63.2763 27.8329 63.5585C27.0883 65.1831 26.0539 67.4876 25.0678 69.6449C24.4562 70.9824 23.913 72.2518 23.5261 73.2324C23.2059 74.0446 22.8753 74.9503 22.6784 75.7725C22.5809 76.1463 22.5485 76.5892 22.5566 76.531C22.544 76.5043 22.5599 76.1958 22.148 75.7002C21.9457 75.4644 21.6582 75.2741 21.4342 75.1847C21.214 75.0944 21.0646 75.0775 20.9906 75.0709C20.74 75.0809 21.2244 75.0423 21.6379 74.8865C22.0799 74.7392 22.5988 74.5243 23.1196 74.2893C24.1648 73.8167 25.2659 73.2513 26.3424 72.6881C29.0672 71.261 31.6165 69.8833 33.5022 68.8645C35.5826 67.7421 37.6856 66.5572 38.5667 66.2359C39.3122 65.8182 39.6586 65.4514 39.8447 65.335C39.8469 65.3338 39.8492 65.3327 39.8515 65.3315C40.4676 64.9489 42.1067 64.1106 42.4468 63.9027C42.4992 63.8707 42.1221 63.9715 42.989 63.4985C43.0672 63.4555 43.0309 63.56 43.7419 63.1413C43.9352 63.0296 46.2432 61.5289 46.9199 61.1107C49.1637 59.7461 54.549 56.5134 57.1872 54.8125C57.5961 54.5511 57.8013 54.3703 58.2285 54.0948C58.4487 53.9528 58.8051 53.7768 58.8732 53.7325C59.1674 53.5417 60.3529 52.528 60.1073 53.1693C61.4463 52.2679 60.9726 52.4154 60.9564 52.3228C62.1716 51.5165 62.9245 51.1728 63.3086 50.8341C63.3882 50.764 63.4513 50.6947 63.4984 50.6222C70.7258 45.8673 77.9066 41.0453 85.0451 36.1741C85.0286 36.1455 85.0121 36.1169 84.9956 36.0884C87.1777 34.7493 87.7419 34.0897 89.0737 33.4032C89.7879 32.8595 90.4926 32.3218 91.2181 31.7691C94.6237 29.4441 98.0433 27.0819 101.447 24.7492C103.151 23.5838 104.864 22.4125 106.644 21.2444C107.499 20.687 108.426 20.0837 109.433 19.5086C109.657 19.3813 109.991 19.1991 110.281 19.0611C110.444 18.9825 110.675 18.8786 110.905 18.7959C110.991 18.7648 111.229 18.6814 111.49 18.6281C111.625 18.6002 111.78 18.5748 111.972 18.562C112.06 18.5583 112.638 18.506 113.285 18.7563C113.951 18.9582 114.801 19.8066 115.003 20.4757C115.263 21.1815 115.21 21.7182 115.153 22.0759C115.07 22.501 115.045 22.5119 114.995 22.666C114.95 22.7907 114.904 22.8968 114.858 22.9929C114.647 23.4197 114.579 23.4998 114.45 23.6992C114.324 23.8875 114.226 24.0192 114.133 24.1433C114.037 24.2708 113.935 24.4003 113.828 24.5342C104.619 36.0409 95.439 47.6124 87.2615 59.5138C86.729 60.3025 86.5337 60.4599 85.6835 61.7562C84.7426 63.197 83.5258 65.2738 82.4816 67.1858C82.0373 67.9993 81.5042 68.9968 81.081 69.9676C81.0134 70.1146 80.9828 70.23 80.9809 70.2232C80.9743 70.2225 81.0075 70.0448 80.8824 69.7244C80.7634 69.4018 80.4623 69.117 80.3321 69.0505C80.1929 68.9709 80.1984 68.9979 80.2741 69.0135C80.4152 69.0499 80.6758 69.02 80.7005 69.0207C80.9093 69.0297 80.9219 69.0997 81.1531 69.0958C81.4379 69.0891 81.8055 69.0051 82.1784 68.958C83.0892 68.8459 84.1317 68.6006 84.7904 68.427C85.1405 68.3354 85.4069 68.2604 85.4686 68.2442C86.4144 67.9907 86.6454 67.9867 86.7232 67.966C87.7827 67.6567 87.3677 67.7147 87.6311 67.6381C89.0061 67.2271 90.0294 67.0522 91.8587 66.2474C91.8264 66.3198 91.7942 66.3921 91.7621 66.4644C93.2124 65.9806 92.2098 66.1768 92.4944 66.0456C92.6173 65.9986 95.7045 64.8682 95.9463 64.7707C96.7758 64.4622 96.8301 64.5213 96.9001 64.4956C97.0733 64.4331 99.1237 63.5328 100.212 63.16C101.504 62.7194 100.076 63.4682 100.4 63.3674C100.457 63.3508 101.765 62.7981 101.964 62.7675C102.179 62.7357 101.037 63.2045 101.065 63.216C101.08 63.2279 103.015 62.5447 102.68 62.7614C102.421 62.9514 99.815 63.9171 99.2774 64.1648C99.1897 64.206 99.3923 64.2216 99.314 64.2564C99.0048 64.4169 93.0405 66.7035 92.7559 66.7615C93.0548 66.6102 93.3526 66.4582 93.6483 66.306C93.2373 66.4527 92.8144 66.6019 92.4037 66.7446C92.9789 66.5037 93.5555 66.2583 94.1353 66.0081C93.1495 66.0232 90.6242 67.2769 90.5732 67.465C90.5493 67.5567 92.2303 67.1857 90.7667 67.8152C90.9988 67.7567 91.234 67.6964 91.4721 67.6344C91.9307 67.4396 92.3991 67.2384 92.853 67.0398C92.5351 67.1326 92.211 67.2264 91.8907 67.3176C91.9981 67.2549 92.1061 67.1918 92.2147 67.1283C93.0781 66.7812 93.9554 66.4196 94.8121 66.0583C95.2744 65.9031 95.1992 66.0049 95.5139 65.9C99.4342 64.5704 96.8427 65.3454 99.3728 64.3783C99.7437 64.2697 100.123 64.1568 100.492 64.0472C100.307 63.9567 101.458 63.5959 102.776 62.9765C102.634 63.0889 102.493 63.201 102.353 63.3128C104.289 62.4924 108.316 61.0222 107.147 61.2288C107.6 61.0584 108.053 60.8864 108.504 60.7146C108.862 60.5096 109.217 60.3045 109.572 60.0991C110.092 59.8751 110.606 59.6522 111.125 59.426C111.138 59.447 111.15 59.4681 111.162 59.4891C110.749 59.6739 110.343 59.8543 109.929 60.0381C110.27 59.9677 110.605 59.8996 110.944 59.8291C111.243 59.6826 111.543 59.5349 111.84 59.3885C110.542 59.8932 112.167 59.0412 112.535 58.767C113.588 58.2521 114.324 58.0536 114.685 57.8947C114.857 57.8204 116.742 56.7032 116.068 57.2848C116.136 57.2511 116.205 57.2173 116.273 57.1835C117.208 56.7193 118.146 56.2495 119.081 55.7775C119.484 55.6076 119.893 55.4349 120.295 55.2643C119.484 55.7766 122.036 54.7141 120.22 55.6311C118.86 56.3155 118.476 56.3768 117.824 56.6833C117.26 56.9479 116.976 57.1535 116.389 57.4345C116.365 57.4461 116.34 57.4578 116.315 57.4697C112.003 59.4853 108.456 61.0452 104.287 62.7712C103.463 63.1112 102.727 63.4551 102.172 63.6785C101.544 63.9311 102.292 63.5259 101.506 63.8726C100.678 64.2364 100.523 64.3772 100.305 64.4673C100.167 64.5237 99.7017 64.6401 99.3033 64.799C97.6507 65.4638 95.2398 66.4494 95.0024 66.535C94.7391 66.6529 89.9985 68.2802 89.7636 68.3215C89.64 68.3553 89.8168 68.0435 88.851 68.6306C88.5304 68.7388 88.199 68.8485 87.878 68.9525C87.9159 68.8897 87.9538 68.8269 87.9919 68.7639C86.2025 69.4913 86.691 69.2596 85.112 69.6861C85.0429 69.7039 84.9705 69.7226 84.8948 69.7421C82.6101 70.4357 78.203 70.7511 79.8445 69.453C80.7807 67.2467 82.1029 65.0387 83.2541 63.1609C83.8545 62.1924 84.039 61.7936 84.7846 60.6465C85.4724 59.5758 87.4834 56.96 86.8813 57.4109C88.6659 55.2047 88.6403 54.6372 89.6457 53.617C89.7198 53.4578 89.7959 53.2959 89.8701 53.137C90.8764 51.9841 91.0562 51.5276 92.0463 50.1531C92.4665 49.5717 92.0888 50.3328 92.8275 49.0561C93.0056 48.8369 93.1855 48.6158 93.3586 48.4042C93.3493 48.4773 93.34 48.5503 93.3308 48.6232C94.268 47.3166 94.3606 47.2284 94.1366 47.3007C94.6299 46.6838 95.1112 46.086 95.6146 45.4617C95.638 45.3572 95.6599 45.2547 95.6828 45.1509C95.3156 45.3672 84.918 59.8025 83.7972 61.9936C82.583 63.7526 80.6566 66.9894 79.6904 69.3888C79.5512 69.7273 79.4964 70.0147 79.4997 70.1527C79.5067 70.298 79.5145 70.2495 79.5043 70.2525C79.5059 70.2787 79.7914 70.6331 80.9252 70.6471C82.107 70.6694 83.7268 70.2406 84.4005 70.0788C84.6042 70.0308 84.8489 69.9718 85.1642 69.8909C88.4219 69.1223 96.8574 66.0418 90.1893 68.5172C90.4136 68.4936 90.6409 68.4683 90.871 68.4414C93.7323 67.2665 92.7104 67.7353 95.1279 66.8607C96.146 66.4917 98.5045 65.4529 98.4539 65.7096C96.5922 66.4885 94.5698 67.1769 92.9269 67.7697C92.7666 67.8303 90.8486 68.617 89.8304 68.9196C88.9168 69.1891 89.4844 68.7979 87.5638 69.6388C86.4382 69.8004 85.7084 70.0634 85.2531 70.2388C85.0789 70.305 84.9455 70.358 84.8431 70.3891C84.1772 70.5864 84.0783 70.4916 83.407 70.6083C82.6738 70.7308 82.1971 70.8579 82.0924 70.8705C81.6986 70.9107 80.4005 71.0648 79.5516 70.7512C79.1392 70.5665 79.1192 70.4986 79.0853 70.2083C79.0702 69.9076 79.2127 69.4886 79.3265 69.2374C79.4147 69.0377 79.4806 68.9027 79.5013 68.8724C79.4577 69.0044 79.4168 69.1334 79.3787 69.2591C79.3601 69.3227 79.3438 69.3841 79.33 69.4433C79.354 69.383 79.3785 69.3248 79.4027 69.2691C79.8536 68.2582 79.6756 68.4337 79.8079 68.1139C79.9318 67.8555 80.0444 67.6289 80.1721 67.3782C80.1439 67.4875 80.1169 67.5954 80.0913 67.7018C80.8445 66.2302 80.1653 67.2971 81.318 65.2374C82.0662 63.9311 82.9882 62.6429 83.0572 62.5195C83.0784 62.4821 82.7753 62.8471 83.0923 62.3266C83.6325 61.4367 84.5983 59.9715 84.7833 59.8499C85.0543 59.4204 84.9641 59.4063 84.9985 59.3511C85.1325 59.1061 87.9736 54.9408 88.5115 54.2032C89.9498 52.1598 91.6117 49.9206 93.226 47.7361C93.3917 47.5119 93.3279 47.6867 93.4944 47.4611C93.7682 47.088 95.0803 45.2067 95.2891 44.9235C95.7888 44.2377 97.1934 42.4532 97.392 42.1558C97.4202 42.1133 96.9068 42.664 97.4224 41.9547C97.9998 41.1619 97.7537 41.6424 97.7885 41.5985C99.0049 40.0709 99.7142 39.0467 100.537 37.967C100.801 37.6214 101.346 37.0411 101.712 36.5388C101.754 36.4812 101.613 36.5507 101.654 36.4936C102.211 35.7235 102.828 35.1409 103.087 34.8236C103.714 34.0582 103.309 34.424 103.34 34.3833C103.754 33.852 104.306 33.205 104.929 32.4101C107.46 29.1808 109.578 26.521 112.223 23.2416C112.356 23.0766 112.475 22.9232 112.58 22.7798C112.701 22.6131 112.821 22.4435 112.94 22.2262C112.999 22.1162 113.052 22.0062 113.096 21.866C113.119 21.7845 113.171 21.5973 113.13 21.3677C113.107 21.1431 112.879 20.7986 112.608 20.6919C112.357 20.5764 112.132 20.6018 112.088 20.6017C112.005 20.6065 111.933 20.6176 111.866 20.6311C111.727 20.6596 111.621 20.6943 111.555 20.7143C111.409 20.7603 111.257 20.8205 111.163 20.8585C111.081 20.8907 111.021 20.9163 111 20.927C110.866 20.9951 110.824 21.0392 110.713 21.1207C110.6 21.204 110.484 21.2864 110.091 21.5166C108.604 22.3995 107.28 23.2974 105.868 24.2429C105.586 24.4331 105.421 24.4584 105.196 24.6093C104.502 25.0711 102.094 26.951 101.955 26.7663C100.637 27.9236 99.5826 28.4385 98.4565 29.2204C95.7479 31.1018 91.5127 34.0872 88.7929 35.9267C88.2275 36.3091 87.9245 36.4454 87.6036 36.6623C87.0104 37.0645 83.7806 39.3191 83.6167 39.4186C83.2711 39.6329 83.3368 39.272 81.7222 40.65C80.7368 41.3414 80.7894 41.1753 80.5791 41.3116C78.9057 42.3989 77.4812 43.6528 77.6474 43.2749C75.747 44.6345 74.6331 45.5307 73.7171 45.8999C73.7738 45.9825 72.9328 46.6214 71.829 47.3157C72.8431 46.4317 72.6301 46.448 75.3294 44.6647C75.3714 44.6369 75.3323 44.7508 75.3743 44.723C75.7544 44.4724 76.5218 43.9097 77.1832 43.4665C77.837 43.0285 77.503 43.3146 77.7624 43.1376C77.9991 42.976 77.9526 42.9237 78.2933 42.6914C79.3818 41.9498 80.3982 41.2349 81.0153 40.8128C81.4081 40.5443 81.8867 40.2916 82.2036 40.0753C83.4118 39.2507 85.9023 37.4869 87.4354 36.4398C87.7542 36.2224 87.6626 36.3686 88.3539 35.8996C88.4388 35.8419 88.6716 35.5951 89.2832 35.1556C89.8916 34.7182 90.379 34.4249 90.7586 34.1539C91.0792 33.925 90.8912 33.9779 91.5732 33.5019C92.1239 33.1197 98.4586 28.7868 98.7937 28.5676C99.2912 28.241 99.5916 28.1414 99.8829 27.9269C99.9343 27.8885 99.975 27.7559 100.152 27.626C101.537 26.6128 103.754 25.0766 106.071 23.5368C107.261 22.7485 108.462 21.9629 109.659 21.2519C110.333 20.8806 110.685 20.5765 111.77 20.2377C111.859 20.2175 111.955 20.2001 112.071 20.1921C112.117 20.1904 112.496 20.153 112.867 20.3584C113.056 20.4579 113.258 20.6469 113.371 20.8416C113.483 21.0275 113.536 21.2205 113.554 21.3789C113.592 21.6842 113.51 21.9479 113.492 22.0071C113.436 22.1853 113.372 22.3159 113.303 22.4431C113.233 22.5678 113.201 22.6163 113.146 22.7018C112.908 23.0598 112.769 23.2292 112.549 23.5045C112.346 23.755 112.154 23.9926 111.975 24.2154C106.485 31.0485 101.503 37.4129 96.1704 44.4505C96.087 44.585 96.0039 44.719 95.9213 44.8526C96.4589 44.1452 97.0061 43.4286 97.5451 42.7257C97.5807 42.7458 97.6162 42.7659 97.6518 42.786C98.395 41.827 98.224 41.8939 98.1572 41.8858C98.4444 41.5522 98.7344 41.2157 99.0273 40.8761C99.1558 40.4768 101.055 38.1781 101.996 36.9765C102.623 36.1733 103.297 35.2285 103.632 34.8082C104.338 33.9249 104.377 34.0174 104.434 33.9465C104.521 33.839 105.439 32.5521 106.128 31.6877C107.16 30.3929 107.376 30.3352 108.704 28.4879C109.982 26.9621 111.311 25.3024 112.669 23.6012C112.87 23.3476 112.99 23.1947 113.192 22.8992C113.295 22.7436 113.34 22.6829 113.471 22.4329C113.529 22.3184 113.584 22.1967 113.632 22.0366C113.666 21.871 113.904 21.2601 113.335 20.5558C113.036 20.2141 112.642 20.0914 112.395 20.0624C112.098 20.034 112.069 20.0554 111.962 20.0633C111.78 20.0867 111.643 20.1257 111.511 20.1685C111.331 20.2285 111.186 20.2906 111.021 20.3667C110.769 20.4843 110.483 20.6382 110.275 20.7559C110.756 20.3182 108.257 21.9383 107.224 22.6479C100.726 26.9689 92.9841 32.3828 86.4644 36.7817C85.6487 37.3346 84.9767 37.7072 84.5098 38.0301C84.2592 38.2033 84.1831 38.3594 83.8395 38.5808C83.7775 38.6206 83.6932 38.5813 83.0419 39.0121C81.3763 40.1166 77.4766 42.9286 76.3414 43.5085C72.2279 46.3125 68.1148 49.0867 63.9779 51.8455C62.5487 52.7985 61.1194 53.74 59.6846 54.6737C59.5272 54.7364 59.3664 54.8011 59.2077 54.8644C58.2372 55.6962 53.9542 58.2966 51.8736 59.5814C48.2284 61.8555 43.5346 64.7101 40.2765 66.5892C39.5624 67.0023 38.9619 67.2916 38.2878 67.6769C38.0032 67.8396 37.6663 68.1018 37.3661 68.2722C34.3427 69.9929 30.2809 72.1667 26.9782 73.8936C26.584 74.1002 26.2202 74.2893 25.8547 74.4772C24.6088 75.1139 23.3312 75.7484 22.1551 76.1606C21.5959 76.3677 20.9293 76.476 20.8587 76.4391C20.8515 76.4377 20.9187 76.4483 21.0102 76.5137C21.1022 76.5768 21.1742 76.6824 21.1901 76.7227C21.2165 76.8044 21.1657 76.6371 21.183 76.4136C21.4107 74.301 22.7015 71.542 23.825 69.0676C25.1441 66.23 26.4455 63.3905 27.7773 60.4382C31.9278 51.2319 35.9239 41.9515 39.7054 32.6293C41.6006 27.9505 43.4419 23.2667 45.188 18.5442C46.063 16.1724 46.9148 13.7932 47.7054 11.3987C48.1148 10.1525 48.4777 9.0082 48.8351 7.72579C49.0063 7.10422 49.1721 6.47054 49.3076 5.79227C49.3354 5.65299 49.3761 5.43053 49.4024 5.25071C49.4295 5.06093 49.4512 4.91138 49.4664 4.63758C49.4724 4.51455 49.4737 4.39156 49.4663 4.26001C49.4556 4.10493 49.4372 3.82853 49.2934 3.49976C49.2517 3.4092 49.2223 3.34518 49.1313 3.21095C49.0243 3.05621 48.867 2.88794 48.6575 2.75582C48.2561 2.46849 47.5919 2.48501 47.4296 2.54255C46.9916 2.64688 46.7796 2.81747 46.5933 2.9609C38.5404 9.51339 31.1011 16.7354 24.0677 24.2833C23.7883 24.5837 23.7504 24.5206 23.5349 24.7531C22.2658 26.1111 19.519 29.2558 18.1356 30.851C17.0342 32.1061 15.2191 34.0767 14.9326 34.5907C18.8992 30.1283 23.0963 25.4212 27.4304 20.9807C27.7393 20.6642 27.8264 20.6713 27.8651 20.6329C28.585 19.923 28.0707 20.3177 29.0859 19.2719C29.4206 18.9125 32.7578 15.8864 32.231 16.1159C33.0349 15.3988 38.5872 10.2039 39.6843 9.22964C40.0102 8.92543 39.7331 9.08908 39.7968 9.02759C40.0737 8.76061 40.2614 8.71022 40.5196 8.48369C41.2046 7.8766 42.9166 6.29681 43.2565 6.01154C43.8848 5.4721 45.5847 4.10459 46.7603 3.16686C46.9432 3.02664 47.1493 2.86531 47.5581 2.78925C47.8221 2.7265 48.36 2.81371 48.6525 3.0808C48.7994 3.19764 48.9236 3.37192 48.9639 3.44316C49.0101 3.52004 49.0442 3.59232 49.0713 3.65941C49.1748 3.92004 49.191 4.14201 49.2001 4.26909C49.2067 4.37474 49.2069 4.47115 49.2046 4.56282C49.1574 5.39067 49.0964 5.62721 49.084 5.86095C49.0627 6.09009 49.0277 6.37056 48.9057 6.86951C48.6819 7.73246 48.8766 6.78166 48.3177 8.63194C48.0518 9.53662 47.0787 12.6472 46.8154 13.3816C46.5541 14.136 46.2177 14.9273 45.8466 15.9696C45.3318 17.4298 44.1626 20.6471 43.6069 22.1371C43.574 22.2257 43.5523 22.481 43.4708 22.689C43.2972 23.1321 43.2667 22.9671 43.1279 23.3022C42.9908 23.6598 40.682 29.5477 40.2698 30.5419C39.9936 31.2261 39.8471 31.7264 39.6901 32.1121C39.5659 32.4164 39.4889 32.412 39.3651 32.7138C39.3273 32.8066 39.0633 33.623 38.73 34.4309C38.4209 35.1853 37.1708 38.0426 37.0378 38.3556C36.948 38.5699 37.0947 38.3539 36.8278 38.989C36.5837 39.5688 36.3599 39.9276 36.2183 40.2617C35.8919 41.0321 35.589 41.8965 35.2406 42.7178C34.2447 45.0611 34.2207 44.897 34.1578 45.0389C33.9843 45.4247 33.9872 45.6116 33.9336 45.7404C33.7036 46.2932 33.1555 47.5995 32.9491 48.0829C32.6937 48.6816 32.5164 48.9077 32.2384 49.5461C32.0351 50.0134 31.6874 50.9882 31.2152 52.0721C30.1606 54.4956 28.8917 57.3806 27.8191 59.7531C27.5009 60.4572 27.3909 60.5391 27.2918 60.7542C26.7697 61.8869 26.5455 62.5577 26.3992 62.8769C25.6749 64.4583 24.5064 66.8698 23.5107 68.9216C23.0544 69.8626 22.6781 70.6786 22.3866 71.3586C22.213 71.7699 21.7142 72.9564 21.2988 74.2785C21.0971 74.9272 20.9123 75.6325 20.8569 76.215C20.8279 76.4932 20.8464 76.7509 20.8742 76.8327C20.9193 76.9284 20.8227 76.7661 20.7788 76.767C20.7748 76.765 20.7377 76.8119 20.7911 76.815C20.9018 76.824 21.0362 76.7811 21.0981 76.7463C21.1678 76.7102 21.2227 76.6777 21.3494 76.6555C21.4717 76.635 21.8133 76.6187 22.245 76.4755C24.482 75.6784 26.0585 74.7109 27.1245 74.171C27.1589 74.1528 27.193 74.135 27.2266 74.1173C37.519 68.7179 47.7538 62.721 56.9298 56.9048C57.9468 56.2602 59.1857 55.3938 60.7484 54.4529C60.8135 54.4499 60.8787 54.4468 60.944 54.4436C60.9802 54.3815 61.0165 54.3194 61.0528 54.2573C62.4083 53.359 63.0858 52.879 64.1868 52.1612C64.4898 51.9635 64.8229 51.7489 65.2071 51.5047C65.3621 51.4061 65.9106 51.2226 66.0933 50.8773C67.9054 49.8352 66.8657 50.363 68.1685 49.4802C69.4661 48.6001 70.7289 47.8055 72.0002 46.9637C72.7317 46.5539 69.9066 48.6332 69.7339 48.7467C69.4325 48.9474 69.0666 49.0802 68.7711 49.2715C67.8934 49.8393 67.0886 50.463 66.8556 50.5185C65.793 51.3298 67.1523 50.3739 67.0564 50.5322C66.2994 50.9965 65.5339 51.4655 64.7598 51.939C64.7186 52.022 64.5532 52.1651 64.3087 52.3454C63.1613 53.1975 60.254 54.8381 60.5828 54.824C60.2298 55.004 59.8806 55.1809 59.5243 55.3617C58.2142 56.5087 57.2545 56.9092 55.2669 58.0706C55.4253 58.0097 55.5854 57.9476 55.7429 57.8871C55.7085 57.9262 54.0157 59.0491 54.5564 58.5456C52.8841 59.8068 52.7972 59.4999 51.3239 60.6672C50.3894 61.2731 50.8983 60.8137 49.1995 61.85C48.191 62.464 46.9779 63.2723 45.8465 63.9509C45.5865 64.1067 45.4359 64.1097 45.206 64.2461C44.9735 64.3839 44.8954 64.5149 44.6151 64.6827C44.041 65.0268 43.2527 65.4302 42.8963 65.6442C42.5721 65.8386 42.1375 66.1673 41.3542 66.633C38.6143 68.2559 39.4042 67.6897 38.9506 67.9151C38.4664 68.1533 38.1853 68.4534 37.2474 68.9676C37.153 69.0192 37.3597 68.8159 37.054 68.9919C36.8054 69.1346 36.7247 69.2751 35.9138 69.7472C35.5975 69.9427 30.5238 72.7543 29.7465 73.1603C29.1584 73.4775 28.2251 73.958 27.2683 74.4437C26.2715 74.951 25.2612 75.4434 24.6273 75.7456C24.1419 75.9779 23.671 76.2666 23.155 76.4784C22.736 76.6493 22.2508 76.8346 21.7474 76.9661C21.2729 77.1099 20.6555 77.1103 20.6349 77.0428C20.6303 77.0377 20.5931 77.0259 20.5558 76.8326C20.5229 76.6442 20.5269 76.394 20.5608 76.1088C20.6286 75.553 20.7821 74.9768 20.9507 74.4262C21.4282 72.8307 22.6257 70.3324 23.2985 68.8231C23.4645 68.4477 23.5935 68.1334 23.6693 67.9081C24.9361 65.1287 25.3438 64.4968 25.4421 64.2877C25.7053 63.7223 25.7577 63.429 26.0788 62.7157C30.2643 53.4522 35.6388 41.1547 39.2406 32.2377C41.1206 27.6017 42.9465 22.9604 44.6775 18.2801C45.5461 15.9263 46.3918 13.5645 47.1749 11.1918C47.5814 9.95413 47.9395 8.8244 48.2915 7.56017C48.4604 6.94693 48.6226 6.32429 48.7519 5.67496C48.7783 5.54256 48.8174 5.32758 48.8417 5.16116C48.8667 4.98601 48.8866 4.84293 48.8995 4.60484C48.9046 4.49798 48.9053 4.39437 48.8992 4.28871C48.8906 4.15876 48.8726 3.9506 48.7722 3.72515C48.7426 3.66205 48.7253 3.6229 48.6595 3.52713C48.587 3.42412 48.4823 3.31482 48.3453 3.23027C48.0837 3.04664 47.652 3.06078 47.5465 3.09823C47.2545 3.16808 47.097 3.28817 46.9509 3.40197C37.2696 11.2886 28.4419 20.1394 20.1539 29.4444C20.1387 29.5112 20.1235 29.5779 20.1085 29.6446C21.8877 27.6635 24.0287 25.4008 25.8348 23.5021C28.2349 20.9573 31.7941 17.1645 33.7984 15.5445C33.0649 16.2831 31.8009 17.4157 31.9038 17.4775C33.2298 16.1699 34.5689 14.8791 35.9237 13.6053C35.8466 13.6048 35.7696 13.6043 35.6925 13.6039C37.0923 12.2524 38.559 10.9107 40.0052 9.60067C40.2566 9.37321 40.0455 9.49748 40.2653 9.30021C40.5114 9.07977 40.3773 9.26592 40.4237 9.22494C41.0468 8.66925 41.2036 8.46595 41.2803 8.39883C41.4777 8.22749 41.3561 8.39677 41.9314 7.90994C42.9984 7.00869 43.6813 6.26403 43.5677 6.63702C43.9105 6.34352 44.2542 6.05144 44.5987 5.76087C44.651 5.64188 44.7035 5.52291 44.756 5.40398C45.7667 4.68929 46.4769 4.07822 47.0754 3.55551C47.1786 3.47004 47.2877 3.3909 47.4436 3.32783C47.5342 3.29636 47.5716 3.27301 47.7587 3.26002C47.9356 3.25012 48.158 3.31199 48.3131 3.43127C48.6484 3.72963 48.6081 3.82257 48.6696 3.966C48.7068 4.08932 48.7225 4.24188 48.7271 4.30651C48.749 4.5834 48.7148 4.89444 48.6838 5.09074C48.6017 5.59722 48.4894 5.93792 48.2939 6.37421C48.2289 6.85419 48.131 7.40302 48.043 7.88862C47.9077 8.15354 47.7655 8.43303 47.6338 8.67135C47.6651 8.73747 47.6963 8.80409 47.7272 8.87122C46.884 11.5065 45.9826 14.2315 45.0851 16.6841C44.4515 18.405 44.2939 18.7688 43.7221 20.298C42.4667 23.6217 43.6311 20.2993 42.4765 23.0144C42.5879 22.8931 42.699 22.7724 42.8097 22.6523C42.6568 23.1111 42.5005 23.5766 42.3408 24.0485C42.1692 24.3548 41.997 24.6611 41.8302 24.953C41.5218 26.4415 40.9548 27.3098 40.8847 27.4872C40.8246 27.6385 40.7576 28.2288 39.9659 29.8519C40.4354 29.2468 39.4607 31.1106 39.3919 31.2748C39.3261 31.437 38.6041 33.3375 38.2797 34.1205C38.0201 34.75 37.4598 35.9909 37.08 36.9106C36.7459 37.7197 36.848 37.6587 36.8241 37.7182C36.4245 38.6917 36.6278 38.0608 36.3302 38.7657C36.0317 39.4722 35.8534 40.0523 35.7833 40.205C35.7478 40.2818 35.7963 39.9956 35.6403 40.3497C35.2361 41.2659 34.5512 43.0303 34.0961 44.0902C33.9331 44.4706 33.6751 44.9303 33.4898 45.3577C33.2057 46.0133 33.1405 46.3532 32.9776 46.7256C32.9202 46.8562 32.4545 47.6448 32.0138 48.704C31.9297 48.9066 31.8992 49.59 31.2459 50.221C31.2646 50.3 31.2832 50.3791 31.3017 50.4582C29.8755 54.0171 29.0789 54.8236 28.7117 56.513C27.5445 59.0284 28.1964 57.2346 28.0533 57.5037C27.961 57.6777 27.6234 58.5222 27.5801 58.6131C27.5037 58.7729 27.4758 58.7279 27.3975 58.9025C25.9565 62.1186 26.6729 60.7291 26.2582 61.7729C25.2717 64.2438 24.1562 66.0169 26.1499 61.8438C26.1276 61.8337 26.1053 61.8236 26.083 61.8134C25.6367 62.8564 24.4181 65.489 24.7086 64.5565C24.9435 63.8242 27.8331 57.5936 26.1035 61.0826C25.7076 61.8803 25.6061 62.3275 24.8141 63.6466C24.3856 64.5607 24.5228 64.7981 23.8729 65.9958C24.0376 65.8245 24.2021 65.6534 24.3664 65.4824C23.9648 66.499 23.4209 67.623 22.9227 68.6485C22.5682 69.3785 22.2589 70.038 22.0456 70.574C21.8517 71.037 21.555 72.7657 21.3611 72.2564C21.0393 72.955 19.7837 76.7266 20.2544 77.065C20.2741 77.105 20.3488 77.1787 20.4632 77.2272C20.5302 77.2547 20.9139 77.4111 22.0574 77.0961C22.2208 77.0728 22.3737 77.0485 22.5451 77.0142C21.5289 77.3812 21.9349 77.2906 22.4759 77.1686C23.0223 77.0368 23.7124 76.8098 23.2548 77.101C22.8857 77.1945 21.1946 77.6515 20.9724 77.5322C20.7768 77.495 20.9675 77.4563 21.026 77.4227C21.0559 77.406 21.0448 77.397 20.9422 77.3922C20.8573 77.3861 20.6121 77.3831 20.464 77.2885C20.3314 77.2858 20.2751 77.2826 20.3045 77.3685C20.3304 77.4462 20.4659 77.5698 20.7196 77.6185C21.2379 77.723 21.9475 77.5432 21.7309 77.7558C24.0205 76.9396 24.2491 76.7885 24.7656 76.5948C25.8906 76.0736 26.7639 75.6123 27.6412 75.1507C28.4591 74.7185 29.2709 74.2883 30.2465 73.783C30.5773 73.5556 28.7856 74.4537 27.5928 75.059C27.1109 75.3046 26.7412 75.4939 26.6118 75.5689C28.1617 74.5135 25.3269 76.0087 24.1573 76.661C24.0254 76.6487 23.8959 76.6346 23.769 76.6187C25.0422 76.0885 26.252 75.4803 27.4661 74.8188C27.7733 74.6507 28.1041 74.4664 28.4116 74.2904C28.5224 74.2593 28.6341 74.2276 28.7465 74.1955C28.4189 74.4117 28.0887 74.6286 27.7606 74.8437C29.0737 74.2159 28.2187 74.4561 30.0008 73.6919C30.018 73.599 30.0353 73.5059 30.0527 73.4128C31.6978 72.5561 33.3365 71.6875 34.9697 70.8077C35.7441 70.2132 38.8765 68.5047 38.4043 68.9908C39.6604 68.2915 38.0676 69.0814 39.2158 68.3733C39.72 68.0625 40.7128 67.485 40.981 67.3892C40.9708 67.6066 39.488 68.4849 39.0957 68.8515C39.4 68.7455 46.2391 64.6026 45.7327 65.1342C46.2918 64.8319 45.9827 64.8888 46.9615 64.2719C49.695 62.5543 54.062 60.119 56.1183 58.4943C53.4518 59.9914 52.7711 60.5978 50.7794 61.8261C49.5168 62.6327 41.6913 67.2901 43.3448 66.0847C43.0733 66.272 42.7902 66.4657 42.5145 66.6546C42.193 66.7755 41.8775 66.8924 41.5519 67.0146C42.3722 66.5299 43.1886 66.0438 44.0075 65.5527C44.2356 65.485 44.4569 65.4211 44.6815 65.355C44.7508 65.2667 44.8202 65.1782 44.8898 65.0896C45.2318 64.8781 45.5743 64.6656 45.9123 64.4551C45.8409 64.5548 45.7695 64.6543 45.6984 64.7537C46.2295 64.4482 46.7734 64.1336 47.3028 63.8262C47.1265 63.8553 46.9506 63.884 46.7753 63.9124C49.2607 62.4024 48.4404 62.9412 49.8805 62.2121C50.9168 61.5949 49.1156 62.5477 51.2719 61.1914C53.776 59.6037 52.2304 60.8025 55.4649 58.7303C55.4944 58.673 55.524 58.6158 55.5535 58.5586C56.2879 58.1356 57.0184 57.7123 57.7472 57.2873C57.6315 57.3127 57.5159 57.3379 57.4004 57.363C58.8809 56.4431 60.8518 55.0765 61.4252 54.8932C59.8997 55.7912 60.0676 56.0118 60.4806 55.807C60.789 55.6534 62.5653 54.5216 64.7783 53.0551C68.6167 50.5162 73.7938 46.9918 75.2289 46.0162C78.0883 44.0771 80.3377 42.6573 82.8702 40.7624C81.0371 41.8837 74.8323 46.1972 73.5811 46.9388C73.46 47.011 73.3528 46.7751 72.7596 47.5201C70.3548 49.0783 67.6591 50.9664 64.6935 52.9269C64.5723 53.007 64.451 53.087 64.3295 53.1668C64.3828 53.0434 64.4362 52.9198 64.4896 52.7962C64.5181 52.7801 64.5465 52.7639 64.5748 52.7476C66.536 51.6184 67.9961 50.2485 67.9241 50.6353C68.3038 50.3826 68.6811 50.1311 69.0561 49.8809C69.0288 49.8399 69.0014 49.7989 68.9741 49.758C69.5394 49.3809 70.0994 49.0067 70.6542 48.6355C70.6816 48.6764 70.709 48.7174 70.7364 48.7584C71.2013 48.4473 71.6793 48.1271 72.145 47.8148C72.1663 47.7413 72.1875 47.6679 72.2087 47.5945C73.6396 46.7611 78.2431 43.3206 76.3268 44.9696C76.9671 44.537 77.6474 44.0766 78.2942 43.638C78.2719 43.6097 78.2495 43.5813 78.2272 43.5529C78.5045 43.3591 78.7802 43.1662 79.0542 42.9743C78.9814 43.0632 78.9084 43.1521 78.8353 43.2412C80.0774 42.3278 81.4158 41.624 82.1761 40.9687C81.6109 41.3245 81.0497 41.677 80.476 42.0375C81.5624 41.3556 83.4844 39.9254 83.6552 39.8079C84.1903 39.4414 84.4934 39.3222 85.0923 38.9164C85.6236 38.5561 85.5177 38.5607 85.6172 38.495C88.4409 36.626 87.5807 37.5834 88.6799 36.392C88.8465 36.3368 89.0125 36.2819 89.1779 36.2275C89.3359 36.069 89.5013 35.9054 89.6689 35.7402C90.5279 35.1527 91.3129 34.6155 92.1765 34.0234C91.8632 34.1655 91.5346 34.3181 91.2343 34.451C92.4756 33.5605 93.1237 33.2612 93.2424 33.1826C93.5812 32.9569 93.6924 32.7862 93.8022 32.7101C98.9083 29.1828 95.8238 31.4007 98.5504 29.8647C99.3856 29.1483 98.4128 29.6832 98.2154 29.6793C99.4315 28.9033 99.8239 28.5925 101.073 27.7377C101.416 27.503 101.808 27.3082 102.015 27.1668C102.191 27.0462 102.717 26.6037 103.162 26.2985C103.875 25.8085 104.86 25.1819 105.875 24.4951C106.714 23.9457 109.173 22.1532 111.165 21.1115C111.356 21.0162 111.585 20.9236 111.689 20.8942C111.824 20.8511 111.965 20.8262 112.038 20.8243C112.127 20.8217 112.137 20.823 112.27 20.8371C112.368 20.8641 112.579 20.8489 112.808 21.1713C112.906 21.2791 112.943 21.6721 112.877 21.8257C112.849 21.9509 112.749 22.16 112.691 22.2675C112.631 22.3851 112.521 22.5601 112.438 22.6836C112.357 22.8046 112.261 22.9362 112.157 23.0676C112.137 23.0918 112.118 23.1163 112.098 23.1411C109.113 26.8491 106.062 30.6058 103.112 34.3593C101.026 37.0132 98.9608 39.755 96.9017 42.436C96.4652 43.0045 96.6571 42.6735 96.4666 42.92C96.4016 43.0046 96.3919 43.156 95.6859 44.0276C95.4329 44.3401 95.6649 43.9364 95.424 44.2487C95.3044 44.4042 95.3257 44.4979 94.6525 45.4165C93.4543 47.0549 92.7087 47.8936 92.6086 48.0322C92.4125 48.3053 92.5168 48.2683 92.2453 48.6376C90.9325 50.4255 89.8382 51.9423 88.686 53.5603C88.1277 54.3052 84.5108 59.5664 84.3309 59.8691C83.8805 60.5085 84.1806 59.815 83.6255 60.673C83.4981 60.9289 83.3741 61.1811 83.2536 61.4297C83.5092 61.0767 83.7751 60.712 84.0451 60.3452C83.3264 61.364 82.6393 62.5612 82.1627 63.3399C82.0764 63.4752 81.2214 64.7846 80.8516 65.4639C80.9968 65.1571 81.135 64.8682 81.288 64.5585C81.2091 64.6525 81.1311 64.7455 81.054 64.8378C80.3093 66.1916 79.5247 67.645 78.9244 69.07C78.9154 69.0916 78.9066 69.1129 78.898 69.1341C78.7225 69.6196 78.7134 69.443 78.6236 69.9284C78.5429 70.635 78.829 70.8679 79.1097 71.0359C79.4047 71.1947 79.6795 71.2439 79.9494 71.2926C80.4976 71.3686 81.0517 71.4903 82.7027 71.4632C82.1582 71.5177 80.8534 71.7177 79.7283 71.4852C79.1691 71.3722 78.7176 71.0988 78.5538 70.7712C78.3782 70.4459 78.4101 70.1114 78.4217 69.9858C78.4337 69.7947 78.6417 69.3379 78.8216 69.0272C78.9796 68.7389 79.0597 68.5358 78.8012 68.7252C80.2028 65.7564 79.1096 68.3811 80.5027 65.6605C80.4365 65.6942 80.3706 65.7277 80.3049 65.7611C80.8086 64.7958 81.1924 64.1111 81.595 63.5829C81.5198 63.2898 83.5808 60.2187 84.7035 58.557C86.322 56.1153 88.1787 53.4163 89.8854 51.0609C90.462 50.2651 90.8662 49.8499 90.9408 49.7478C91.0541 49.5928 91.2944 49.1506 91.5115 48.8564C92.318 47.7543 94.9104 44.5035 95.3755 43.5824C90.4897 50.0436 85.6141 56.5462 81.3891 63.4496C81.8522 62.8253 79.4739 66.7257 78.6059 68.9375C78.3175 69.6126 78.3132 70.1182 78.318 70.2003C78.3372 70.5361 78.2497 70.2606 78.2545 70.3615C78.313 71.1923 79.108 71.4101 79.3105 71.4814C79.4834 71.5438 79.8561 71.7142 80.5685 71.7471C80.6992 71.7526 80.7413 71.7061 80.8776 71.7073C81.8112 71.7098 82.7356 71.5796 83.6726 71.4015C83.7355 71.39 83.9727 71.4146 84.2146 71.3629C84.4526 71.3122 84.6652 71.1918 84.7269 71.1772C84.9398 71.1278 85.1755 71.0745 85.45 71.0097C86.1359 70.8492 86.9347 70.6468 87.4456 70.4954C87.6841 70.4245 87.5032 70.4255 87.7734 70.3449C88.6081 70.0915 88.3669 70.2722 89.3804 69.9216C89.7279 69.7997 89.6709 69.7395 90.3361 69.529C90.8006 69.3811 90.7934 69.526 90.8688 69.5059C90.9794 69.4774 92.5312 68.8269 93.0868 68.7191C92.023 69.3492 94.3408 68.2814 94.1838 68.2293C94.8235 68.0214 95.4599 67.8104 96.093 67.5972C96.2969 67.4931 96.5031 67.3878 96.7093 67.282C99.2691 66.4188 100.778 65.7383 103.248 64.7551C103.367 64.71 105.46 63.8919 105.374 63.9649C104.16 64.5449 102.926 65.059 102.088 65.281C100.857 66.0129 100.776 65.868 98.6638 66.7335C97.9514 67.0234 97.9263 67.0943 97.8445 67.1271C95.0843 68.2473 90.6127 69.8675 88.6356 70.2861C88.1138 70.5 90.0435 69.9052 89.3056 70.1763C89.1454 70.2337 87.3628 70.8341 85.5249 71.303C82.9144 72.0335 80.1589 72.0436 82.0707 71.8133C81.7371 71.8529 81.3915 71.8816 81.0568 71.8916C80.887 71.9871 80.3696 72.0219 79.9261 71.9401C79.4801 71.8654 79.1451 71.6654 79.2681 71.6147C79.1101 71.597 78.9519 71.5662 78.7918 71.5109C78.5126 71.3723 78.1629 71.095 78.0374 70.5467C77.9477 70.206 77.9853 69.549 78.3014 68.8107C79.7561 65.0945 84.5814 58.1109 84.8654 57.6594C84.8377 57.6227 84.81 57.5859 84.7823 57.5492C82.3519 61.1105 80.0451 64.6044 78.1749 68.7581C77.9614 69.2704 77.7827 69.8277 77.8507 70.4486C77.9011 71.0777 78.4014 71.6545 78.9633 71.8899C78.8061 71.7757 78.667 71.6488 78.5463 71.5016C80.7519 72.784 83.238 71.9777 85.4755 71.5728C84.2884 71.9031 82.728 72.3031 81.0614 72.3566C80.233 72.3653 79.3429 72.3297 78.538 71.8293C77.6648 71.3178 77.555 70.1516 77.7521 69.507C77.8853 69.0195 77.8496 69.394 77.8854 69.2838C77.9386 69.1344 77.9641 68.9739 78.0473 68.705C78.1093 68.4978 78.2195 68.179 78.406 67.7675C78.7983 66.8497 80.0718 64.6922 80.1872 64.5075C80.4 64.1243 80.9149 63.0333 81.3018 62.4122C81.8255 61.5701 81.5352 62.1721 81.6416 62.0033C82.0713 61.327 82.4432 60.6827 82.792 60.1555C83.3134 59.3609 84.5066 57.8036 84.7349 57.1529C84.3466 57.7071 83.9643 58.2589 83.5802 58.8213C85.5624 55.7373 87.4069 53.5443 89.3918 50.5131C89.6987 49.7201 87.9602 52.1568 89.3723 50.0602C89.1122 50.4214 88.8349 50.8076 88.5702 51.1781C88.5444 51.2919 88.5188 51.4053 88.4936 51.5185C88.0162 52.1225 87.5118 52.7689 87.0377 53.379C87.2033 53.2168 87.3621 53.0644 87.5261 52.9053C85.9279 55.1868 84.366 57.55 83.6427 58.2406C83.6553 58.3173 83.668 58.3938 83.6808 58.4702C82.1532 60.5984 80.3305 64.0562 80.4565 63.285C80.4067 63.399 80.3578 63.5121 80.3097 63.6243C79.4536 64.9717 79.9151 64.4272 79.6251 64.9649C79.5305 65.0922 78.0558 67.8274 78.6032 66.5613C77.9745 67.7382 77.7904 68.3022 77.7308 68.5733C77.6457 68.9748 77.7526 68.9042 77.6242 69.4104C77.468 69.9157 77.3743 70.7401 77.8682 71.4305C78.3609 72.1044 79.0885 72.3056 79.58 72.4106C80.5941 72.5841 81.1205 72.5292 80.3346 72.6177C80.6412 72.6482 80.9536 72.659 81.2543 72.6575C82.2385 72.4524 83.1881 72.4987 84.2189 72.3547C84.5709 72.286 84.9073 72.2138 85.2483 72.1354C85.3901 72.0616 85.5338 71.9863 85.6797 71.9094C85.7471 71.8728 85.815 71.8358 85.8834 71.7985C89.1008 71.1929 87.8736 70.7398 89.478 70.9022C89.2725 71.0074 89.0621 71.1132 88.8513 71.2182C88.3409 71.3961 87.8166 71.5729 87.2893 71.7431C89.4262 71.1433 91.5184 70.4515 93.5978 69.7236C96.2865 68.9367 97.699 68.1914 100.627 67.1734C100.888 67.0508 101.158 66.9242 101.416 66.8018C101.197 67.0429 100.145 67.447 102.111 66.719C102.314 66.745 101.005 67.2908 100.379 67.4566C100.228 67.4971 101.426 66.9355 100.046 67.4839C99.1007 67.8546 100.861 67.2962 98.019 68.359C98.1334 68.341 98.2485 68.3226 98.3605 68.3054C98.0553 68.4233 97.7429 68.5432 97.4386 68.6593C97.1504 68.7092 96.8482 68.7637 96.5572 68.8134C95.8858 69.1536 95.528 69.4163 93.9018 69.9797C94.3263 69.7881 93.7035 69.8949 92.8928 70.1834C92.9064 70.222 92.9201 70.2607 92.9337 70.2994C90.9928 71.0036 91.6328 70.6573 90.0251 71.2877C89.8485 71.3108 89.6739 71.3328 89.5012 71.3536C88.766 71.7277 86.1106 72.5772 85.8332 72.5103C85.8072 72.5058 85.8029 72.4939 85.8238 72.4737C85.834 72.4633 85.8506 72.4508 85.8742 72.4359C85.8567 72.4444 85.8389 72.4529 85.8206 72.4613C84.8879 72.9045 82.8401 73.2089 82.0243 73.1024C81.9655 73.1486 81.9035 73.1947 81.8432 73.2402C81.4101 73.2816 80.9557 73.3058 80.4829 73.2914C80.2253 73.2541 79.9538 73.2045 79.6788 73.1342C79.3189 73.0988 78.9416 73.0336 78.5313 72.8816C78.302 72.7358 78.082 72.5656 77.8717 72.3473C77.1952 71.9181 76.7262 70.9644 76.6963 70.2199C76.7221 69.7561 76.8321 69.3693 76.962 69.0257C76.9432 69.0072 77.0007 68.7158 77.1474 68.3304C77.4547 67.4739 78.1989 66.0031 78.4992 65.5395C78.5905 65.316 78.6808 65.098 78.7703 64.8846C78.8607 64.8047 78.9519 64.7243 79.0438 64.6431C79.1017 64.4734 79.1621 64.3007 79.2169 64.1394C79.4378 63.8179 79.6811 63.4656 79.904 63.154C80.5731 61.6502 80.7542 61.7119 80.9506 61.3901C81.299 60.8163 82.4727 58.7807 82.6923 58.4699C82.9148 58.1465 83.0809 58.0268 83.2572 57.7762C86.2629 53.5626 84.9056 55.2371 85.4755 54.3545C85.7818 53.8893 86.0586 53.613 86.3419 53.2009C86.8098 52.506 89.2366 49.0135 89.3944 48.8233C89.6165 48.5426 89.3725 49.4036 89.9933 48.4245C89.8711 48.3032 91.4971 46.399 90.611 47.1973C91.2299 46.3987 91.8702 45.5776 92.4873 44.7924C92.2539 44.77 93.1253 43.8253 93.9326 42.7455C95.0854 41.196 97.6595 37.6481 97.7149 37.9147C97.9592 37.5225 98.2064 37.1271 98.4566 36.7286C100.454 34.2656 102.321 31.7837 104.274 29.3185C106.24 26.8363 108.279 24.2934 110.35 21.7333C110.479 21.5737 110.585 21.4365 110.664 21.3271C110.769 21.1857 110.84 21.0558 110.819 21.0978C110.807 21.1339 110.8 21.1173 110.76 21.3028C110.731 21.4775 110.646 22.0324 111.176 22.589C111.732 23.1128 112.261 23.0022 112.272 23.0122C112.371 23.0041 112.413 22.9913 112.428 22.9875C112.459 22.9742 112.275 23.0459 112.157 23.106C111.572 23.3951 110.877 23.8227 110.23 24.2274C108.905 25.0625 107.582 25.9475 106.256 26.84C103.64 28.6048 101.008 30.4159 98.4938 32.1401C98.1329 32.3877 98.1461 32.297 97.883 32.4775C96.4854 33.437 92.8907 35.9833 90.9504 37.3019C90.3031 37.7424 89.9893 37.8791 89.7863 38.0152C89.1129 38.4659 89.3179 38.4293 89.0061 38.6408C88.4969 38.987 85.8769 40.6882 84.9896 41.284C84.5503 41.5795 84.0663 41.9931 83.5298 42.3337C83.4837 42.3631 83.5273 42.2479 83.4884 42.273C82.5314 42.9154 83.1408 42.5735 82.8212 42.7875C80.5468 44.3105 78.0886 45.9759 75.6213 47.6205C74.9897 48.0416 74.0387 48.621 73.507 48.9722C73.3045 49.1061 73.6969 48.9074 72.9962 49.372C72.7556 49.5315 72.6347 49.5288 72.36 49.7074C71.1743 50.4786 70.9359 50.9066 69.8284 51.4293C68.6776 52.2051 67.1233 53.2656 65.5991 54.2954C64.5303 55.0179 63.5209 55.6909 62.7852 56.1705C62.3656 56.4439 62.1354 56.5443 61.7357 56.8041C61.4527 56.9879 60.9857 57.3654 60.54 57.6528C60.0972 57.9384 59.3576 58.3407 58.5038 58.8861C57.5981 59.4651 56.4936 60.2022 56.2867 60.3315C56.0397 60.4865 55.8842 60.4936 55.639 60.6481C54.8876 61.1228 52.9326 62.4229 51.9596 63.0263C50.9229 63.671 50.281 64.016 49.9207 64.2351C49.5889 64.4372 49.238 64.7242 49.0882 64.8151C48.8567 64.9555 48.7577 64.927 48.4589 65.1071C47.9711 65.4013 47.4915 65.7437 46.7581 66.181C40.6664 69.8118 34.5346 73.263 28.3576 76.5091C26.9808 77.2283 25.6168 77.9376 24.122 78.5629C23.3635 78.869 22.6095 79.1703 21.6231 79.3314C21.1382 79.3918 20.5364 79.4781 19.7433 79.1561C18.8899 78.8311 18.3717 77.8374 18.3031 77.2479C18.2819 73.0162 19.9965 70.7499 21.1826 67.8403C22.039 66.0127 22.8791 64.2044 23.7188 62.3814C24.4072 60.8853 24.758 59.987 25.7779 57.7778C26.1957 56.8712 26.0948 57.2864 26.3977 56.5739C26.5323 56.2567 26.4409 56.311 26.6154 55.913C27.3836 54.1623 28.3473 52.1196 28.6786 51.3624C28.8124 51.0571 28.902 50.6803 29.1731 50.0584C31.1932 45.4267 33.5597 39.9375 35.6243 34.904C36.7207 32.2393 38.3248 28.1888 39.5263 25.1129C40.9233 21.5419 42.3256 17.8711 43.6413 14.1836C44.2968 12.3415 44.9225 10.5236 45.4871 8.71515C45.771 7.80028 46.0227 6.95333 46.2502 6.04554C46.2985 5.85207 46.3562 5.60776 46.3999 5.40156C46.422 5.29792 46.4415 5.20095 46.4584 5.11107C46.4789 5.00225 46.4975 4.89236 46.5106 4.80224C46.5366 4.6449 46.5497 4.41599 46.5454 4.42574C46.5463 4.42675 46.5442 4.466 46.5775 4.57566C46.5949 4.63045 46.6224 4.70406 46.6756 4.79638C46.7156 4.87454 46.8961 5.12682 47.1529 5.26339C47.4121 5.41363 47.7334 5.45002 47.94 5.42002C48.0833 5.40136 48.1711 5.37011 48.2426 5.34134C48.381 5.28223 48.4234 5.24112 48.4354 5.23309C47.356 6.10831 46.3036 6.98531 45.2954 7.84495C35.7931 15.9709 27.1421 25.0035 18.9313 34.4365C22.8573 30.0952 28.2243 24.2097 32.8451 19.6282C37.7695 14.7241 42.9965 9.89095 48.5499 5.37429C48.5326 5.38743 48.4902 5.42363 48.3835 5.47691C48.3298 5.50313 48.2591 5.53335 48.1639 5.55999C48.1163 5.57322 48.0625 5.5854 48.0022 5.59461C47.9352 5.60565 47.8034 5.61687 47.6826 5.60724C47.155 5.61233 46.5819 5.07605 46.5169 4.88414C46.4167 4.70651 46.3919 4.59071 46.3771 4.52337C46.3497 4.31823 46.3735 4.49498 46.3528 4.61775C46.3408 4.7307 46.3171 4.8899 46.2829 5.07323C46.256 5.21848 46.222 5.38317 46.1811 5.56509C46.0959 5.941 46.0207 6.23733 45.9135 6.63735C45.8234 6.97229 45.7226 7.32904 45.6085 7.71685C45.1843 9.15446 44.7144 10.584 44.2116 12.0578C43.225 14.9421 42.1532 17.854 41.0602 20.7356C38.8723 26.4946 36.551 32.2431 34.2076 37.844C31.6074 44.0669 28.2384 51.834 25.1683 58.5436C25.0301 58.8462 24.7949 59.4978 24.4907 60.1555C24.4254 60.2977 23.5503 61.9881 23.2834 62.5688C23.6954 62.0853 22.5051 64.3172 22.1865 65.0168C21.928 65.5866 21.5164 66.5676 20.9828 67.7474C20.6726 68.4329 20.3429 69.1598 19.9972 69.9171C19.1208 71.8774 19.302 71.3166 19.249 71.4216C18.9412 72.1332 18.9534 72.4145 18.766 72.9893C18.6392 73.3973 18.3929 74.0997 18.1847 75.1175C18.0898 75.6532 17.9674 76.2177 18.067 77.1096C18.1245 77.5261 18.2671 78.1585 18.7813 78.7251C19.2987 79.3081 20.0814 79.5436 20.5896 79.5794C24.2561 79.3769 26.1752 77.7387 28.458 76.6995C30.2535 75.7609 31.8027 74.9304 32.6745 74.4577C33.4227 74.0516 33.4886 74.0927 33.6529 74.0033C34.1 73.7592 34.705 73.3499 35.4295 72.9491C36.7259 72.233 38.2407 71.4546 38.9483 71.0536C40.6472 70.096 43.8152 68.1807 45.9871 66.8912C46.6021 66.5269 46.6008 66.61 46.876 66.4464C48.0979 65.7234 51.2181 63.7431 52.7162 62.8168C55.1525 61.3181 57.6696 59.793 60.1054 58.2039C60.277 58.1317 60.4488 58.0591 60.621 57.9862C60.8475 57.8011 61.0746 57.6152 61.3024 57.4285C62.7853 56.4825 64.2686 55.5094 65.7483 54.5209C68.4151 52.7393 71.0006 50.9817 73.624 49.2245C74.0824 48.9183 76.4365 47.407 76.8168 47.1498C77.1356 46.9346 77.4011 46.6604 77.8767 46.3529C78.5588 45.9109 78.0135 46.461 79.0805 45.6867C79.3656 45.4795 79.0482 45.6173 79.6203 45.2053C79.7982 45.0785 83.5326 42.5063 83.7427 42.3663C84.0866 42.1406 84.4636 42.0494 84.552 41.9926C85.0102 41.6982 84.9309 41.6246 85.2244 41.4122C86.0757 40.7951 87.3137 40.0319 87.4462 39.9391C89.188 38.7212 92.3731 36.4231 94.2505 35.1844C94.5046 35.0172 94.5188 35.1028 94.5641 35.0746C94.8541 34.8938 94.9781 34.6993 95.2572 34.5036C96.718 33.4806 99.057 31.9326 100.522 30.9374C100.686 30.8258 101.039 30.5295 101.342 30.3246C103.034 29.1846 102.557 29.5988 102.646 29.5406C102.886 29.3838 103.253 29.0385 103.847 28.6243C105.419 27.5271 108.466 25.4533 110.184 24.374C111.462 23.5754 111.463 23.7017 111.556 23.6443C111.653 23.5899 111.778 23.4971 112.019 23.3478C112.144 23.2724 112.234 23.2147 112.372 23.1454C112.429 23.1156 112.475 23.0963 112.466 23.0966C112.455 23.0976 112.414 23.1125 112.287 23.123C112.244 23.1219 112.095 23.1515 111.786 23.0698C111.497 23.0075 111.004 22.6816 110.813 22.2807C110.529 21.7012 110.645 21.3487 110.67 21.2072C110.696 21.1099 110.711 21.0814 110.721 21.0563C110.742 21.011 110.725 21.0483 110.713 21.0676C110.685 21.1148 110.618 21.2126 110.563 21.2856C110.465 21.4172 110.356 21.5493 110.26 21.6607C109.949 22.0217 109.862 22.0881 109.55 22.4791C109.508 22.5316 109.632 22.4836 109.08 23.1827C108.01 24.5327 105.535 27.5252 104.389 28.9761C103.947 29.5356 103.894 29.7057 103.448 30.2712C102.723 31.1882 101.066 33.1805 100.935 33.3487C100.9 33.3939 100.878 33.5418 100.67 33.807C100.44 34.1002 100.192 34.3546 100.016 34.5797C99.0334 35.8349 97.4699 38.0622 97.7236 37.3025C97.4633 37.745 97.216 38.1712 96.9498 38.623C94.9123 41.2391 92.9779 43.8205 91.0256 46.4599C90.5975 47.0389 90.1708 47.5299 89.8087 48.0241C89.4414 48.5208 87.8741 50.8075 87.6139 51.1755C87.1203 51.8456 84.4407 55.6587 84.1095 56.1528C83.4621 57.0753 82.757 57.9319 82.5111 58.3421C82.3198 58.6624 82.5582 58.4124 82.1872 59.0081C81.5288 60.0561 80.3484 61.7909 80.1572 62.1153C80.0785 62.2496 80.2608 62.0239 79.4973 63.3175C79.0753 64.0405 78.8239 64.3845 78.6741 64.6534C78.6318 64.7401 78.7625 64.6374 77.9905 66.089C77.4673 67.0953 77.213 67.5262 77.1579 67.6437C77.1107 67.7488 77.047 67.9563 76.9475 68.2472C76.8663 68.4774 76.7726 68.7478 76.6775 69.1198C76.5552 69.6598 76.36 70.5094 76.8395 71.5637C77.3466 72.6405 78.4256 73.147 79.1756 73.3347C80.7291 73.7051 81.9453 73.5265 82.7837 73.437C83.1058 73.3883 83.0022 73.3418 84.237 73.1132C85.1212 72.9349 84.9704 73.0302 85.3038 72.9568C85.4728 72.9182 85.6698 72.8614 85.9044 72.7894C86.3435 72.6533 86.9246 72.46 87.644 72.2525C89.0862 71.9674 98.9599 68.4432 99.4486 68.2088C99.7899 68.0905 100.185 67.9347 100.368 67.9015C100.236 67.9922 100.104 68.0826 99.9735 68.1727C98.4386 68.6447 99.0885 68.54 98.6971 68.7034C98.1283 68.9428 95.9443 69.7543 95.4288 69.9747C95.2442 70.0547 95.6986 69.9695 94.7019 70.3762C93.6223 70.8136 93.0916 70.8555 92.7157 71.1824C91.0879 71.5344 89.6418 72.23 91.4822 71.6807C92.5516 71.4405 102.313 67.786 104.247 66.9314C105.842 66.2829 108.78 64.9697 110.721 64.1284C111.862 63.6398 114.654 62.395 114.575 62.5359C115.583 62.0928 114.481 62.485 114.686 62.3773C115.006 62.2102 116.835 61.4121 117.992 60.8927C118.388 60.7156 118.706 60.5717 118.856 60.5007C121.761 59.1349 125.357 57.2834 128.205 56.0219C128.087 56.1092 127.968 56.1968 127.849 56.2841C127.245 56.6363 124.293 57.9912 124.016 58.2614C128.296 56.2038 132.545 54.0928 136.773 51.9589C136.65 51.9048 141.886 49.248 142.154 49.1625C142.085 49.2556 142.017 49.3486 141.949 49.4415C138.905 50.7721 139.284 50.8694 137.234 51.7525C136.422 52.1604 136.705 52.113 136.314 52.3287C132.407 54.4736 136.172 52.2062 133.158 53.8016C134.133 53.4536 131.653 54.7436 130.537 55.3117C130.285 55.4431 126.91 57.0658 126.508 57.26C124.278 58.3614 120.445 60.2638 118.156 61.2461C118.147 61.2499 118.138 61.2536 118.13 61.2574C116.348 62.0725 115.4 62.6015 113.785 63.3507C112.561 63.9168 112.885 63.7028 112.305 63.9601C111.083 64.5003 110.756 64.8496 109.868 64.9493C109.051 65.3416 108.23 65.7314 107.414 66.1158C107.398 66.0781 107.382 66.0403 107.365 66.0026C106.837 66.228 106.323 66.4463 105.792 66.6694C105.653 66.7722 105.515 66.8746 105.377 66.9768C103.686 67.6219 104.346 67.2382 103.991 67.2605C103.626 67.4025 103.26 67.5447 102.899 67.6837C102.653 67.8805 102.404 68.0784 102.158 68.274C100.54 68.9219 98.9109 69.5567 97.2703 70.1723C97.1499 70.1744 97.0298 70.1762 96.9102 70.1777C96.9213 70.2172 96.9323 70.2567 96.9434 70.2962C94.1736 71.3494 91.3757 72.3595 88.4701 73.2413C87.7303 73.5548 92.3505 72.1377 92.677 71.9997C94.6026 71.3799 99.5469 69.4121 99.5961 69.5376C100.72 68.9876 104.186 67.6066 105.304 67.2737C103.677 67.9455 102.038 68.6067 100.394 69.2501C100.465 69.2745 100.536 69.2988 100.607 69.323C98.4858 69.9483 98.1923 70.0754 96.1325 71.0466C96.1077 70.9859 96.0829 70.9252 96.0581 70.8645C94.655 71.6379 91.8725 72.1952 91.8776 72.4846C91.0661 72.7353 90.2469 72.9796 89.4182 73.2137C87.9516 73.6791 89.6603 73.3775 86.2904 74.3009C85.5448 74.4883 84.5592 74.7323 83.1301 74.9255C82.5604 74.9926 82.6839 74.9187 81.7846 74.9935C81.6536 74.998 81.2261 75.0735 80.3507 75.059C79.9026 75.0424 79.3459 75.0212 78.5207 74.7944C77.7766 74.5666 76.3052 74.0738 75.3876 72.2851C74.9377 71.2284 75.0154 71.0766 74.977 70.1446C74.9811 69.1934 75.2592 68.2465 75.5052 67.647C75.7264 67.0962 75.9071 66.736 75.8051 67.2364C77.4627 63.8743 76.6663 65.2436 77.1316 64.1931C77.4469 63.5318 77.4933 63.6936 77.7764 63.1428C78.1483 62.4505 77.7297 62.8531 79.4179 60.2299C79.2466 60.5179 79.0566 60.8392 78.8845 61.1356C79.0034 61.0038 79.1236 60.8708 79.2452 60.7365C80.1167 59.1965 80.1319 59.4 80.4279 58.6038C81.1953 57.5747 81.8134 56.657 82.7821 55.2172C84.6805 52.4287 83.5248 53.7272 85.9717 50.7534C86.3096 50.2199 86.6308 49.7128 86.9734 49.179C87.64 48.3979 87.224 49.1312 88.1432 47.9114C87.2815 48.7565 89.2367 46.219 89.4301 45.6767C89.4964 45.6563 89.5628 45.6359 89.6292 45.6154C89.8295 45.3466 90.032 45.0756 90.2365 44.8024C90.2108 44.7818 90.1851 44.7613 90.1594 44.7407C90.4535 44.3889 90.743 44.0444 91.0315 43.7022C91.2085 43.4129 91.3875 43.1215 91.5685 42.828C91.9679 42.4137 92.3458 42.0292 92.7418 41.6223C92.9569 41.3473 93.1811 41.0608 93.3929 40.7912C93.2876 40.8483 93.1829 40.9048 93.075 40.9655C93.3614 40.6169 93.6414 40.2775 93.9292 39.9288C93.548 40.2949 93.6696 39.9788 94.5305 38.8624C95.2322 37.9547 94.5669 39.0899 96.0371 37.0732C96.1379 36.9358 96.2267 36.6211 97.655 34.7576C99.3702 32.5252 98.6027 33.6497 98.9105 33.2606C98.9706 33.1847 99.4466 32.4794 99.9414 31.8364C100.223 31.4698 100.533 31.1558 100.569 31.1099C100.739 30.8896 100.736 30.7832 100.975 30.4765C101.586 29.6917 102.434 28.675 103.036 27.9117C103.309 27.5651 103.543 27.2058 103.661 27.0563C103.848 26.8201 104.136 26.5583 104.328 26.3174C105.04 25.4205 105.953 23.9484 106.51 23.7126C107.002 22.6752 108.668 21.1122 108.432 21.1241C108.572 20.958 108.728 20.7696 108.897 20.5629C109.016 20.4174 109.106 20.3013 109.169 20.2119C109.204 20.1633 109.219 20.1381 109.202 20.1651C109.196 20.1756 109.165 20.2273 109.114 20.3395C109.089 20.3967 109.058 20.4713 109.024 20.5746C109.005 20.6319 108.994 20.667 108.967 20.7708C108.934 20.9008 108.9 21.0637 108.882 21.2775C108.849 21.6901 108.863 22.3948 109.303 23.1825C109.739 24.0268 110.765 24.6579 111.381 24.7809C111.702 24.8629 111.957 24.8812 112.157 24.8836C112.325 24.8837 112.372 24.8784 112.461 24.8713C112.618 24.8569 112.73 24.8355 112.815 24.8168C112.986 24.7777 113.042 24.7532 113.06 24.7479C113.083 24.7396 113.085 24.7384 113.073 24.7441C113.012 24.7718 112.834 24.8633 112.652 24.9671C111.907 25.3911 110.916 26.0408 110.125 26.5606C108.452 27.6644 107.106 28.558 107.126 28.3758C105.9 29.5188 105.939 29.2718 105.368 29.6673C104.73 30.1106 105.068 29.9383 104.58 30.2715C103.408 31.0721 102.256 31.8433 101.087 32.6508C101.247 32.4909 101.401 32.3347 101.56 32.1748C100.346 32.9998 100.806 32.7965 99.5561 33.6843C97.2717 35.3072 98.1788 34.5868 97.7844 34.7301C97.9542 34.7382 95.1909 36.6315 94.9188 36.8026C94.744 36.9133 95.4141 36.289 93.7366 37.5002C93.8537 37.4689 93.9706 37.4379 94.0872 37.407C93.3041 37.8805 91.2409 39.3894 90.9019 39.6057C90.7412 39.7086 89.6835 40.0365 89.0315 40.8007C88.9145 40.8315 88.7973 40.8624 88.6797 40.8935C87.8485 41.5239 86.9464 42.2018 86.1221 42.8252C85.9412 42.8597 85.7598 42.8946 85.578 42.9297C85.2991 43.1204 85.0182 43.3123 84.7354 43.5053C84.96 43.4312 85.1836 43.3576 85.4065 43.2844C83.64 44.4564 81.5976 45.9688 81.1165 46.0286C80.7736 46.3108 80.4279 46.5947 80.0792 46.8803C79.7961 46.9835 79.5119 47.0873 79.2266 47.1919C77.5083 48.3763 77.5291 48.4207 76.3814 49.2884C76.3959 49.2096 76.4104 49.1308 76.4249 49.052C75.5782 49.7195 74.0764 50.8188 72.7984 51.6859C72.2148 52.0822 71.1465 52.7006 71.0081 52.8014C70.873 52.9009 69.621 54.1072 69.3323 53.9766C68.1272 54.8649 67.2777 55.4073 66.6091 55.8217C66.1816 56.0865 65.8308 56.2964 65.5022 56.5139C64.9591 56.8733 64.7367 57.0961 64.1211 57.5059C63.2376 58.094 62.3254 58.6466 61.8091 58.9842C61.5149 59.1768 61.494 59.2649 61.2919 59.397C60.3401 60.0184 60.8631 59.6079 59.8505 60.2588C59.759 60.318 59.0535 60.8582 58.2111 61.378C57.7388 61.6703 56.4777 62.3588 56.3693 62.4261C55.8907 62.7258 56.3662 62.6356 54.6277 63.4788C54.6925 63.4773 54.7572 63.4757 54.8221 63.4741C52.8436 64.7941 52.4476 64.8591 52.0293 65.1034C51.9762 65.1349 51.5109 65.4842 51.2137 65.6552C50.7036 65.9488 50.4619 66.0042 50.3495 66.0681C49.957 66.2918 48.6573 67.1123 47.7514 67.5632C48.0517 67.6437 45.055 69.5047 44.2526 69.6792C43.7442 70.0321 43.2203 70.3925 42.711 70.743C42.4479 70.8474 42.1781 70.9553 41.9143 71.0595C41.7862 71.1802 41.6587 71.3004 41.5318 71.4202C40.6934 71.7965 39.8605 72.1665 39.0286 72.5325C39.0221 72.6398 39.0155 72.7469 39.0091 72.8541C38.781 72.9709 38.5547 73.0864 38.3302 73.2007C38.1257 73.2334 37.9111 73.2715 37.7034 73.3057C37.4298 73.4744 37.1698 73.6352 36.8916 73.8056C36.8475 73.8895 36.8035 73.9733 36.7597 74.0569C35.2954 74.935 35.8245 74.0866 33.1766 76.0251C32.7082 76.2328 32.2453 76.4364 31.7793 76.6406C31.3695 77.087 30.3657 77.4871 29.6092 77.9122C29.4289 78.0137 29.3193 78.0857 29.2241 78.1522C29.026 78.2882 28.8907 78.3998 28.3933 78.6591C27.6336 79.0528 27.6239 78.9694 27.5634 79.0002C26.9379 79.3106 26.4807 79.6067 25.9814 79.824C25.9092 79.8538 25.6868 79.8648 25.0425 80.1366C24.3633 80.4072 24.0446 80.6808 22.7689 81.0165C22.0449 81.1743 21.8493 81.1623 20.9098 81.1803C20.3412 81.1676 19.5455 81.1132 18.6155 80.6033C17.674 80.1093 16.9439 79.0676 16.7003 78.3344C16.2025 76.8143 16.3765 76.042 16.4313 75.3227C16.617 73.9429 16.9713 73.006 17.4586 72.2771C17.5151 71.875 18.3214 69.3171 18.7934 68.3313C19.3564 67.1157 19.3701 67.241 19.4905 67.0543C19.5227 67.0058 19.5634 66.9345 19.6265 66.8071C19.6682 66.7225 19.8551 66.2504 20.4395 64.9971C20.5439 64.773 20.4742 64.804 20.4885 64.7715C21.1642 63.3111 22.5005 60.4811 23.2398 58.8596C23.3067 58.7132 23.5166 57.9098 24.2659 56.701C24.9963 54.737 26.8519 51.2943 27.7631 48.6782C27.9108 48.3288 28.1398 47.9288 28.2048 47.7753C28.7736 46.4254 28.423 46.8614 29.9251 43.9345C29.748 44.15 29.9903 43.4095 30.4188 42.421C31.0599 40.9399 30.7447 42.0497 31.2481 40.8351C31.2104 40.8191 31.1728 40.8032 31.1352 40.7872C32.4067 38.0654 32.4799 37.44 33.641 34.6402C34.054 33.6432 34.7501 32.1847 34.8483 31.9444C34.8871 31.8495 35.2413 30.72 35.2815 30.6183C35.5209 30.0212 35.7015 29.6962 35.9079 29.1858C36.5809 27.524 37.2755 25.4221 37.3423 25.8848C37.4742 25.4191 37.6234 24.9073 37.7596 24.4266C38.6719 22.7863 38.8764 21.2992 39.2345 21.0401C39.3058 20.7156 39.3873 20.3634 39.4608 20.0307C40.5559 17.1841 41.6286 14.3125 42.6136 11.4778C43.1157 10.0287 43.5848 8.62367 44.0025 7.23227C44.1149 6.85657 44.2131 6.51531 44.3011 6.19504C44.4047 5.81511 44.4769 5.53657 44.556 5.19501C44.5938 5.03078 44.6243 4.8863 44.6474 4.7657C44.6768 4.61302 44.6945 4.49355 44.7012 4.43616C44.7052 4.40483 44.7057 4.38246 44.7049 4.41859C44.7109 4.47634 44.6821 4.4522 44.7512 4.85335C44.7923 5.04216 44.8577 5.31977 45.0806 5.71294C45.2359 6.14542 46.4465 7.27078 47.5668 7.26091C47.8241 7.28127 48.1085 7.25704 48.2536 7.233C48.3848 7.21284 48.503 7.18605 48.6091 7.15648C48.8213 7.09699 48.9847 7.02768 49.1148 6.96391C49.3736 6.83466 49.5065 6.7297 49.593 6.66102C48.0622 7.89407 46.5473 9.16078 45.0528 10.4516C44.8583 10.7125 42.2231 13.0183 42.0866 13.136C41.4395 13.6509 41.9686 12.9356 40.7521 14.1041C40.665 14.2852 40.5782 14.4663 40.4919 14.6474C38.9583 16.1072 39.6549 15.3593 39.01 15.8953C38.7617 16.1422 38.8832 16.1063 38.5426 16.435C36.689 18.206 32.951 21.9205 31.0138 23.957C30.6203 24.3669 30.6414 24.2679 30.5192 24.3949C30.1839 24.745 29.5775 25.4783 28.9079 26.19C24.7759 30.5466 19.1298 36.9513 15.3092 41.6226C15.0491 41.9383 14.9628 41.9434 14.7859 42.1584C14.5367 42.4614 14.0546 43.1489 13.7963 43.4669C13.5522 43.7672 13.3619 43.9298 13.1074 44.2447C11.9338 45.6938 10.4847 47.725 9.20054 49.2364C9.08312 49.3695 7.66377 50.897 7.62948 50.9229C7.38991 51.0928 8.31186 49.4933 6.46668 51.8792C7.9173 49.5952 7.19567 50.1491 5.16165 52.9833C6.1041 51.4974 7.10571 50.0383 8.1275 48.593C8.10733 48.575 8.08715 48.557 8.06697 48.539C7.01723 49.7552 6.02617 51.0323 4.67661 53.0742C4.6962 52.9981 4.71664 52.9209 4.7379 52.8428C5.82164 50.9539 7.32895 48.8352 8.18972 47.3911C6.64677 49.2652 5.10203 51.1982 3.71153 53.1557C3.76438 53.0349 3.81125 52.9247 3.8561 52.8183C4.43136 51.8075 5.86152 49.7023 6.40568 48.8746C8.42265 45.7706 4.39964 51.445 4.98083 50.4639C7.22401 47.2433 9.63209 44.1039 12.08 41.0369C12.0105 40.799 2.7798 52.8009 2.84849 52.6966C3.49478 51.6381 4.18144 50.6013 4.88727 49.5659C4.49759 50.0125 4.16994 50.3763 3.78282 50.8364C3.85292 50.6974 3.92838 50.5514 3.99982 50.4121C5.13846 48.6651 6.33974 46.9381 7.56461 45.2307C3.7572 50.3919 2.19622 52.7992 0.999883 54.0669C1.06406 53.9072 1.13905 53.7366 1.22523 53.5534C2.14765 52.3494 5.8088 46.9682 7.88294 44.1986C7.38305 44.6947 5.59976 47.2103 5.19529 47.6912C5.07806 47.8268 5.39241 47.2852 5.12371 47.6021C4.38422 48.4267 1.61804 52.3595 1.94204 51.7179C2.06516 51.2558 6.44161 44.9646 7.38467 43.8191C5.18982 46.5241 3.01649 49.3856 1.0103 52.3768C2.03014 50.3331 2.95367 48.5451 5.34808 45.2792C5.98826 44.1719 0.851613 51.0963 0.736624 51.3672C1.51774 50.0123 2.30875 48.7595 3.12831 47.4975C2.41095 48.5364 1.70287 49.5889 1.00566 50.6944C0.986402 50.6864 0.967141 50.6784 0.947878 50.6705C2.70651 47.8086 4.31883 45.3248 6.60334 42.3514C6.44114 42.3811 5.09277 44.1712 4.45521 45.0392ZM119.586 60.8538C119.669 60.892 118.942 61.2396 118.292 61.5393C118.102 61.6268 117.919 61.7104 117.763 61.7819C117.874 61.7486 117.985 61.7153 118.096 61.6819C116.613 62.3534 113.836 63.57 113.804 63.7736C112.754 64.268 113.159 63.9199 112.81 64.0569C112.673 64.1105 111.326 64.8063 110.167 65.1941C109.904 65.3093 109.639 65.4251 109.374 65.5407C109.345 65.6154 109.317 65.6902 109.288 65.7649C108.892 65.8609 108.496 65.956 108.097 66.0514C111.511 64.5745 114.898 63.0457 118.262 61.4749C118.7 61.2702 119.14 61.0636 119.58 60.8565C119.582 60.8556 119.584 60.8547 119.586 60.8538ZM78.5333 74.6343C77.8665 74.4194 76.8325 74.0049 76.0001 72.9145C75.1584 71.8151 75.0533 70.4885 75.1228 69.744C75.2934 68.2308 75.6335 67.726 75.407 68.0075C75.16 68.7417 74.8726 69.6401 75.0803 70.9878C75.2395 72.3647 76.5064 73.8379 77.5286 74.2814C77.8888 74.4505 78.2284 74.5593 78.5333 74.6343ZM39.1128 72.3167C37.9215 72.8117 36.9622 73.5039 35.2211 74.4323C35.2391 74.4596 35.2571 74.487 35.2751 74.5143C35.9503 74.0541 37.8375 73.065 39.1128 72.3167ZM153.109 43.4361C153.362 43.319 153.617 43.2016 153.871 43.0842C152.94 43.7613 152.704 43.7437 151.569 44.3478C151.5 44.3842 151.543 44.4075 151.519 44.4201C151.241 44.5662 150.96 44.6567 150.707 44.7876C150.22 45.04 149.847 45.2873 148.982 45.7305C148.314 46.0723 148.272 46.007 148.038 46.1297C147.838 46.2348 145.955 47.4403 144.635 48.0137C142.129 49.1059 152.367 43.8041 153.109 43.4361ZM160.354 39.8672C160.115 39.991 159.877 40.1145 159.638 40.2384C160.304 39.7626 158.858 40.5267 157.792 41.0782C157.775 40.9593 160.051 39.8424 161.047 39.2925C160.816 39.4842 160.585 39.6757 160.354 39.8672ZM129.846 55.1465C130.789 54.6675 130.694 54.8716 130.673 54.9292C130.371 55.0791 130.069 55.2284 129.767 55.3772C129.793 55.3003 129.819 55.2234 129.846 55.1465ZM136.936 51.5471C136.686 51.7817 134.657 52.8511 133.686 53.3448C133.644 53.3661 133.888 53.1851 133.202 53.5337C132.995 53.6395 131.046 54.824 131.396 54.406C133.246 53.4596 135.092 52.5064 136.934 51.5485C136.934 51.548 136.935 51.5476 136.936 51.5471ZM139.029 50.5513C138.659 50.7729 138.284 50.9966 137.913 51.2184C137.693 51.279 137.475 51.339 137.255 51.3997C137.688 51.1678 138.121 50.9359 138.555 50.7028C138.714 50.6519 138.871 50.6019 139.029 50.5513ZM40.8627 12.6728C40.9687 12.6416 41.0746 12.6105 41.1805 12.5795C41.4828 12.3413 42.7356 10.9368 42.2675 11.3016C41.7969 11.7564 41.3286 12.2136 40.8627 12.6728ZM35.0467 18.0349C34.7511 18.2904 34.4587 18.5442 34.1628 18.8027C33.9005 19.1774 33.64 19.5521 33.3814 19.9268C34.7991 18.5834 36.3265 17.1958 35.9202 17.2531C36.2409 16.9421 36.5616 16.6328 36.8826 16.3251C36.6818 16.6568 36.7391 16.6442 37.6258 15.8865C37.7146 15.6102 38.6372 14.83 39.6269 13.8716C38.8862 14.5471 38.1498 15.2282 37.4174 15.915C37.4005 15.8973 37.3836 15.8795 37.3667 15.8618C38.9972 14.3286 36.8674 16.1244 35.8902 17.2133C35.7849 17.27 35.6796 17.3267 35.5744 17.3836C35.3979 17.6006 35.222 17.8177 35.0467 18.0349ZM77.0353 47.5152C76.7903 47.6508 76.5442 47.7871 76.297 47.9239C75.5744 48.7977 77.2356 47.3122 78.6806 46.6405C78.1404 46.7735 80.1434 45.4268 80.2416 45.3439C79.979 45.4437 79.7153 45.544 79.4505 45.645C78.6458 46.2693 77.8283 46.9012 77.0353 47.5152ZM70.3155 51.7576C71.1923 51.3628 67.3925 53.9096 65.9482 54.823C65.9237 54.8385 65.8999 54.8535 65.8769 54.868C65.5442 55.0779 64.9146 55.3875 64.6865 55.5506C64.5619 55.6713 64.4384 55.7912 64.3118 55.913C64.0774 55.9351 61.5273 57.7467 60.5128 58.4654C60.3931 58.4937 60.2735 58.5218 60.1541 58.5497C59.7829 58.8067 59.4095 59.0644 59.0399 59.3188C59.0656 59.2541 59.0914 59.1895 59.1172 59.1248C58.8568 59.3487 58.5974 59.5715 58.3334 59.7968C57.2301 60.5593 57.8129 59.9284 56.9979 60.5239C56.0896 61.1859 57.7163 60.3192 57.7299 60.4116C58.4844 59.9105 60.2033 58.7565 60.9704 58.2589C61.4136 57.971 60.9982 58.4265 62.8123 57.0392C63.2568 56.7996 63.6918 56.5653 64.1345 56.3249C64.762 55.8475 65.3728 55.3787 65.9979 54.8981C66.1084 54.8132 66.2187 54.7284 66.3287 54.6438C66.5041 54.5962 66.6792 54.5487 66.8539 54.5014C66.9449 54.4523 68.6312 53.1772 68.5108 53.2053C69.2569 52.8405 70.7833 51.8477 72.2923 50.8443C72.4234 50.7191 72.558 50.5917 72.6902 50.4658C71.2358 51.5199 72.1975 50.756 71.7227 51.0022C71.4512 51.1426 70.6333 51.6079 70.3155 51.7576ZM45.8986 5.02225C45.9298 4.79506 45.9415 4.63438 45.9421 4.54277C45.9485 4.43085 45.9219 4.36543 45.9392 4.55132C45.9559 4.66048 45.9893 4.87605 46.1809 5.18366C46.3316 5.42727 46.6356 5.73396 47.0236 5.89817C47.4067 6.06888 47.815 6.07731 48.0555 6.03959C48.706 5.91303 48.7647 5.75701 48.8352 5.72628C48.4054 6.08657 48.4397 5.98049 46.8036 7.34297C47.023 7.25557 47.2424 7.16873 47.4617 7.08254C47.8712 6.67872 48.405 6.21515 48.8948 5.79974C48.8322 5.84215 48.7088 5.96013 48.3366 6.07574C48.2332 6.10388 48.1658 6.12378 47.9761 6.14416C47.7688 6.16434 47.5117 6.15258 47.2498 6.07918C46.7107 5.93914 46.2778 5.53033 46.1018 5.23859C45.8731 4.86676 45.86 4.66315 45.8401 4.55742C45.8269 4.4436 45.8339 4.45407 45.8342 4.44209C45.8381 4.43073 45.8391 4.4964 45.8362 4.55618C45.8347 4.60837 45.831 4.67078 45.827 4.73274C45.8052 5.0078 45.8108 5.13506 45.8982 5.02453C45.8983 5.02377 45.8985 5.02301 45.8986 5.02225ZM27.3694 26.223C28.4978 24.9548 27.8339 25.4881 29.2919 23.902C29.2926 23.9012 29.2933 23.9005 29.294 23.8998C28.5242 24.6935 27.7381 25.5149 26.9781 26.3187C27.1085 26.2867 27.2389 26.2549 27.3694 26.223ZM20.19 68.0863C19.4686 69.6099 19.6524 69.3275 18.9501 70.7126C18.2171 72.9481 18.9306 71.0736 19.0432 71.1379C19.2111 70.6188 19.3701 70.1439 19.5535 69.6265C20.1614 68.5315 19.7392 69.6423 19.7524 69.6425C19.7528 69.6416 19.7532 69.6407 19.7536 69.6397C19.7891 69.6538 19.7773 69.698 19.9913 69.268C20.0558 68.8713 20.1242 68.4732 20.19 68.0863ZM17.7566 75.2176C17.7774 74.8704 17.7891 74.6263 17.7318 74.675C17.6825 74.7424 17.5234 75.0219 17.398 76.0784C17.3979 76.0799 17.3978 76.0814 17.3977 76.0829C17.5011 76.1855 17.3946 76.6761 17.6053 77.6605C17.7224 78.1595 18.0099 78.8404 18.5938 79.3599C19.1616 79.8696 19.779 80.0533 20.157 80.1222C20.556 80.1763 20.8919 80.1599 21.1893 80.1245C20.7145 80.1321 20.091 80.1198 19.341 79.7565C18.5659 79.4046 17.9408 78.5341 17.7709 77.9103C17.4152 76.6215 17.6384 75.908 17.7566 75.2176ZM41.095 69.9726C41.2042 70.1485 40.1315 70.7868 41.7505 70.0774C42.0493 69.9013 42.339 69.7299 42.6335 69.5553C42.8051 69.4036 42.9777 69.2511 43.1513 69.0978C47.0833 67.2302 47.8825 66.0418 41.6647 69.9282C41.6638 69.9288 41.663 69.9295 41.6622 69.9301C41.4724 69.9448 41.2833 69.959 41.095 69.9726ZM34.447 73.728C34.4504 73.8501 34.4539 73.9722 34.4575 74.0942C33.4955 74.3232 32.5275 75.1386 30.7802 75.8657C30.6445 75.9759 30.5103 76.0852 30.3776 76.1935C30.1841 76.2719 29.4785 76.6292 28.6469 77.0578C26.7365 78.0842 23.7841 79.4162 24.8393 79.0729C25.5212 78.8621 26.8024 78.119 26.9048 78.0671C27.2946 77.8806 27.8302 77.7115 28.4475 77.3816C28.5257 77.3397 28.6209 77.2833 28.7304 77.216C29.1086 76.9819 29.6644 76.6113 30.2427 76.3028C31.8664 75.4402 34.972 74.0853 36.954 72.6556C37.1217 72.5995 37.2903 72.5427 37.4599 72.4852C39.019 71.5865 38.4429 71.7923 39.9647 71.0711C40.7176 70.0641 34.108 74.3883 35.3331 73.2192C35.3322 73.2198 35.3313 73.2203 35.3304 73.2208C35.0319 73.3925 34.7417 73.5593 34.447 73.728ZM30.5599 45.3188C30.6876 45.2584 31.3789 43.2844 31.3895 43.8227C31.5861 43.1673 31.774 42.53 31.9706 41.8703C31.9495 41.867 31.9285 41.8637 31.9075 41.8605C31.6565 42.4918 31.4138 43.1017 31.1628 43.729C31.1317 43.7185 31.1006 43.708 31.0695 43.6974C30.7811 44.6795 29.0765 48.4842 29.0167 48.326C28.9732 48.5486 28.9294 48.7715 28.8853 48.995C27.9623 50.7755 27.4031 52.3982 26.393 54.3504C26.3611 54.522 26.3308 54.69 26.2995 54.8601C26.2251 54.9466 26.1507 55.0331 26.0762 55.1197C25.7508 55.8396 25.4226 56.5632 25.0917 57.2901C24.1498 59.7083 26.3724 55.1774 26.5934 54.624C26.6235 54.5497 26.5411 54.5267 26.7358 54.0555C27.0871 53.2158 29.1826 48.6599 29.7502 47.1999C29.8071 47.2099 29.8641 47.2199 29.9211 47.23C30.1366 46.589 30.3496 45.9519 30.5599 45.3188ZM49.548 65.2572C49.675 65.2476 49.8022 65.2377 49.9296 65.2277C51.5901 64.158 52.6735 63.5488 52.1441 63.6518C52.1432 63.6523 52.1423 63.6528 52.1414 63.6534C51.2782 64.1912 50.4138 64.7258 49.548 65.2572ZM87.2798 72.9221C87.2177 72.8544 86.7177 72.9521 85.996 73.1482C85.6955 73.2293 85.3793 73.3202 85.0197 73.4252C85.0875 73.4438 85.1558 73.4621 85.2247 73.48C85.4599 73.3901 85.6946 73.3329 86.0249 73.2612C86.5931 73.1383 87.3947 72.9928 88.6298 72.6033C88.6132 72.5485 88.5966 72.4937 88.5799 72.439C88.15 72.6036 87.7129 72.7661 87.2798 72.9221ZM48.0769 66.1113C47.5207 66.366 46.1846 67.3963 47.1383 66.8422C47.8712 66.4156 48.3723 65.9768 48.0769 66.1113ZM22.7711 31.1052C23.0721 30.7848 23.3821 30.4558 23.6812 30.1405C23.797 29.9386 23.9136 29.7363 24.0308 29.5336C24.0302 29.5344 24.0295 29.5351 24.0288 29.5359C23.6108 30.054 23.1902 30.5787 22.7711 31.1052ZM22.5449 62.9553C21.9218 64.3344 21.3074 65.6852 20.6782 67.0587C20.7007 67.0857 20.7232 67.1127 20.7457 67.1397C21.2757 65.721 21.6398 65.2271 21.7934 64.9123C21.7928 64.9137 21.7921 64.9151 21.7915 64.9165C22.2815 63.9122 22.7521 62.9293 23.2265 61.9803C22.9999 62.3047 22.7727 62.6298 22.5449 62.9553ZM24.855 58.3517C24.5457 58.4907 24.3925 58.7731 23.5772 60.9509C23.6402 60.8791 23.7036 60.8064 23.7667 60.7342C24.2488 59.6322 24.4868 58.9777 24.5074 59.2167C24.6237 58.9279 24.7395 58.6396 24.855 58.3517ZM24.1067 79.2611C23.9459 79.286 23.3163 79.5438 22.6295 79.7484C21.962 79.9659 21.118 80.0548 21.1969 80.0616C21.2658 80.0862 22.3816 79.9611 23.0938 79.7113C23.8427 79.4744 24.4024 79.213 24.1067 79.2611ZM103.203 67.1078C102.727 67.2857 102.243 67.4656 101.766 67.641C102.386 67.3637 103.004 67.0846 103.627 66.8012C103.485 66.9037 103.344 67.0059 103.203 67.1078ZM108.245 64.6362C108.59 64.5177 107.583 65.1754 109.601 64.356C108.151 64.9927 106.697 65.6201 105.238 66.237C105.912 65.9187 106.58 65.6001 107.252 65.2777C107.111 65.275 106.969 65.2723 106.826 65.2702C107.3 65.06 107.772 64.849 108.245 64.6362ZM109.861 64.0957C109.02 64.3002 113.121 62.4793 113.505 62.3198C113.591 62.2859 114.045 62.2092 114.203 62.165C113.583 62.4453 112.97 62.7205 112.348 62.9979C112.57 62.9391 112.793 62.8793 113.015 62.8202C112.294 63.1568 111.576 63.4894 110.855 63.8205C111.149 63.6507 111.446 63.4797 111.742 63.308C111.112 63.5737 110.491 63.8339 109.861 64.0957ZM93.1263 70.8449C93.6702 70.6569 94.2045 70.4688 94.7446 70.2756C94.6194 70.2604 94.4922 70.2458 94.3642 70.2313C94.0382 70.3497 93.7282 70.4611 93.3992 70.5782C93.3079 70.6674 93.2169 70.7563 93.1263 70.8449ZM103.917 66.588C103.257 67.1613 100.946 67.4542 103.466 66.6624C103.722 66.5811 103.978 66.5339 103.917 66.588ZM115.05 61.6571C116.569 60.7432 116.394 61.3122 114.824 61.8838C114.745 61.9121 114.935 61.7256 115.05 61.6571ZM126.986 56.0072C127.113 55.9462 127.404 55.9656 128.563 55.2439C128.771 55.1595 128.98 55.0748 129.19 54.9899C128.749 55.2864 124.724 57.2922 125.22 56.8906C125.837 56.589 126.345 56.315 126.986 56.0072ZM122.836 57.425C122.229 57.72 121.622 58.0137 121.013 58.3066C121.234 58.2517 121.455 58.1969 121.674 58.1422C121.381 58.2953 121.085 58.4495 120.79 58.6025C120.244 58.7748 119.697 58.9469 119.151 59.1172C120.475 58.4829 121.793 57.8436 123.109 57.1981C123.018 57.2738 122.927 57.3494 122.836 57.425ZM106.448 64.7379C107.665 64.2811 109.104 63.5965 111.037 62.7523C111.038 62.752 111.039 62.7517 111.04 62.7514C111.136 62.7097 111.336 62.6892 111.644 62.5551C111.915 62.4481 117.071 60.0317 116.708 60.3057C114.743 61.3129 113.936 61.5165 113.547 61.9483C113.428 61.9477 113.31 61.947 113.192 61.9462C111.222 62.7364 110.74 63.1312 109.671 63.6683C109.66 63.6325 109.65 63.5967 109.639 63.5609C108.912 63.8746 108.18 64.1876 107.445 64.4992C107.558 64.4773 107.671 64.4553 107.784 64.4331C107.524 64.5449 107.265 64.6558 107.008 64.7659C106.333 64.9349 105.523 65.2503 106.448 64.7379ZM125.617 56.1506C126.058 55.6312 131.593 53.1241 134.041 51.8212C132.817 52.6255 130.745 53.528 129.32 54.2292C126.564 55.5829 128.514 54.7381 128.066 55.0089C127.846 55.1425 126.202 55.747 125.617 56.1506ZM102.085 66.61C103.513 66.0513 104.283 65.6604 105.546 65.2402C105.451 65.3025 105.356 65.3648 105.261 65.4269C104.841 65.5901 101.387 66.9461 102.085 66.61ZM137.702 50.0578C135.019 51.3017 136.436 50.8697 134.976 51.3921C135.876 50.9262 136.773 50.4596 137.668 49.9923C137.68 50.0141 137.691 50.036 137.702 50.0578ZM44.6204 66.9314C43.5486 67.5541 42.3103 68.2136 41.7204 68.6762C42.4619 68.267 43.2004 67.8568 43.9438 67.441C44.1679 67.2722 44.3935 67.1024 44.6204 66.9314ZM74.0041 46.9761C73.7597 47.1101 72.8766 47.7936 72.7773 47.8602C72.595 47.9825 72.6242 47.9185 72.6162 47.9122C71.4212 48.7218 72.593 48.0739 71.7157 48.692C71.548 48.8097 69.4735 50.1292 68.611 50.7086C67.304 51.5881 66.0168 52.4329 65.5191 52.7648C65.3357 52.8873 65.119 53.0364 64.8774 53.2048C64.0362 53.7914 62.9033 54.5989 61.848 55.2889C61.2852 55.6567 61.0519 55.7259 60.4909 56.0902C56.8739 58.4622 49.7011 63.01 46.369 64.9197C45.5569 65.3905 44.7262 65.7759 44.3001 66.0349C43.9739 66.2648 43.6512 66.4921 43.3298 66.7181C42.1264 67.0776 41.9105 67.5076 40.7913 68.1845C40.0761 68.6162 39.7009 68.729 39.6009 68.7865C38.9568 69.1564 38.663 69.3713 38.1584 69.6651C37.6022 69.9893 36.7563 70.4194 36.5594 70.5377C36.4362 70.6108 36.8916 70.4957 34.6805 71.721C32.4173 72.9712 30.1686 74.1752 27.8484 75.3935C28.7865 75.2964 29.3369 74.7311 30.2794 74.2106C30.5282 74.073 30.3954 74.2078 30.6138 74.0875C31.2407 73.7432 32.3927 73.055 32.9195 72.7814C33.4748 72.4936 33.3549 72.7074 34.0319 72.2803C34.066 72.2587 33.9286 72.2733 34.0883 72.1751C35.7025 71.1816 36.2929 70.961 38.3781 69.7852C39.775 69.0294 48.0601 64.1021 48.352 63.9392C49.9315 63.2288 41.1955 68.4116 40.1431 68.9611C39.779 69.1636 40.1296 68.8949 39.7926 69.0746C39.6478 69.1522 38.4548 69.9636 37.2116 70.6728C35.7234 71.5267 32.6316 73.1434 31.1924 73.9197C30.1013 74.5115 29.0089 75.0964 27.9167 75.6732C26.554 76.3893 25.2024 77.0937 23.7691 77.6961C23.0482 77.991 22.3212 78.2726 21.4936 78.4083C21.0898 78.4653 20.6202 78.5084 20.1253 78.3077C19.6033 78.1101 19.2833 77.5373 19.2189 77.0936C19.1717 73.6465 20.8304 71.0365 22.0142 68.2265C24.8636 62.1244 27.6362 56.011 30.3468 49.8064C30.4682 49.5282 30.5575 49.1557 30.9538 48.2436C37.0212 34.1182 43.9287 17.9743 47.8135 4.46597C45.7681 6.12615 43.762 7.83803 41.8021 9.58174C38.7898 12.2626 35.9241 15.0508 32.9965 17.8802C32.6715 18.2717 32.3486 18.6633 32.0278 19.0549C32.9093 18.1101 34.677 16.535 34.8345 16.3875C34.8899 16.3345 35.2049 15.9501 35.774 15.4077C36.5763 14.6435 36.9651 14.3447 37.0309 14.2819C37.2363 14.088 37.0665 14.1779 37.263 13.9928C38.7265 12.618 39.8636 11.5552 41.2363 10.3244C42.7905 8.93611 43.6505 8.3196 44.736 7.25456C44.8932 7.17437 45.0505 7.09446 45.2078 7.01486C45.518 6.65589 46.5977 5.6914 47.9182 4.59509C47.9555 4.56081 47.9684 4.57147 47.8808 4.59487C47.8658 4.60325 47.6861 4.62337 47.5603 4.54587C47.4264 4.47042 47.3854 4.373 47.3777 4.35788C47.3532 4.29743 47.3702 4.32326 47.3721 4.37402C47.3751 4.40981 47.3763 4.46195 47.3738 4.52686C47.3674 4.67509 47.3531 4.79633 47.3329 4.94128C47.3131 5.08268 47.2796 5.27067 47.2552 5.3959C47.1363 6.00352 46.9722 6.63324 46.8112 7.213C46.4711 8.42806 46.1303 9.47447 45.8785 10.2409C45.598 11.087 45.5875 10.8847 45.4948 11.1639C45.4386 11.3242 45.5455 11.3373 44.7969 13.432C44.4066 14.5146 44.2503 14.7427 44.0532 15.298C43.9468 15.5969 44.0262 15.5773 43.8787 15.9837C42.9924 18.4184 42.2375 20.352 41.3157 22.7067C41.0572 23.3656 40.9997 23.356 40.9426 23.5053C40.7218 24.0803 40.4645 25.0066 39.9041 26.4232C39.0142 28.6858 37.1796 33.2049 36.3685 35.0363C36.2506 35.3036 36.0948 35.5024 36.0129 35.7028C35.889 36.0065 35.9048 36.1534 35.883 36.207C35.4612 37.2256 35.6506 36.598 35.3872 37.2722C35.2446 37.6367 35.1628 38.0434 34.8144 38.8977C34.3522 40.0296 34.3559 39.7719 34.17 40.2379C34.1507 40.2875 34.2065 40.3273 34.0157 40.7845C33.2867 42.5318 32.2222 45.0602 31.515 46.6943C31.3121 47.164 31.1194 47.4962 30.8318 48.1566C30.268 49.4781 26.9746 56.9953 26.6666 57.5955C26.6349 57.6596 26.8453 56.9502 26.3694 58.0178C26.2666 58.3466 26.1684 58.6648 26.0672 58.9893C25.7764 59.4749 25.4843 59.962 25.191 60.4505C25.4052 60.5309 24.0644 63.5615 23.865 63.4363C23.7051 63.7633 23.5447 64.0907 23.3839 64.4187C23.2118 65.1773 22.9524 65.6014 22.4228 66.9712C22.2823 67.1578 22.1416 67.3445 22.0008 67.5314C22.0063 67.5974 22.0118 67.6635 22.0173 67.7295C21.9309 67.8415 21.8479 67.9724 21.7693 68.1128C21.3902 68.7918 21.1424 69.6472 21.0895 69.7709C20.8593 70.3026 20.6271 70.7367 20.526 70.9837C20.1193 71.9571 19.3398 74.1376 19.0936 75.428C19.0822 75.4903 19.0108 75.421 18.9466 75.7951C18.8923 76.1487 18.9072 76.3308 18.918 76.5879C18.9468 76.8279 18.8914 77.0838 19.0945 77.725C19.2451 77.9658 19.4624 78.1842 19.7158 78.323C19.9542 78.5148 20.2304 78.6239 20.48 78.6828C21.9467 78.8116 22.9004 78.2831 23.9261 77.8864C23.054 78.3766 24.1572 78.0311 25.0834 77.4779C25.4003 77.2905 25.0725 77.3588 25.1781 77.2958C25.2618 77.2512 26.7503 76.5343 28.0244 75.8773C28.9406 75.4103 29.7677 74.9898 29.8893 74.9489C30.0745 74.8219 30.2675 74.6906 30.453 74.563C30.5752 74.5533 30.6981 74.5432 30.8217 74.5326C30.9228 74.4586 31.0248 74.3842 31.1274 74.3092C32.2653 73.7984 34.9867 72.0751 35.5004 71.8041C35.7778 71.659 35.6353 71.9808 36.9304 71.2315C36.9476 71.1557 36.9663 71.0791 36.9823 71.0039C37.2727 70.8315 37.5664 70.6568 37.8631 70.4799C38.4198 70.172 39.2904 69.792 39.3454 69.8392C39.498 69.7051 39.6515 69.5704 39.806 69.435C40.3425 69.285 42.8053 67.811 43.7615 67.1506C44.0709 67.0163 44.3825 66.8803 44.6962 66.7426C45.0666 66.468 45.4249 66.1997 45.7942 65.9242C46.6931 65.3742 45.7784 66.0112 45.9744 65.9028C46.3873 65.6766 48.3912 64.3179 48.3436 64.545C48.6302 64.3733 48.9078 64.2066 49.1905 64.0365C49.3101 63.907 49.43 63.7773 49.5504 63.6472C50.1241 63.4968 50.9267 62.9432 52.6722 61.9415C52.7942 61.8207 52.9166 61.6995 53.0392 61.5781C53.5968 61.2988 54.154 61.0183 54.7093 60.7374C54.7837 60.6153 54.8581 60.493 54.9326 60.3706C55.1591 60.2183 55.3807 60.0689 55.6039 59.9181C56.1443 59.7499 56.8969 59.0918 57.3507 58.8747C58.0165 58.5553 57.5925 58.9486 56.4554 59.6881C56.5982 59.727 59.9917 57.5156 60.7687 56.9995C60.7055 57.0158 60.6423 57.0322 60.5792 57.0484C59.7861 57.5786 58.9876 58.1086 58.1952 58.6312C57.3801 58.8365 59.602 57.5088 60.5822 56.8341C60.6747 56.7703 61.1318 56.3579 62.1459 55.7098C62.5342 55.4629 64.1329 54.591 64.4224 54.409C64.8193 54.161 65.0995 53.9799 65.3011 53.8451C66.3035 53.1743 65.3728 53.649 67.3483 52.521C66.8069 52.7119 68.1389 51.9683 69.5083 51.0224C69.7465 50.8586 71.6125 49.4747 71.7539 49.3759C72.5758 48.8033 71.7428 49.5111 72.9214 48.6819C73.0465 48.5587 73.1713 48.4357 73.2956 48.3129C73.5717 48.1275 73.8464 47.9429 74.1198 47.7591C75.9705 46.8645 76.2434 46.4209 76.8177 46.0002C77.0497 45.83 76.7853 46.1003 77.3937 45.6696C77.6296 45.5029 77.8608 45.2705 78.4934 44.8367C80.4432 43.4984 81.3027 43.2402 82.9377 41.785C83.2441 41.6252 83.5486 41.4666 83.8512 41.3092C84.0124 41.14 84.1726 40.9713 84.332 40.8031C85.831 39.9494 85.2413 40.1767 85.765 39.8202C87.1423 38.8828 89.9564 36.9797 90.2595 36.9121C91.3123 35.8606 92.8663 35.1549 93.3391 34.8153C93.5972 34.5972 93.8525 34.381 94.1049 34.1668C94.4333 33.9794 94.7976 33.7671 95.1407 33.5695C94.8452 33.4535 96.6325 32.5313 96.8212 32.4053C97.0216 32.2714 99.5501 30.4246 100.515 29.7591C101.472 29.0983 103.202 27.9928 103.33 27.905C103.521 27.7742 105.111 26.5925 106.395 25.7261C106.901 25.3875 108.599 24.2518 110.239 23.2455C110.459 23.1116 110.658 22.992 110.846 22.8821C111.07 22.7507 111.264 22.6415 111.44 22.5463C111.666 22.4247 111.8 22.3563 111.992 22.2708C112.081 22.2321 112.135 22.2113 112.194 22.1928C112.223 22.1838 112.237 22.1824 112.224 22.1841C112.213 22.176 112.18 22.2246 111.938 22.1262C111.828 22.0782 111.691 21.9459 111.639 21.8321C111.579 21.716 111.568 21.6128 111.568 21.5487C111.574 21.4137 111.588 21.4247 111.586 21.4207C111.589 21.4184 111.555 21.4902 111.529 21.5343C111.481 21.6191 111.391 21.7544 111.325 21.8487C111.204 22.023 111.081 22.1879 111.023 22.275C110.982 22.3364 110.977 22.3569 111.012 22.3289C111.023 22.317 111.034 22.305 111.045 22.2928C111.24 22.0735 111.407 21.8857 111.577 21.6434C111.638 21.5889 111.722 21.3195 111.686 21.5469C111.683 21.6288 111.731 21.8446 111.916 21.9713C112.087 22.0848 112.197 22.0577 112.198 22.0599C112.229 22.0545 112.185 22.0565 112.124 22.0763C110.468 22.559 100.62 29.4814 98.1286 31.1505C93.1186 34.5773 87.9519 38.1584 82.8845 41.5839C82.5811 41.7891 82.5011 41.761 82.2499 41.9304C81.8708 42.1866 80.932 42.9085 80.5447 43.1699C79.1229 44.1297 77.369 45.3033 76.619 45.8075C74.9225 46.949 73.7192 47.7083 72.4278 48.5664C72.0079 48.8461 70.0371 50.2676 68.5917 51.1866C68.3209 51.3438 68.0593 51.4948 67.7972 51.646C68.499 51.1529 70.3919 49.8206 71.2438 49.2418C72.5673 48.3444 73.2717 47.9375 73.7496 47.6152C74.1319 47.3579 76.2041 45.886 77.1132 45.2688C77.4093 45.068 77.51 45.0864 77.7618 44.9156C79.1181 43.9959 80.9009 42.7822 82.0218 41.9329C81.5458 42.2858 84.58 40.268 84.719 40.1714C84.979 39.9934 85.2385 39.7346 85.791 39.3559C86.8525 38.6279 86.7705 38.8546 88.0196 37.8259C88.3716 37.6334 88.7206 37.443 89.0663 37.2546C88.953 37.1072 93.2469 34.4538 94.2522 33.4804C94.2947 33.4217 88.8841 37.0695 88.4675 37.3488C85.8136 39.149 81.9286 41.8609 79.3254 43.5865C78.5617 44.0939 76.0363 45.6646 75.8655 45.7817C75.5714 45.984 75.8751 45.8575 75.7485 45.9456C73.136 47.7646 74.3731 46.7729 74.0041 46.9761ZM109.504 63.2858C108.619 63.664 107.727 64.0415 106.838 64.4127C106.886 64.3476 106.934 64.2825 106.982 64.2173C107.393 64.0588 107.81 63.8968 108.219 63.7373C108.519 63.5806 108.826 63.4207 109.125 63.2637C109.251 63.2712 109.377 63.2786 109.504 63.2858ZM111.61 62.1695C112.364 61.8113 112.44 61.8711 112.616 61.7971C113.144 61.5748 113.59 61.3354 114.096 61.1077C113.596 61.5602 112.303 62.0374 111.61 62.1695ZM95.6101 68.6979C95.7938 68.6399 97.0502 68.4059 98.3129 67.6921C99.3414 67.3613 100.353 67.0291 101.376 66.6858C99.6528 67.279 97.3367 68.2896 96.498 68.6001C96.1817 68.7183 96.0984 68.677 95.8417 68.7722C94.3761 69.3179 92.9961 69.97 92.7681 69.8115C94.1839 69.3813 95.3842 68.7694 95.6101 68.6979ZM104.391 65.2922C104.638 65.2401 104.885 65.1872 105.134 65.1335C104.305 65.4822 103.473 65.8283 102.635 66.172C102.843 66.0356 103.051 65.8985 103.26 65.7606C103.634 65.6064 104.012 65.4502 104.391 65.2922ZM100.294 35.8823C99.9499 36.3224 99.6183 36.7468 99.2727 37.1901C99.321 37.1838 99.7076 36.6869 99.8683 36.5185C99.8677 36.5193 99.8671 36.5201 99.8664 36.521C100.046 36.3328 100.012 36.4479 100.319 36.0869C100.311 36.0188 100.302 35.9506 100.294 35.8823ZM31.4522 19.4256C30.7655 20.0607 24.8698 26.2704 25.4752 25.8404C25.7702 25.6082 27.7377 23.4321 28.3334 22.8174C29.1371 21.9704 31.43 19.8218 31.4522 19.4256ZM21.0634 30.4938C21.047 30.6832 24.6533 26.7067 24.9957 26.3237C24.9073 26.3934 24.7622 26.4926 24.6555 26.5954C24.1397 27.085 21.8488 29.6484 21.0634 30.4938ZM102.141 28.138C102.539 27.9399 102.906 27.7637 103.308 27.5636C103.165 27.5629 103.021 27.5623 102.886 27.5558C102.643 27.7463 102.394 27.9404 102.141 28.138ZM67.5315 51.8683C66.7217 52.406 65.9016 52.9492 65.0714 53.498C59.8694 56.936 54.6055 60.2634 49.2718 63.4852C49.8042 63.1234 50.3166 62.7723 50.8464 62.4089C55.5533 59.55 60.4946 56.4404 65.0141 53.4114C65.5967 53.0212 66.1682 52.6366 66.7277 52.2582C66.9965 52.1277 67.2645 51.9978 67.5315 51.8683ZM93.5714 69.0543C91.8353 69.6765 90.3913 70.2407 88.4322 70.7488C90.2385 70.0878 91.1798 69.9165 92.8939 69.1668C92.8948 69.1664 92.8958 69.1661 92.8968 69.1657C93.126 69.1276 93.3461 69.0921 93.5714 69.0543ZM90.524 49.2374C90.2312 49.7315 89.9452 50.2184 89.6662 50.6982C90.0555 50.1644 90.4649 49.6065 90.8634 49.0664C90.75 49.1236 90.6401 49.1763 90.524 49.2374ZM21.6808 69.824C21.8319 69.4179 22.0312 68.9502 22.303 68.3607C23.2712 66.264 24.7599 63.2901 25.1604 62.1211C25.1934 62.0245 24.7503 62.8461 25.2614 61.4249C24.8141 62.4709 24.5045 63.2094 24.5568 63.3276C24.3864 63.6217 24.2157 63.9161 24.0445 64.211C23.832 64.7343 23.6203 65.2544 23.4092 65.772C23.3471 65.6769 23.3339 65.7185 23.0328 66.5281C22.846 66.8746 22.6586 67.2216 22.4708 67.5691C22.4375 67.7378 22.4041 67.9066 22.3706 68.0755C22.3159 68.1556 22.2611 68.2357 22.2063 68.3158C22.0619 68.5294 21.9205 68.7385 21.7822 68.9433C21.2937 70.1761 21.7254 69.4886 21.6808 69.824ZM19.5309 76.2366C19.1143 75.7772 22.5892 67.4532 20.8226 71.153C20.4188 72.1446 20.0392 73.1417 19.7351 74.1696C20.2748 73.4086 19.2145 76.1339 19.3266 76.4506C19.316 76.7657 19.33 77.0906 19.4784 77.4506C19.6159 77.8062 19.9724 78.116 20.33 78.2047C21.0575 78.3815 21.6221 78.1821 22.0406 78.0902C22.7437 77.9028 23.161 77.791 23.6267 77.6024C25.1393 76.9829 27.3505 75.8028 27.7951 75.4426C27.8177 75.4241 27.8355 75.4076 27.8484 75.3935C27.8277 75.4044 27.807 75.4152 27.7864 75.426C26.6327 76.0295 25.4731 76.6306 24.2346 77.1897C23.5702 77.4838 22.9267 77.7281 22.1025 77.9515C21.6886 78.0535 21.2327 78.1744 20.6649 78.1316C20.3922 78.1066 20.0586 78.012 19.8139 77.752C19.5682 77.4943 19.4542 77.138 19.4059 76.769C19.4075 76.0431 19.5286 76.3259 19.5309 76.2366ZM88.6613 52.0604C88.5906 51.925 86.6223 54.7381 86.6635 54.7793C86.6823 54.8049 87.3224 53.8976 87.4285 53.7694C87.4291 53.7685 87.4297 53.7677 87.4303 53.7668C87.4731 53.7155 87.318 54.0206 87.6349 53.5994C87.9676 53.0963 88.3181 52.5716 88.6613 52.0604ZM40.901 10.0173C40.4651 10.2213 32.8196 17.4926 32.6661 17.7765C32.613 17.8431 32.7196 17.7831 32.7091 17.8199C34.3767 16.011 36.9926 13.6778 38.7149 12.1075C39.1953 11.668 39.0169 11.7614 39.0433 11.7356C39.0445 11.7346 39.0456 11.7335 39.0468 11.7325C39.3179 11.481 40.6371 10.4567 40.901 10.0173ZM26.4991 59.0178C26.297 59.4162 26.0941 59.8157 25.8903 60.2161C25.8807 60.3367 25.8709 60.4573 25.8611 60.5781C25.8616 60.5771 25.862 60.5762 25.8624 60.5752C26.0759 60.0545 26.2882 59.5353 26.4991 59.0178ZM32.8779 44.8442C32.8083 44.9335 32.7386 45.0229 32.6689 45.1124C32.2114 46.168 31.7733 47.1727 31.315 48.2184C31.3457 48.1069 31.3763 47.9956 31.4068 47.8844C30.6791 49.4525 30.4995 50.1138 30.1181 50.9487C30.1185 50.9477 30.1189 50.9468 30.1193 50.9458C30.0783 51.0351 29.9759 51.1196 29.8269 51.454C29.4836 52.2265 28.5036 54.3878 28.4371 54.6845C28.3103 55.293 30.1991 50.8671 30.5612 50.0435C30.7257 49.6738 30.9673 49.2508 31.0659 49.0273C31.1755 48.7784 31.2595 48.4079 31.5241 47.8029C31.6043 47.6211 32.5201 45.7118 32.8779 44.8442ZM40.405 26.395C40.2118 26.7078 40.0115 27.3827 39.9014 27.6303C39.8756 27.6884 40.0079 27.2091 39.7712 27.76C39.7427 27.9315 39.7139 28.1037 39.6848 28.2765C39.9299 27.64 40.1627 27.0311 40.405 26.395ZM85.3974 56.7929C85.469 56.7099 86.5019 55.2144 86.5538 55.1281C87.0879 54.154 84.9204 57.2905 85.3974 56.7929ZM106.625 63.4463C105.795 63.6447 115.017 59.7647 115.885 59.3187C115.885 59.4393 113.676 60.3278 114.871 59.946C113.754 60.3702 110.772 61.7517 110.049 62.0402C109.616 62.215 109.466 62.1787 109.4 62.2042C109.142 62.3083 106.924 63.3869 106.625 63.4463ZM123.399 55.8586C122.531 56.2537 121.664 56.646 120.798 57.0348C121.804 56.5431 122.814 56.0458 123.818 55.5473C123.678 55.6512 123.538 55.7549 123.399 55.8586ZM124.455 55.2939C124.381 55.2151 127.321 53.8713 128.069 53.4734C127.291 54.0558 125.781 54.6083 124.455 55.2939ZM79.2583 67.2814C79.9894 65.9952 80.0191 65.2805 79.3013 66.9482C79.2792 67.001 79.2273 67.335 79.2583 67.2814ZM22.2817 69.5811C22.3183 69.5016 22.513 69.1023 22.7728 68.5788C23.227 67.6653 23.8172 66.4602 23.836 66.3404C23.9292 65.7479 23.1223 67.6536 22.7713 68.2615C22.7069 68.3731 22.6579 68.452 22.6201 68.5079C22.3288 68.9482 22.6813 68.0005 21.7465 70.2245C21.7605 70.1109 21.7754 69.9959 21.7911 69.8797C21.1439 71.3309 21.5623 70.9547 21.478 71.2231C21.4558 71.2927 21.0556 72.2253 21.0114 72.3879C20.3665 74.5426 22.1296 69.7874 22.2817 69.5811ZM100.344 37.174C102.244 34.8972 101.337 35.8257 103.232 33.4289C103.234 33.3065 100.523 36.837 100.344 37.174ZM37.8654 69.4363C35.2122 70.9689 32.9657 72.1013 30.5111 73.5688C30.7842 73.6713 38.5894 69.107 37.8654 69.4363ZM15.9756 35.0295C23.9292 26.1221 33.3217 16.0415 42.9306 7.71181C43.978 6.805 44.1315 6.7804 44.5072 6.44933C44.7539 6.23323 44.6699 6.22255 45.0029 5.94157C45.7988 5.27098 46.5997 4.60784 47.4007 3.95683C46.0916 17.724 38.6943 30.9407 33.6442 43.8636C33.274 44.7332 31.3134 48.9371 31.1024 49.9154C30.9431 50.6647 32.1638 47.5628 32.3812 47.0584C32.5463 46.6786 32.619 46.6912 32.7281 46.4387C32.8439 46.1706 32.7028 46.3743 32.8371 46.0605C33.4159 44.7072 34.0386 43.298 34.5552 42.0691C39.4544 30.1957 44.412 18.7346 48.024 6.40478C48.3778 4.88065 48.3302 5.16029 48.3545 5.09302C48.3545 5.09192 48.3545 5.09082 48.3545 5.08972C48.3732 4.96179 48.3846 4.87824 48.3982 4.72889C48.411 4.57986 48.4156 4.4459 48.4086 4.32056C48.4056 4.25631 48.3924 4.13031 48.3634 4.03484C48.3217 3.93304 48.3304 3.8326 48.0947 3.6533C47.9862 3.58157 47.8452 3.55436 47.7335 3.56575C47.6392 3.57559 47.5955 3.59175 47.5375 3.61376C47.4296 3.65775 47.3445 3.71605 47.2604 3.78374C41.0756 8.7961 34.6323 14.978 28.8381 20.9014C24.4998 25.3229 20.3204 29.891 16.2915 34.5891C16.1857 34.7363 16.0803 34.8831 15.9756 35.0295ZM19.8862 75.5992C20.2655 74.9143 20.0008 74.674 21.0687 72.1328C21.1145 71.9163 21.1647 71.6932 21.2193 71.4636C20.6741 72.8266 20.1498 74.1923 19.8853 75.6039C19.8856 75.6023 19.8859 75.6008 19.8862 75.5992ZM27.0458 58.8627C27.5136 58.5478 29.8392 52.8289 31.0047 50.2845C31.0766 49.7563 29.5089 53.4955 29.1057 54.3603C28.9018 54.803 27.7337 57.059 27.0078 58.8744C27.0205 58.8705 27.0332 58.8666 27.0458 58.8627ZM96.772 66.9954C96.3564 67.164 95.938 67.3321 95.5219 67.4977C96.5832 67.1333 97.6437 66.7589 98.7048 66.3757C97.0259 67.0145 95.3429 67.634 93.6512 68.2262C93.9475 68.0539 94.2326 67.8846 94.5289 67.7102C95.2749 67.4778 96.0235 67.2389 96.772 66.9954ZM91.3217 69.0199C94.2714 67.9623 91.2408 69.2056 90.4723 69.3798C90.0183 69.4863 91.0172 69.1287 91.3217 69.0199ZM83.4985 71.1558C84.0116 71.0212 84.7195 70.8378 85.3622 70.6661C86.4535 70.3753 87.3556 70.1501 86.7626 70.4634C86.2622 70.5724 85.8224 70.6777 85.392 70.7826C84.4694 70.9989 83.5379 71.2666 82.0312 71.3977C82.3559 71.3233 82.67 71.2386 82.9812 71.1468C82.9827 71.1466 82.9842 71.1463 82.9857 71.1461C83.16 71.1508 83.3259 71.1548 83.4985 71.1558ZM92.6301 68.4253C94.6144 67.8603 88.9792 69.7769 90.7195 69.0892C90.8073 69.059 92.5505 68.4518 92.6301 68.4253ZM24.5565 24.9889C24.4392 25.217 25.5179 24.0543 25.8836 23.674C27.4696 22.0136 29.4844 19.884 31.177 18.2025C31.0343 18.3132 30.8918 18.4239 30.7496 18.5347C28.6466 20.6518 26.5823 22.8056 24.5565 24.9889ZM36.5224 13.0048C37.7133 11.8837 38.9199 10.7728 40.1379 9.67844C40.2512 9.57627 40.7454 9.05422 40.3387 9.39852C39.0511 10.5847 37.7779 11.7888 36.5224 13.0048ZM27.1907 74.8784C26.7451 75.0941 26.9596 74.9364 27.3904 74.6752C28.0238 74.2902 29.1447 73.6682 29.1124 73.8314C28.5505 74.1398 27.9837 74.4488 27.4295 74.7493C27.3493 74.7927 27.2698 74.8357 27.1907 74.8784ZM37.3623 69.227C36.684 69.6335 36.0103 70.0349 35.3407 70.4315C35.3278 70.4105 35.3149 70.3895 35.302 70.3684C35.9844 69.9929 36.671 69.6126 37.3623 69.227ZM20.1982 29.7282C20.813 29.1584 22.1263 27.6714 22.9698 26.7508C22.3339 27.3387 21.0024 28.8713 20.1982 29.7282ZM23.3541 67.9716C23.2638 68.0372 25.3577 63.5196 24.7285 65.1302C24.2718 66.0788 23.816 67.0207 23.3541 67.9716ZM27.634 58.7985C27.2099 59.7727 26.8502 60.5199 26.8586 60.2823C27.0955 59.7672 27.3304 59.2553 27.5653 58.7419C27.5882 58.7608 27.6111 58.7797 27.634 58.7985ZM78.8824 70.6483C78.669 70.3558 78.7449 69.7129 79.0048 69.1035C79.3893 68.1692 79.8513 67.2362 80.3333 66.3304C80.3231 66.4012 80.3133 66.4716 80.3039 66.5415C79.8549 67.3949 79.4338 68.2539 79.0724 69.1316C78.8136 69.7353 78.7523 70.3591 78.946 70.6115C78.9249 70.6239 78.9036 70.6362 78.8824 70.6483ZM19.3593 30.3451C18.5445 31.2969 17.7535 32.234 16.9548 33.1924C17.779 32.2544 18.5951 31.3381 19.4348 30.4073C19.4102 30.3857 19.3856 30.3641 19.361 30.3424C19.3604 30.3433 19.3598 30.3442 19.3593 30.3451ZM101.259 64.6114C96.1378 66.5483 102.573 63.8396 103.967 63.4187C103.968 63.4179 103.969 63.4172 103.971 63.4165C104.093 63.3814 103.875 63.5512 104.08 63.4968C103.558 63.6802 103.022 63.8682 102.498 64.0491C102.038 64.283 101.592 64.5098 101.13 64.7415C100.969 64.79 100.808 64.8381 100.648 64.8858C100.85 64.795 101.054 64.7036 101.259 64.6114ZM121.452 55.55C125.942 53.4045 121.434 55.785 119.145 56.702C119.146 56.6661 121.037 55.7483 121.452 55.55ZM109.624 61.0319C108.913 61.363 108.203 61.6907 107.488 62.0177C107.388 62.0384 107.289 62.059 107.189 62.0795C107.73 61.8235 108.277 61.5634 108.818 61.3043C109.087 61.214 109.358 61.122 109.624 61.0319ZM85.5476 69.8292C85.4215 69.8601 85.2947 69.8935 85.1735 69.9271C84.3161 70.1587 83.6021 70.4496 85.2117 70.0768C85.5706 69.9888 86.067 69.855 86.7001 69.6622C86.6914 69.6391 86.6826 69.616 86.6739 69.5929C86.528 69.6395 86.0791 69.7891 86.0564 69.793C85.983 69.8064 86.0523 69.7041 85.5476 69.8292ZM129.447 50.9276C129.569 50.8563 129.526 50.5892 130.963 50.173C131.354 49.9593 131.746 49.7452 132.136 49.5314C132.265 49.531 132.393 49.5306 132.522 49.5301C130.962 50.262 130.847 50.4473 130.737 50.5051C130.23 50.77 130.583 50.5275 130.251 50.6918C129.394 51.1169 127.468 52.1128 128.274 51.5248C128.565 51.3134 129.325 50.9988 129.447 50.9276ZM126.361 52.2861C126.558 52.2135 125.986 52.5786 126.138 52.5283C126.271 52.4848 128.169 51.637 127.721 52.0004C127.412 52.1469 127.103 52.2927 126.795 52.4381C126.676 52.4574 126.557 52.4766 126.438 52.4958C126.155 52.6707 125.872 52.8453 125.59 53.0193C125.054 53.1847 123.937 53.6033 125.172 52.923C124.71 53.1565 124.248 53.3896 123.787 53.6209C123.564 53.7754 123.341 53.9296 123.118 54.0834C123.217 53.9653 123.315 53.8472 123.414 53.729C124.398 53.2508 125.378 52.7706 126.361 52.2861ZM140.704 45.1101C140.662 45.168 140.621 45.2259 140.58 45.2838C142.246 44.3652 144.872 42.9912 143.468 43.9422C141.181 45.1338 138.897 46.319 136.606 47.4995C136.442 47.5549 136.278 47.6102 136.115 47.6654C137.873 46.8809 137.159 46.79 138.701 46.1356C138.961 46.0251 138.296 46.5228 139.834 45.6374C139.763 45.6367 139.692 45.6359 139.621 45.6352C139.981 45.4607 140.342 45.2857 140.704 45.1101ZM155.274 37.674C152.354 39.1251 155.492 37.3742 156.073 37.1867C156.072 37.1872 156.071 37.1877 156.07 37.1881C157.662 36.6747 154.449 38.1814 154.256 38.283C154.002 38.4166 153.494 38.8971 151.975 39.3607C153.073 38.7992 154.175 38.2361 155.274 37.674ZM145.793 42.5022C146.033 42.3713 145.921 42.4846 146.026 42.4298C146.027 42.4294 146.028 42.4289 146.029 42.4284C147.575 41.6222 151.243 39.6823 151.716 39.6182C150.574 40.2223 145.453 42.8971 145.094 42.9585C145.326 42.8066 145.559 42.6545 145.793 42.5022ZM134.922 48.1812C133.921 48.5707 136.063 47.474 136.649 47.2302C136.759 47.1859 135.961 47.7765 134.922 48.1812ZM89.2573 54.9655C90.5552 53.0401 88.7352 55.4831 89.2672 54.5702C89.0191 54.9323 88.7565 55.3166 88.5095 55.6812C88.7558 55.4457 89.0051 55.2071 89.2573 54.9655ZM55.6537 56.5191C55.1863 56.8009 55.4367 56.7128 55.397 56.7389C55.0952 56.9275 54.7799 57.0687 54.6658 57.1465C52.5622 58.5801 54.0225 57.7237 54.0492 57.721C54.1259 57.7421 53.5963 58.1548 54.4162 57.7204C54.8823 57.4035 55.351 57.0839 55.8139 56.7667C56.0675 56.6449 56.322 56.5223 56.5773 56.3988C57.4823 55.7408 56.2383 56.5088 56.0459 56.5203C55.9723 56.5237 56.8402 55.9223 55.6537 56.5191ZM91.8686 51.6841C92.007 51.32 92.4594 50.4849 91.8308 51.166C91.8302 51.1668 91.8296 51.1676 91.829 51.1685C91.7121 51.2956 91.3027 51.8377 91.1567 51.9933C90.3705 53.3093 90.8346 52.9075 91.8686 51.6841ZM64.0416 50.8661C64.8225 50.3777 65.5946 49.8942 66.3579 49.4154C66.3793 49.4754 66.4008 49.5353 66.4223 49.5953C66.0115 49.8484 65.5982 50.103 65.1824 50.3589C65.0554 50.477 64.9281 50.5953 64.8005 50.7137C65.3465 50.4363 65.8887 50.1609 66.427 49.8877C67.0059 49.4732 67.6197 49.0348 68.2121 48.61C67.9142 48.7695 67.615 48.9297 67.3146 49.0907C68.7898 48.0642 68.548 48.406 69.7957 47.641C70.1728 47.3199 70.5795 46.9787 70.9666 46.6502C71.6097 46.2883 72.2463 45.9302 72.8763 45.5757C73.8865 44.8637 73.9571 44.7629 73.2248 45.177C73.6973 44.7687 74.3215 44.4902 74.9107 44.0555C74.9594 44.0197 74.8256 44.0248 74.8694 43.9943C77.9961 41.8241 77.93 42.0885 78.4306 41.7592C78.7848 41.5256 80.149 40.4462 80.1414 40.3996C80.1361 40.333 77.0687 42.1496 81.6682 39.0074C79.2047 40.5003 76.58 42.4713 78.4496 41.4808C77.7064 41.9595 74.386 44.2742 74.1753 44.4063C73.8583 44.6075 73.9192 44.4613 73.5262 44.7232C73.288 44.8819 72.8024 45.4509 70.8843 46.5275C70.6686 46.7115 70.452 46.896 70.2344 47.0811C69.9964 47.2081 69.7663 47.3297 69.5362 47.4512C69.9185 47.08 70.3337 46.6865 70.7285 46.3063C68.992 47.596 67.4278 48.4033 66.4229 49.27C65.4853 49.8706 65.0152 50.1594 65.3718 49.8214C65.0908 50.008 64.8086 50.1952 64.5252 50.3831C64.3646 50.5438 64.2034 50.7048 64.0416 50.8661ZM95.8676 46.0663C96.6193 45.2314 96.6935 44.7937 96.5801 44.9232C95.9429 45.6553 95.4734 46.5055 95.8676 46.0663ZM57.4235 55.5248C58.4923 54.9057 59.5542 54.2851 60.6183 53.6572C60.5827 53.6023 60.547 53.5475 60.5114 53.4927C59.4834 54.1752 58.4571 54.8507 57.4235 55.5248ZM89.1764 55.3333C89.0705 55.3979 88.9649 55.4622 88.8596 55.5262C88.2363 56.716 87.2617 57.6735 86.9296 58.2531C86.8585 58.3775 87.0922 58.1889 87.2644 57.9716C87.3764 57.8212 89.0433 55.5422 89.1764 55.3333ZM111.952 58.8109C111.508 59.0466 111.063 59.282 110.617 59.5164C110.62 59.4548 110.623 59.3931 110.626 59.3315C110.848 59.2214 111.072 59.1102 111.294 58.9995C111.513 58.9371 111.732 58.8742 111.952 58.8109ZM106.76 61.1952C105.934 61.5468 105.109 61.8944 104.285 62.2371C107.407 60.8553 104.817 61.9323 106.697 61.0481C106.718 61.0971 106.739 61.1461 106.76 61.1952ZM98.354 64.5589C98.4437 64.488 98.5337 64.417 98.6239 64.3458C99.4546 64.0159 100.279 63.6832 101.11 63.3433C100.54 63.4533 99.9818 63.5562 99.4103 63.6627C99.106 63.7846 98.8074 63.9036 98.5 64.0254C98.4512 64.2034 98.4026 64.3812 98.354 64.5589ZM34.7341 68.6872C34.2639 68.9491 32.6593 69.9508 32.7503 69.9417C33.4568 69.604 34.1652 69.2626 34.8685 68.9215C34.8397 68.8625 34.8109 68.8036 34.782 68.7447C34.894 68.7195 35.0064 68.694 35.1192 68.6683C35.5016 68.4262 35.8687 68.1919 36.248 67.95C36.4739 67.8883 36.6963 67.8285 36.9183 67.7686C37.0812 67.6013 37.2454 67.4331 37.4109 67.264C35.4824 68.2236 35.6097 68.2802 35.2129 68.5022C35.0134 68.6133 34.8689 68.6476 34.789 68.6689C34.7707 68.675 34.7524 68.6811 34.7341 68.6872ZM57.9165 54.7145C55.7485 56.0833 54.5946 57.0114 52.9439 57.8713C54.1269 57.5145 60.4458 53.1159 62.8371 51.8246C63.045 51.6286 63.2534 51.4319 63.4624 51.2347C62.2521 52.0876 61.3398 52.5618 60.7314 52.9408C60.247 53.2424 60.323 53.2542 60.2864 53.2772C60.2846 53.2784 60.2829 53.2795 60.2812 53.2806C59.1466 53.9915 58.7693 54.1748 57.9165 54.7145ZM88.2797 57.0264C88.7448 56.4943 89.4188 55.5285 89.3392 55.4449C88.9215 55.9769 88.5175 56.4938 88.1032 57.0308C88.2056 56.9348 88.2017 57.115 88.2797 57.0264ZM97.2722 64.6431C96.7651 64.8025 95.5939 65.2863 96.1372 65.183C96.2316 65.1662 97.3891 64.6434 96.7601 65.0774C97.9016 64.6308 97.5638 64.5515 97.2722 64.6431ZM94.5212 30.2923C94.8836 30.0374 95.2785 29.7599 95.6473 29.5004C95.7084 29.4023 95.7691 29.3045 95.8295 29.2068C95.4034 29.5618 94.9478 29.9372 94.5212 30.2923ZM85.1178 61.8511C84.6098 62.2223 84.2498 63.1862 83.5089 64.0433C83.3034 64.3759 83.0764 64.7498 82.875 65.0878C82.8745 65.0886 82.874 65.0895 82.8735 65.0903C82.9207 65.1308 82.9679 65.1712 83.0152 65.2117C83.6897 64.0777 84.391 62.9659 85.1178 61.8511ZM71.058 46.1887C71.307 46.056 71.555 45.9239 71.802 45.7923C72.1977 45.4866 72.5764 45.192 72.9798 44.8805C72.7362 45.0158 72.5067 45.1415 72.2716 45.2709C71.8703 45.575 71.4657 45.8809 71.058 46.1887ZM81.5125 67.9847C82.1737 66.7781 82.2653 66.207 81.4262 67.786C81.0817 68.4599 80.8555 69.2435 81.5125 67.9847ZM24.735 68.997C24.6678 69.1302 24.6006 69.2634 24.5333 69.3966C24.3711 69.7179 24.2158 70.0288 24.0673 70.3293C24.0391 70.4916 24.0026 70.6734 23.9732 70.8409C24.1732 70.3435 24.3505 69.9087 24.5612 69.4096C24.6192 69.272 24.6771 69.1345 24.735 68.997ZM103.671 62.0689C103.633 62.1294 103.595 62.1899 103.557 62.2503C103.147 62.4132 102.727 62.5796 102.315 62.7411C102.402 62.6609 102.49 62.5804 102.578 62.4999C102.943 62.3565 103.308 62.2129 103.671 62.0689ZM23.363 72.0053C23.2155 72.3364 23.0491 72.7246 22.913 73.0525C22.8347 73.3079 22.7641 73.5513 22.7011 73.7826C22.8311 73.4828 22.9886 73.128 23.131 72.8246C23.2024 72.5591 23.2886 72.265 23.363 72.0053ZM86.6616 68.3681C86.1289 68.4817 84.0864 69.1837 85.9714 68.7153C87.174 68.3986 86.747 68.3491 86.6616 68.3681ZM89.4661 67.4353C87.4396 67.9919 89.0908 67.9859 91.3738 66.8617C88.984 67.7329 89.5864 67.397 89.4661 67.4353ZM106.77 60.3999C106.819 60.3788 106.886 60.4247 107.282 60.2557C108.702 59.6499 110.577 58.8476 111.586 58.3977C112.518 57.9832 114.174 57.216 115.91 56.4001C118.698 55.0929 121.692 53.6525 122.276 53.5063C122.472 53.4578 122.115 53.7681 122.191 53.7389C122.411 53.653 123.614 53.0044 123.427 53.1966C122.221 53.7797 121.013 54.3589 119.806 54.9316C120.074 54.7327 120.342 54.5332 120.611 54.3332C117.616 55.7959 118.61 55.3152 117.803 55.8521C117.271 56.0414 116.734 56.2317 116.201 56.4189C116.125 56.4584 116.049 56.4979 115.973 56.5373C114.956 57.065 113.945 57.5848 112.923 58.1038C113.16 57.9519 113.398 57.7986 113.634 57.6463C111.918 58.343 112.407 58.1743 111.525 58.6802C111.506 58.6437 111.488 58.6073 111.469 58.5708C109.881 59.3913 109.513 59.4168 109.156 59.5731C108.424 59.8907 107.688 60.7524 104.692 61.5052C103.601 62.2183 103.444 61.7722 102.84 62.284C100.735 62.8764 104.583 61.385 106.384 60.6096C106.385 60.6092 106.386 60.6088 106.387 60.6084C106.522 60.5509 106.29 60.6034 106.77 60.3999ZM96.5507 64.8616C97.6972 64.1993 92.8575 66.0152 94.5649 65.697C94.8085 65.6165 95.0512 65.5357 95.2913 65.4553C95.7133 65.2583 96.1325 65.0605 96.5536 64.8604C96.5526 64.8608 96.5516 64.8612 96.5507 64.8616ZM95.1462 48.0459C97.9903 44.1268 96.2224 46.2664 95.344 47.6321C95.1699 47.9032 95.0833 48.0731 95.1462 48.0459ZM54.7364 56.5418C54.6899 56.6012 54.6435 56.6605 54.5971 56.7198C55.9541 55.8417 58.6422 54.2357 58.5121 54.1131C57.2633 54.9251 55.9935 55.7418 54.7364 56.5418ZM65.4282 49.4685C65.1355 49.6508 63.9289 50.4215 64.1078 50.38C64.6519 50.0741 65.1919 49.7704 65.728 49.4689C65.9501 49.2871 66.1713 49.1058 66.3917 48.925C66.057 49.1361 65.5082 49.4187 65.4282 49.4685Z" fill="#1CD1C2"/>
</svg>
