<svg width="712" height="309" viewBox="0 0 712 309" fill="none" xmlns="http://www.w3.org/2000/svg">
<path d="M0.833333 305.5C0.833333 306.973 2.02724 308.167 3.5 308.167C4.97276 308.167 6.16667 306.973 6.16667 305.5C6.16667 304.027 4.97276 302.833 3.5 302.833C2.02724 302.833 0.833333 304.027 0.833333 305.5ZM705.833 3C705.833 4.47276 707.027 5.66667 708.5 5.66667C709.973 5.66667 711.167 4.47276 711.167 3C711.167 1.52724 709.973 0.333333 708.5 0.333333C707.027 0.333333 705.833 1.52724 705.833 3ZM3.5 305.5L3.69716 305.959L5.07411 305.369L4.87695 304.909L4.6798 304.45L3.30284 305.041L3.5 305.5ZM7.63086 303.728L7.82802 304.187L10.5819 303.005L10.3848 302.546L10.1876 302.086L7.4337 303.268L7.63086 303.728ZM13.1387 301.364L13.3358 301.824L16.0897 300.642L15.8926 300.183L15.6954 299.723L12.9415 300.905L13.1387 301.364ZM18.6465 299.001L18.8436 299.46L21.5975 298.279L21.4004 297.819L21.2032 297.36L18.4493 298.541L18.6465 299.001ZM24.1543 296.638L24.3515 297.097L27.1054 295.916L26.9082 295.456L26.711 294.997L23.9571 296.178L24.1543 296.638ZM29.6621 294.274L29.8593 294.734L32.6132 293.552L32.416 293.093L32.2189 292.633L29.465 293.815L29.6621 294.274ZM35.1699 291.911L35.3671 292.371L38.121 291.189L37.9238 290.729L37.7267 290.27L34.9728 291.452L35.1699 291.911ZM40.6777 289.548L40.8749 290.007L43.6288 288.826L43.4316 288.366L43.2345 287.907L40.4806 289.088L40.6777 289.548ZM46.1855 287.185L46.3827 287.644L49.1366 286.462L48.9395 286.003L48.7423 285.543L45.9884 286.725L46.1855 287.185ZM51.6934 284.821L51.8905 285.281L54.6444 284.099L54.4473 283.64L54.2501 283.18L51.4962 284.362L51.6934 284.821ZM57.2012 282.458L57.3983 282.917L60.1522 281.736L59.9551 281.276L59.7579 280.817L57.004 281.999L57.2012 282.458ZM62.709 280.095L62.9061 280.554L65.6601 279.373L65.4629 278.913L65.2657 278.454L62.5118 279.635L62.709 280.095ZM68.2168 277.731L68.414 278.191L71.1679 277.009L70.9707 276.55L70.7736 276.09L68.0197 277.272L68.2168 277.731ZM73.7246 275.368L73.9218 275.828L76.6757 274.646L76.4785 274.187L76.2814 273.727L73.5275 274.909L73.7246 275.368ZM79.2324 273.005L79.4296 273.464L82.1835 272.283L81.9863 271.823L81.7892 271.364L79.0353 272.545L79.2324 273.005ZM84.7403 270.642L84.9374 271.101L87.6913 269.919L87.4942 269.46L87.297 269L84.5431 270.182L84.7403 270.642ZM90.2481 268.278L90.4452 268.738L93.1991 267.556L93.002 267.097L92.8048 266.637L90.0509 267.819L90.2481 268.278ZM95.7559 265.915L95.953 266.375L98.7069 265.193L98.5098 264.733L98.3126 264.274L95.5587 265.456L95.7559 265.915ZM101.264 263.552L101.461 264.011L104.215 262.83L104.018 262.37L103.82 261.911L101.067 263.092L101.264 263.552ZM106.772 261.188L106.969 261.648L109.723 260.466L109.525 260.007L109.328 259.547L106.574 260.729L106.772 261.188ZM112.279 258.825L112.476 259.285L115.23 258.103L115.033 257.644L114.836 257.184L112.082 258.366L112.279 258.825ZM117.787 256.462L117.984 256.921L120.738 255.74L120.541 255.28L120.344 254.821L117.59 256.002L117.787 256.462ZM123.295 254.099L123.492 254.558L126.246 253.376L126.049 252.917L125.852 252.457L123.098 253.639L123.295 254.099ZM128.803 251.735L129 252.195L131.754 251.013L131.557 250.554L131.359 250.094L128.606 251.276L128.803 251.735ZM134.311 249.372L134.508 249.832L137.262 248.65L137.064 248.19L136.867 247.731L134.113 248.913L134.311 249.372ZM139.818 247.009L140.016 247.468L142.769 246.287L142.572 245.827L142.375 245.368L139.621 246.549L139.818 247.009ZM145.326 244.646L145.523 245.105L148.277 243.923L148.08 243.464L147.883 243.004L145.129 244.186L145.326 244.646ZM150.834 242.282L151.031 242.742L153.785 241.56L153.588 241.101L153.391 240.641L150.637 241.823L150.834 242.282ZM156.342 239.919L156.539 240.378L159.293 239.197L159.096 238.737L158.898 238.278L156.145 239.459L156.342 239.919ZM161.85 237.556L162.047 238.015L164.801 236.834L164.603 236.374L164.406 235.915L161.652 237.096L161.85 237.556ZM167.357 235.192L167.555 235.652L170.308 234.47L170.111 234.011L169.914 233.551L167.16 234.733L167.357 235.192ZM172.865 232.829L173.062 233.289L175.816 232.107L175.619 231.647L175.422 231.188L172.668 232.37L172.865 232.829ZM178.373 230.466L178.57 230.925L181.324 229.744L181.127 229.284L180.93 228.825L178.176 230.006L178.373 230.466ZM183.881 228.103L184.078 228.562L186.832 227.38L186.635 226.921L186.438 226.461L183.684 227.643L183.881 228.103ZM189.389 225.739L189.586 226.199L192.34 225.017L192.142 224.558L191.945 224.098L189.191 225.28L189.389 225.739ZM194.896 223.376L195.094 223.836L197.847 222.654L197.65 222.194L197.453 221.735L194.699 222.917L194.896 223.376ZM200.404 221.013L200.601 221.472L203.355 220.291L203.158 219.831L202.961 219.372L200.207 220.553L200.404 221.013ZM205.912 218.649L206.109 219.109L208.863 217.927L208.666 217.468L208.469 217.008L205.715 218.19L205.912 218.649ZM211.42 216.286L211.617 216.746L214.371 215.564L214.174 215.105L213.977 214.645L211.223 215.827L211.42 216.286ZM216.928 213.923L217.125 214.382L219.879 213.201L219.681 212.741L219.484 212.282L216.73 213.463L216.928 213.923ZM222.435 211.56L222.633 212.019L225.386 210.837L225.189 210.378L224.992 209.919L222.238 211.1L222.435 211.56ZM227.943 209.196L228.14 209.656L230.894 208.474L230.697 208.015L230.5 207.555L227.746 208.737L227.943 209.196ZM233.451 206.833L233.648 207.293L236.402 206.111L236.205 205.651L236.008 205.192L233.254 206.374L233.451 206.833ZM238.959 204.47L239.156 204.929L241.91 203.748L241.713 203.288L241.516 202.829L238.762 204.01L238.959 204.47ZM244.467 202.107L244.664 202.566L247.418 201.384L247.22 200.925L247.023 200.465L244.269 201.647L244.467 202.107ZM249.974 199.743L250.172 200.203L252.925 199.021L252.728 198.562L252.531 198.102L249.777 199.284L249.974 199.743ZM255.482 197.38L255.679 197.839L258.433 196.658L258.236 196.198L258.039 195.739L255.285 196.921L255.482 197.38ZM260.99 195.017L261.187 195.476L263.941 194.295L263.744 193.835L263.547 193.376L260.793 194.557L260.99 195.017ZM266.498 192.653L266.695 193.113L269.449 191.931L269.252 191.472L269.055 191.012L266.301 192.194L266.498 192.653ZM272.006 190.29L272.203 190.75L274.957 189.568L274.759 189.109L274.562 188.649L271.808 189.831L272.006 190.29ZM277.513 187.927L277.711 188.386L280.464 187.205L280.267 186.745L280.07 186.286L277.316 187.467L277.513 187.927ZM283.021 185.564L283.218 186.023L285.972 184.841L285.775 184.382L285.578 183.922L282.824 185.104L283.021 185.564ZM288.529 183.2L288.726 183.66L291.48 182.478L291.283 182.019L291.086 181.559L288.332 182.741L288.529 183.2ZM294.037 180.837L294.234 181.297L296.988 180.115L296.791 179.655L296.594 179.196L293.84 180.378L294.037 180.837ZM299.545 178.474L299.742 178.933L302.496 177.752L302.298 177.292L302.101 176.833L299.347 178.014L299.545 178.474ZM305.052 176.111L305.25 176.57L308.003 175.388L307.806 174.929L307.609 174.469L304.855 175.651L305.052 176.111ZM310.56 173.747L310.757 174.207L313.511 173.025L313.314 172.566L313.117 172.106L310.363 173.288L310.56 173.747ZM316.068 171.384L316.265 171.843L319.019 170.662L318.822 170.202L318.625 169.743L315.871 170.924L316.068 171.384ZM321.576 169.021L321.773 169.48L324.527 168.299L324.33 167.839L324.133 167.38L321.379 168.561L321.576 169.021ZM327.084 166.657L327.281 167.117L330.035 165.935L329.837 165.476L329.64 165.016L326.886 166.198L327.084 166.657ZM332.591 164.294L332.789 164.754L335.542 163.572L335.345 163.112L335.148 162.653L332.394 163.835L332.591 164.294ZM338.099 161.931L338.296 162.39L341.05 161.209L340.853 160.749L340.656 160.29L337.902 161.471L338.099 161.931ZM343.607 159.568L343.804 160.027L346.558 158.845L346.361 158.386L346.164 157.926L343.41 159.108L343.607 159.568ZM349.115 157.204L349.312 157.664L352.066 156.482L351.869 156.023L351.672 155.563L348.918 156.745L349.115 157.204ZM354.623 154.841L354.82 155.301L357.574 154.119L357.376 153.659L357.179 153.2L354.425 154.382L354.623 154.841ZM360.13 152.478L360.328 152.937L363.081 151.756L362.884 151.296L362.687 150.837L359.933 152.018L360.13 152.478ZM365.638 150.114L365.835 150.574L368.589 149.392L368.392 148.933L368.195 148.473L365.441 149.655L365.638 150.114ZM371.146 147.751L371.343 148.211L374.097 147.029L373.9 146.57L373.703 146.11L370.949 147.292L371.146 147.751ZM376.654 145.388L376.851 145.847L379.605 144.666L379.408 144.206L379.211 143.747L376.457 144.928L376.654 145.388ZM382.162 143.025L382.359 143.484L385.113 142.302L384.915 141.843L384.718 141.384L381.964 142.565L382.162 143.025ZM387.669 140.661L387.867 141.121L390.62 139.939L390.423 139.48L390.226 139.02L387.472 140.202L387.669 140.661ZM393.177 138.298L393.374 138.758L396.128 137.576L395.931 137.116L395.734 136.657L392.98 137.839L393.177 138.298ZM398.685 135.935L398.882 136.394L401.636 135.213L401.439 134.753L401.242 134.294L398.488 135.475L398.685 135.935ZM404.193 133.572L404.39 134.031L407.144 132.849L406.947 132.39L406.75 131.93L403.996 133.112L404.193 133.572ZM409.701 131.208L409.898 131.668L412.652 130.486L412.454 130.027L412.257 129.567L409.503 130.749L409.701 131.208ZM415.208 128.845L415.406 129.304L418.159 128.123L417.962 127.663L417.765 127.204L415.011 128.385L415.208 128.845ZM420.716 126.482L420.913 126.941L423.667 125.76L423.47 125.3L423.273 124.841L420.519 126.022L420.716 126.482ZM426.224 124.118L426.421 124.578L429.175 123.396L428.978 122.937L428.781 122.477L426.027 123.659L426.224 124.118ZM431.732 121.755L431.929 122.215L434.683 121.033L434.486 120.574L434.289 120.114L431.535 121.296L431.732 121.755ZM437.24 119.392L437.437 119.851L440.191 118.67L439.993 118.21L439.796 117.751L437.042 118.932L437.24 119.392ZM442.747 117.029L442.945 117.488L445.698 116.306L445.501 115.847L445.304 115.387L442.55 116.569L442.747 117.029ZM448.255 114.665L448.452 115.125L451.206 113.943L451.009 113.484L450.812 113.024L448.058 114.206L448.255 114.665ZM453.763 112.302L453.96 112.762L456.714 111.58L456.517 111.12L456.32 110.661L453.566 111.843L453.763 112.302ZM459.271 109.939L459.468 110.398L462.222 109.217L462.025 108.757L461.828 108.298L459.074 109.479L459.271 109.939ZM464.779 107.576L464.976 108.035L467.73 106.853L467.532 106.394L467.335 105.934L464.581 107.116L464.779 107.576ZM470.286 105.212L470.484 105.672L473.237 104.49L473.04 104.031L472.843 103.571L470.089 104.753L470.286 105.212ZM475.794 102.849L475.991 103.308L478.745 102.127L478.548 101.667L478.351 101.208L475.597 102.389L475.794 102.849ZM481.302 100.486L481.499 100.945L484.253 99.7635L484.056 99.304L483.859 98.8445L481.105 100.026L481.302 100.486ZM486.81 98.1224L487.007 98.5819L489.761 97.4002L489.564 96.9408L489.367 96.4813L486.613 97.6629L486.81 98.1224ZM492.318 95.7591L492.515 96.2186L495.269 95.037L495.072 94.5775L494.874 94.118L492.12 95.2996L492.318 95.7591ZM497.825 93.3959L498.023 93.8553L500.776 92.6737L500.579 92.2142L500.382 91.7547L497.628 92.9364L497.825 93.3959ZM503.333 91.0326L503.53 91.4921L506.284 90.3104L506.087 89.8509L505.89 89.3914L503.136 90.5731L503.333 91.0326ZM508.841 88.6693L509.038 89.1288L511.792 87.9471L511.595 87.4876L511.398 87.0282L508.644 88.2098L508.841 88.6693ZM514.349 86.306L514.546 86.7655L517.3 85.5839L517.103 85.1244L516.906 84.6649L514.152 85.8465L514.349 86.306ZM519.857 83.9427L520.054 84.4022L522.808 83.2206L522.61 82.7611L522.413 82.3016L519.659 83.4833L519.857 83.9427ZM525.364 81.5795L525.562 82.039L528.315 80.8573L528.118 80.3978L527.921 79.9383L525.167 81.12L525.364 81.5795ZM530.872 79.2162L531.069 79.6757L533.823 78.494L533.626 78.0345L533.429 77.5751L530.675 78.7567L530.872 79.2162ZM536.38 76.8529L536.577 77.3124L539.331 76.1308L539.134 75.6713L538.937 75.2118L536.183 76.3934L536.38 76.8529ZM541.888 74.4896L542.085 74.9491L544.839 73.7675L544.642 73.308L544.445 72.8485L541.691 74.0301L541.888 74.4896ZM547.396 72.1264L547.593 72.5858L550.347 71.4042L550.15 70.9447L549.952 70.4852L547.198 71.6669L547.396 72.1264ZM552.903 69.7631L553.101 70.2226L555.854 69.0409L555.657 68.5815L555.46 68.122L552.706 69.3036L552.903 69.7631ZM558.411 67.3998L558.608 67.8593L561.362 66.6777L561.165 66.2182L560.968 65.7587L558.214 66.9403L558.411 67.3998ZM563.919 65.0365L564.116 65.496L566.87 64.3144L566.673 63.8549L566.476 63.3954L563.722 64.577L563.919 65.0365ZM569.427 62.6732L569.624 63.1327L572.378 61.9511L572.181 61.4916L571.984 61.0321L569.23 62.2138L569.427 62.6732ZM574.935 60.31L575.132 60.7695L577.886 59.5878L577.688 59.1283L577.491 58.6689L574.737 59.8505L574.935 60.31ZM580.442 57.9467L580.64 58.4062L583.393 57.2246L583.196 56.7651L582.999 56.3056L580.245 57.4872L580.442 57.9467ZM585.95 55.5834L586.147 56.0429L588.901 54.8613L588.704 54.4018L588.507 53.9423L585.753 55.1239L585.95 55.5834ZM591.458 53.2201L591.655 53.6796L594.409 52.498L594.212 52.0385L594.015 51.579L591.261 52.7607L591.458 53.2201ZM596.966 50.8569L597.163 51.3164L599.917 50.1347L599.72 49.6752L599.523 49.2157L596.769 50.3974L596.966 50.8569ZM602.474 48.4936L602.671 48.9531L605.425 47.7714L605.228 47.312L605.03 46.8525L602.276 48.0341L602.474 48.4936ZM607.981 46.1303L608.179 46.5898L610.932 45.4082L610.735 44.9487L610.538 44.4892L607.784 45.6708L607.981 46.1303ZM613.489 43.7671L613.686 44.2265L616.44 43.0449L616.243 42.5854L616.046 42.1259L613.292 43.3076L613.489 43.7671ZM618.997 41.4038L619.194 41.8633L621.948 40.6816L621.751 40.2221L621.554 39.7626L618.8 40.9443L618.997 41.4038ZM624.505 39.0405L624.702 39.5L627.456 38.3183L627.259 37.8588L627.062 37.3994L624.308 38.581L624.505 39.0405ZM630.013 36.6772L630.21 37.1367L632.964 35.9551L632.767 35.4956L632.569 35.0361L629.815 36.2177L630.013 36.6772ZM635.52 34.3139L635.718 34.7734L638.471 33.5918L638.274 33.1323L638.077 32.6728L635.323 33.8545L635.52 34.3139ZM641.028 31.9507L641.225 32.4102L643.979 31.2285L643.782 30.769L643.585 30.3095L640.831 31.4912L641.028 31.9507ZM646.536 29.5874L646.733 30.0469L649.487 28.8652L649.29 28.4057L649.093 27.9463L646.339 29.1279L646.536 29.5874ZM652.044 27.2241L652.241 27.6836L654.995 26.502L654.798 26.0425L654.601 25.583L651.847 26.7646L652.044 27.2241ZM657.552 24.8608L657.749 25.3203L660.503 24.1387L660.306 23.6792L660.108 23.2197L657.354 24.4014L657.552 24.8608ZM663.059 22.4976L663.257 22.957L666.01 21.7754L665.813 21.3159L665.616 20.8564L662.862 22.0381L663.059 22.4976ZM668.567 20.1343L668.764 20.5938L671.518 19.4121L671.321 18.9526L671.124 18.4931L668.37 19.6748L668.567 20.1343ZM674.075 17.771L674.272 18.2305L677.026 17.0489L676.829 16.5894L676.632 16.1299L673.878 17.3115L674.075 17.771ZM679.583 15.4077L679.78 15.8672L682.534 14.6856L682.337 14.2261L682.14 13.7666L679.386 14.9482L679.583 15.4077ZM685.091 13.0445L685.288 13.5039L688.042 12.3223L687.845 11.8628L687.647 11.4033L684.893 12.585L685.091 13.0445ZM690.598 10.6812L690.796 11.1407L693.549 9.95903L693.352 9.49955L693.155 9.04006L690.401 10.2217L690.598 10.6812ZM696.106 8.31791L696.303 8.77739L699.057 7.59575L698.86 7.13627L698.663 6.67678L695.909 7.85842L696.106 8.31791ZM701.614 5.95462L701.811 6.41411L704.565 5.23247L704.368 4.77298L704.171 4.3135L701.417 5.49514L701.614 5.95462ZM707.122 3.59134L707.319 4.05083L708.697 3.45949L708.5 3L708.303 2.54051L706.925 3.13186L707.122 3.59134Z" fill="black"/>
</svg>
