<svg width="6" height="586" viewBox="0 0 6 586" fill="none" xmlns="http://www.w3.org/2000/svg">
<path d="M2.71088 585.667C4.18364 585.667 5.37754 584.473 5.37754 583C5.37754 581.527 4.18364 580.333 2.71088 580.333C1.23812 580.333 0.0442099 581.527 0.0442098 583C0.0442097 584.473 1.23812 585.667 2.71088 585.667ZM2.7109 5.66664C4.18366 5.66664 5.37757 4.47274 5.37757 2.99998C5.37757 1.52722 4.18366 0.333311 2.7109 0.333311C1.23814 0.333311 0.0442346 1.52722 0.0442346 2.99998C0.0442345 4.47274 1.23814 5.66664 2.7109 5.66664ZM2.71088 583L3.21088 583L3.21088 581.505L2.71088 581.505L2.21088 581.505L2.21088 583L2.71088 583ZM2.71088 578.515L3.21088 578.515L3.21088 575.526L2.71088 575.526L2.21088 575.526L2.21088 578.515L2.71088 578.515ZM2.71088 572.536L3.21088 572.536L3.21088 569.546L2.71088 569.546L2.21088 569.546L2.21088 572.536L2.71088 572.536ZM2.71088 566.557L3.21088 566.557L3.21088 563.567L2.71088 563.567L2.21088 563.567L2.21088 566.557L2.71088 566.557ZM2.71088 560.577L3.21088 560.577L3.21088 557.588L2.71088 557.588L2.21088 557.588L2.21088 560.577L2.71088 560.577ZM2.71088 554.598L3.21088 554.598L3.21088 551.608L2.71088 551.608L2.21088 551.608L2.21088 554.598L2.71088 554.598ZM2.71088 548.619L3.21088 548.619L3.21088 545.629L2.71088 545.629L2.21088 545.629L2.21088 548.619L2.71088 548.619ZM2.71088 542.639L3.21088 542.639L3.21088 539.649L2.71088 539.649L2.21088 539.649L2.21088 542.639L2.71088 542.639ZM2.71088 536.66L3.21088 536.66L3.21088 533.67L2.71088 533.67L2.21088 533.67L2.21088 536.66L2.71088 536.66ZM2.71088 530.68L3.21088 530.68L3.21088 527.691L2.71088 527.691L2.21088 527.691L2.21088 530.68L2.71088 530.68ZM2.71088 524.701L3.21088 524.701L3.21088 521.711L2.71088 521.711L2.21088 521.711L2.21088 524.701L2.71088 524.701ZM2.71088 518.722L3.21088 518.722L3.21088 515.732L2.71088 515.732L2.21088 515.732L2.21088 518.722L2.71088 518.722ZM2.71088 512.742L3.21088 512.742L3.21088 509.753L2.71088 509.753L2.21088 509.753L2.21088 512.742L2.71088 512.742ZM2.71088 506.763L3.21088 506.763L3.21088 503.773L2.71088 503.773L2.21088 503.773L2.21088 506.763L2.71088 506.763ZM2.71088 500.783L3.21088 500.783L3.21088 497.794L2.71088 497.794L2.21088 497.794L2.21088 500.783L2.71088 500.783ZM2.71088 494.804L3.21088 494.804L3.21088 491.814L2.71088 491.814L2.21088 491.814L2.21088 494.804L2.71088 494.804ZM2.71088 488.825L3.21088 488.825L3.21088 485.835L2.71088 485.835L2.21088 485.835L2.21088 488.825L2.71088 488.825ZM2.71088 482.845L3.21088 482.845L3.21088 479.856L2.71088 479.856L2.21088 479.856L2.21088 482.845L2.71088 482.845ZM2.71088 476.866L3.21088 476.866L3.21088 473.876L2.71088 473.876L2.21088 473.876L2.21088 476.866L2.71088 476.866ZM2.71088 470.887L3.21088 470.887L3.21088 467.897L2.71088 467.897L2.21088 467.897L2.21088 470.887L2.71088 470.887ZM2.71088 464.907L3.21088 464.907L3.21088 461.917L2.71088 461.917L2.21088 461.917L2.21088 464.907L2.71088 464.907ZM2.71088 458.928L3.21088 458.928L3.21088 455.938L2.71088 455.938L2.21088 455.938L2.21088 458.928L2.71088 458.928ZM2.71088 452.948L3.21088 452.948L3.21088 449.959L2.71088 449.959L2.21088 449.959L2.21088 452.948L2.71088 452.948ZM2.71088 446.969L3.21088 446.969L3.21088 443.979L2.71088 443.979L2.21088 443.979L2.21088 446.969L2.71088 446.969ZM2.71088 440.99L3.21088 440.99L3.21088 438L2.71088 438L2.21088 438L2.21088 440.99L2.71088 440.99ZM2.71088 435.01L3.21088 435.01L3.21088 432.021L2.71088 432.021L2.21088 432.021L2.21088 435.01L2.71088 435.01ZM2.71088 429.031L3.21088 429.031L3.21088 426.041L2.71088 426.041L2.21088 426.041L2.21088 429.031L2.71088 429.031ZM2.71088 423.052L3.21088 423.052L3.21088 420.062L2.71088 420.062L2.21088 420.062L2.21088 423.052L2.71088 423.052ZM2.71088 417.072L3.21088 417.072L3.21088 414.082L2.71088 414.082L2.21088 414.082L2.21088 417.072L2.71088 417.072ZM2.71088 411.093L3.21088 411.093L3.21088 408.103L2.71088 408.103L2.21088 408.103L2.21088 411.093L2.71088 411.093ZM2.71088 405.113L3.21088 405.113L3.21088 402.124L2.71088 402.124L2.21088 402.124L2.21088 405.113L2.71088 405.113ZM2.71088 399.134L3.21088 399.134L3.21088 396.144L2.71088 396.144L2.21088 396.144L2.21088 399.134L2.71088 399.134ZM2.71088 393.155L3.21088 393.155L3.21088 390.165L2.71088 390.165L2.21088 390.165L2.21088 393.155L2.71088 393.155ZM2.71088 387.175L3.21088 387.175L3.21088 384.186L2.71088 384.186L2.21088 384.186L2.21088 387.175L2.71088 387.175ZM2.71089 381.196L3.21089 381.196L3.21089 378.206L2.71089 378.206L2.21089 378.206L2.21089 381.196L2.71089 381.196ZM2.71089 375.217L3.21089 375.217L3.21089 372.227L2.71089 372.227L2.21089 372.227L2.21089 375.217L2.71089 375.217ZM2.71089 369.237L3.21089 369.237L3.21089 366.248L2.71089 366.248L2.21089 366.248L2.21089 369.237L2.71089 369.237ZM2.71089 363.258L3.21089 363.258L3.21089 360.268L2.71089 360.268L2.21089 360.268L2.21089 363.258L2.71089 363.258ZM2.71089 357.278L3.21089 357.278L3.21089 354.289L2.71089 354.289L2.21089 354.289L2.21089 357.278L2.71089 357.278ZM2.71089 351.299L3.21089 351.299L3.21089 348.309L2.71089 348.309L2.21089 348.309L2.21089 351.299L2.71089 351.299ZM2.71089 345.32L3.21089 345.32L3.21089 342.33L2.71089 342.33L2.21089 342.33L2.21089 345.32L2.71089 345.32ZM2.71089 339.34L3.21089 339.34L3.21089 336.351L2.71089 336.351L2.21089 336.351L2.21089 339.34L2.71089 339.34ZM2.71089 333.361L3.21089 333.361L3.21089 330.371L2.71089 330.371L2.21089 330.371L2.21089 333.361L2.71089 333.361ZM2.71089 327.382L3.21089 327.382L3.21089 324.392L2.71089 324.392L2.21089 324.392L2.21089 327.382L2.71089 327.382ZM2.71089 321.402L3.21089 321.402L3.21089 318.413L2.71089 318.413L2.21089 318.413L2.21089 321.402L2.71089 321.402ZM2.71089 315.423L3.21089 315.423L3.21089 312.433L2.71089 312.433L2.21089 312.433L2.21089 315.423L2.71089 315.423ZM2.71089 309.444L3.21089 309.444L3.21089 306.454L2.71089 306.454L2.21089 306.454L2.21089 309.444L2.71089 309.444ZM2.71089 303.464L3.21089 303.464L3.21089 300.474L2.71089 300.474L2.21089 300.474L2.21089 303.464L2.71089 303.464ZM2.71089 297.485L3.21089 297.485L3.21089 294.495L2.71089 294.495L2.21089 294.495L2.21089 297.485L2.71089 297.485ZM2.71089 291.505L3.21089 291.505L3.21089 288.516L2.71089 288.516L2.21089 288.516L2.21089 291.505L2.71089 291.505ZM2.71089 285.526L3.21089 285.526L3.21089 282.536L2.71089 282.536L2.21089 282.536L2.21089 285.526L2.71089 285.526ZM2.71089 279.547L3.21089 279.547L3.21089 276.557L2.71089 276.557L2.21089 276.557L2.21089 279.547L2.71089 279.547ZM2.71089 273.567L3.21089 273.567L3.21089 270.578L2.71089 270.578L2.21089 270.578L2.21089 273.567L2.71089 273.567ZM2.71089 267.588L3.21089 267.588L3.21089 264.598L2.71089 264.598L2.21089 264.598L2.21089 267.588L2.71089 267.588ZM2.71089 261.609L3.21089 261.609L3.21089 258.619L2.71089 258.619L2.21089 258.619L2.21089 261.609L2.71089 261.609ZM2.71089 255.629L3.21089 255.629L3.21089 252.639L2.71089 252.639L2.21089 252.639L2.21089 255.629L2.71089 255.629ZM2.71089 249.65L3.21089 249.65L3.21089 246.66L2.71089 246.66L2.21089 246.66L2.21089 249.65L2.71089 249.65ZM2.71089 243.67L3.21089 243.67L3.21089 240.681L2.71089 240.681L2.21089 240.681L2.21089 243.67L2.71089 243.67ZM2.71089 237.691L3.21089 237.691L3.21089 234.701L2.71089 234.701L2.21089 234.701L2.21089 237.691L2.71089 237.691ZM2.71089 231.712L3.21089 231.712L3.21089 228.722L2.71089 228.722L2.21089 228.722L2.21089 231.712L2.71089 231.712ZM2.71089 225.732L3.21089 225.732L3.21089 222.743L2.71089 222.743L2.21089 222.743L2.21089 225.732L2.71089 225.732ZM2.71089 219.753L3.21089 219.753L3.21089 216.763L2.71089 216.763L2.21089 216.763L2.21089 219.753L2.71089 219.753ZM2.71089 213.774L3.21089 213.774L3.21089 210.784L2.71089 210.784L2.21089 210.784L2.21089 213.774L2.71089 213.774ZM2.71089 207.794L3.21089 207.794L3.21089 204.805L2.71089 204.805L2.21089 204.805L2.21089 207.794L2.71089 207.794ZM2.71089 201.815L3.21089 201.815L3.21089 198.825L2.71089 198.825L2.21089 198.825L2.21089 201.815L2.71089 201.815ZM2.71089 195.835L3.21089 195.835L3.21089 192.846L2.71089 192.846L2.21089 192.846L2.21089 195.835L2.71089 195.835ZM2.71089 189.856L3.21089 189.856L3.21089 186.866L2.71089 186.866L2.21089 186.866L2.21089 189.856L2.71089 189.856ZM2.71089 183.877L3.21089 183.877L3.21089 180.887L2.71089 180.887L2.21089 180.887L2.21089 183.877L2.71089 183.877ZM2.71089 177.897L3.21089 177.897L3.21089 174.908L2.71089 174.908L2.21089 174.908L2.21089 177.897L2.71089 177.897ZM2.71089 171.918L3.21089 171.918L3.21089 168.928L2.71089 168.928L2.21089 168.928L2.21089 171.918L2.71089 171.918ZM2.71089 165.939L3.21089 165.939L3.21089 162.949L2.71089 162.949L2.21089 162.949L2.21089 165.939L2.71089 165.939ZM2.71089 159.959L3.21089 159.959L3.21089 156.97L2.71089 156.97L2.21089 156.97L2.21089 159.959L2.71089 159.959ZM2.71089 153.98L3.21089 153.98L3.21089 150.99L2.71089 150.99L2.21089 150.99L2.21089 153.98L2.71089 153.98ZM2.7109 148.001L3.2109 148.001L3.2109 145.011L2.7109 145.011L2.2109 145.011L2.2109 148.001L2.7109 148.001ZM2.7109 142.021L3.2109 142.021L3.2109 139.031L2.7109 139.031L2.2109 139.031L2.2109 142.021L2.7109 142.021ZM2.7109 136.042L3.2109 136.042L3.2109 133.052L2.7109 133.052L2.2109 133.052L2.2109 136.042L2.7109 136.042ZM2.7109 130.062L3.2109 130.062L3.2109 127.073L2.7109 127.073L2.2109 127.073L2.2109 130.062L2.7109 130.062ZM2.7109 124.083L3.2109 124.083L3.2109 121.093L2.7109 121.093L2.2109 121.093L2.2109 124.083L2.7109 124.083ZM2.7109 118.104L3.2109 118.104L3.2109 115.114L2.7109 115.114L2.2109 115.114L2.2109 118.104L2.7109 118.104ZM2.7109 112.124L3.2109 112.124L3.2109 109.135L2.7109 109.135L2.2109 109.135L2.2109 112.124L2.7109 112.124ZM2.7109 106.145L3.2109 106.145L3.2109 103.155L2.7109 103.155L2.2109 103.155L2.2109 106.145L2.7109 106.145ZM2.7109 100.166L3.2109 100.166L3.2109 97.1758L2.7109 97.1758L2.2109 97.1758L2.2109 100.166L2.7109 100.166ZM2.7109 94.1862L3.2109 94.1862L3.2109 91.1965L2.7109 91.1965L2.2109 91.1965L2.2109 94.1862L2.7109 94.1862ZM2.7109 88.2068L3.2109 88.2068L3.2109 85.2171L2.7109 85.2171L2.2109 85.2171L2.2109 88.2068L2.7109 88.2068ZM2.7109 82.2274L3.2109 82.2274L3.2109 79.2377L2.7109 79.2377L2.2109 79.2377L2.2109 82.2274L2.7109 82.2274ZM2.7109 76.2481L3.2109 76.2481L3.2109 73.2584L2.7109 73.2584L2.2109 73.2584L2.2109 76.2481L2.7109 76.2481ZM2.7109 70.2687L3.2109 70.2687L3.2109 67.279L2.7109 67.279L2.2109 67.279L2.2109 70.2687L2.7109 70.2687ZM2.7109 64.2893L3.2109 64.2893L3.2109 61.2996L2.7109 61.2996L2.2109 61.2996L2.2109 64.2893L2.7109 64.2893ZM2.7109 58.3099L3.2109 58.3099L3.2109 55.3202L2.7109 55.3202L2.2109 55.3202L2.2109 58.3099L2.7109 58.3099ZM2.7109 52.3306L3.2109 52.3306L3.2109 49.3409L2.7109 49.3409L2.2109 49.3409L2.2109 52.3306L2.7109 52.3306ZM2.7109 46.3512L3.2109 46.3512L3.2109 43.3615L2.7109 43.3615L2.2109 43.3615L2.2109 46.3512L2.7109 46.3512ZM2.7109 40.3718L3.2109 40.3718L3.2109 37.3821L2.7109 37.3821L2.2109 37.3821L2.2109 40.3718L2.7109 40.3718ZM2.7109 34.3925L3.2109 34.3925L3.2109 31.4027L2.7109 31.4027L2.2109 31.4027L2.2109 34.3925L2.7109 34.3925ZM2.7109 28.4131L3.2109 28.4131L3.2109 25.4234L2.7109 25.4234L2.2109 25.4234L2.2109 28.4131L2.7109 28.4131ZM2.7109 22.4337L3.2109 22.4337L3.2109 19.444L2.7109 19.444L2.2109 19.444L2.2109 22.4337L2.7109 22.4337ZM2.7109 16.4543L3.2109 16.4543L3.2109 13.4646L2.7109 13.4646L2.2109 13.4646L2.2109 16.4543L2.7109 16.4543ZM2.7109 10.475L3.2109 10.475L3.2109 7.48528L2.7109 7.48528L2.2109 7.48528L2.2109 10.475L2.7109 10.475ZM2.7109 4.49558L3.2109 4.49558L3.2109 2.99998L2.7109 2.99998L2.2109 2.99998L2.2109 4.49558L2.7109 4.49558Z" fill="black"/>
</svg>
