<svg width="1440" height="6" viewBox="0 0 1440 6" fill="none" xmlns="http://www.w3.org/2000/svg">
<path d="M-19.6667 3C-19.6667 4.47276 -18.4728 5.66667 -17 5.66667C-15.5272 5.66667 -14.3333 4.47276 -14.3333 3C-14.3333 1.52724 -15.5272 0.333333 -17 0.333333C-18.4728 0.333333 -19.6667 1.52724 -19.6667 3ZM1453.36 3C1453.36 4.47276 1454.55 5.66667 1456.02 5.66667C1457.5 5.66667 1458.69 4.47276 1458.69 3C1458.69 1.52724 1457.5 0.333333 1456.02 0.333333C1454.55 0.333333 1453.36 1.52724 1453.36 3ZM-17 3V3.5H-15.503V3V2.5H-17V3ZM-12.5091 3V3.5H-9.51513V3V2.5L-12.5091 2.5V3ZM-6.52118 3V3.5H-3.52723V3V2.5H-6.52118V3ZM-0.533285 3V3.5L2.46066 3.5V3V2.5L-0.533285 2.5V3ZM5.45461 3V3.5L8.44856 3.5V3V2.5L5.45461 2.5V3ZM11.4425 3V3.5L14.4365 3.5V3V2.5L11.4425 2.5V3ZM17.4304 3V3.5L20.4244 3.5V3V2.5L17.4304 2.5V3ZM23.4183 3V3.5H26.4123V3V2.5H23.4183V3ZM29.4062 3V3.5H32.4002V3V2.5H29.4062V3ZM35.3941 3V3.5H38.3881V3V2.5H35.3941V3ZM41.382 3V3.5L44.376 3.5V3V2.5L41.382 2.5V3ZM47.3699 3V3.5L50.3639 3.5V3V2.5L47.3699 2.5V3ZM53.3578 3V3.5L56.3518 3.5V3V2.5L53.3578 2.5V3ZM59.3457 3V3.5L62.3397 3.5V3V2.5L59.3457 2.5V3ZM65.3336 3V3.5H68.3275V3V2.5H65.3336V3ZM71.3215 3V3.5H74.3155V3V2.5L71.3215 2.5V3ZM77.3094 3V3.5H80.3033V3V2.5H77.3094V3ZM83.2973 3V3.5H86.2912V3V2.5H83.2973V3ZM89.2852 3V3.5H92.2792V3V2.5H89.2852V3ZM95.2731 3V3.5L98.2671 3.5V3V2.5L95.2731 2.5V3ZM101.261 3V3.5L104.255 3.5V3V2.5L101.261 2.5V3ZM107.249 3V3.5L110.243 3.5V3V2.5L107.249 2.5V3ZM113.237 3V3.5L116.231 3.5V3V2.5L113.237 2.5V3ZM119.225 3V3.5H122.219V3V2.5H119.225V3ZM125.213 3V3.5H128.207V3V2.5H125.213V3ZM131.2 3V3.5H134.194V3V2.5H131.2V3ZM137.188 3V3.5L140.182 3.5V3V2.5L137.188 2.5V3ZM143.176 3V3.5L146.17 3.5V3V2.5H143.176V3ZM149.164 3V3.5L152.158 3.5V3V2.5L149.164 2.5V3ZM155.152 3V3.5L158.146 3.5V3V2.5L155.152 2.5V3ZM161.14 3V3.5L164.134 3.5V3V2.5H161.14V3ZM167.128 3V3.5L170.122 3.5V3V2.5L167.128 2.5V3ZM173.116 3V3.5H176.11V3V2.5H173.116V3ZM179.104 3V3.5H182.097V3V2.5H179.104V3ZM185.091 3V3.5H188.085V3V2.5H185.091V3ZM191.079 3V3.5L194.073 3.5V3V2.5L191.079 2.5V3ZM197.067 3V3.5L200.061 3.5V3V2.5L197.067 2.5V3ZM203.055 3V3.5L206.049 3.5V3V2.5L203.055 2.5V3ZM209.043 3V3.5L212.037 3.5V3V2.5L209.043 2.5V3ZM215.031 3V3.5H218.025V3V2.5H215.031V3ZM221.019 3V3.5H224.013V3V2.5H221.019V3ZM227.007 3V3.5H230.001V3V2.5H227.007V3ZM232.994 3V3.5H235.988V3V2.5L232.994 2.5V3ZM238.982 3V3.5H241.976V3V2.5H238.982V3ZM244.97 3V3.5L247.964 3.5V3V2.5L244.97 2.5V3ZM250.958 3V3.5L253.952 3.5V3V2.5L250.958 2.5V3ZM256.946 3V3.5L259.94 3.5V3V2.5L256.946 2.5V3ZM262.934 3V3.5L265.928 3.5V3V2.5L262.934 2.5V3ZM268.922 3V3.5H271.916V3V2.5H268.922V3ZM274.91 3V3.5H277.904V3V2.5H274.91V3ZM280.898 3V3.5H283.892V3V2.5H280.898V3ZM286.886 3V3.5L289.88 3.5V3V2.5L286.886 2.5V3ZM292.874 3V3.5L295.868 3.5V3V2.5L292.874 2.5V3ZM298.862 3V3.5L301.855 3.5V3V2.5L298.862 2.5V3ZM304.849 3V3.5L307.843 3.5V3V2.5L304.849 2.5V3ZM310.837 3V3.5H313.831V3V2.5H310.837V3ZM316.825 3V3.5H319.819V3V2.5L316.825 2.5V3ZM322.813 3V3.5H325.807V3V2.5H322.813V3ZM328.801 3V3.5H331.795V3V2.5L328.801 2.5V3ZM334.789 3V3.5H337.783V3V2.5H334.789V3ZM340.777 3V3.5L343.771 3.5V3V2.5L340.777 2.5V3ZM346.765 3V3.5L349.759 3.5V3V2.5L346.765 2.5V3ZM352.753 3V3.5L355.747 3.5V3V2.5L352.753 2.5V3ZM358.741 3V3.5L361.735 3.5V3V2.5L358.741 2.5V3ZM364.729 3V3.5H367.723V3V2.5H364.729V3ZM370.717 3V3.5H373.71V3V2.5H370.717V3ZM376.704 3V3.5H379.698V3V2.5H376.704V3ZM382.692 3V3.5L385.686 3.5V3V2.5L382.692 2.5V3ZM388.68 3V3.5L391.674 3.5V3V2.5L388.68 2.5V3ZM394.668 3V3.5L397.662 3.5V3V2.5L394.668 2.5V3ZM400.656 3V3.5L403.65 3.5V3V2.5L400.656 2.5V3ZM406.644 3V3.5L409.638 3.5V3V2.5H406.644V3ZM412.632 3V3.5L415.626 3.5V3V2.5L412.632 2.5V3ZM418.62 3V3.5H421.614V3V2.5H418.62V3ZM424.608 3V3.5H427.602V3V2.5H424.608V3ZM430.596 3V3.5H433.59V3V2.5H430.596V3ZM436.584 3V3.5L439.578 3.5V3V2.5L436.584 2.5V3ZM442.571 3V3.5L445.565 3.5V3V2.5L442.571 2.5V3ZM448.559 3V3.5L451.553 3.5V3V2.5L448.559 2.5V3ZM454.547 3V3.5L457.541 3.5V3V2.5L454.547 2.5V3ZM460.535 3V3.5H463.529V3V2.5H460.535V3ZM466.523 3V3.5H469.517V3V2.5H466.523V3ZM472.511 3V3.5H475.505V3V2.5H472.511V3ZM478.499 3V3.5L481.493 3.5V3V2.5L478.499 2.5V3ZM484.487 3V3.5L487.481 3.5V3V2.5H484.487V3ZM490.475 3V3.5L493.469 3.5V3V2.5L490.475 2.5V3ZM496.463 3V3.5L499.457 3.5V3V2.5L496.463 2.5V3ZM502.451 3V3.5L505.445 3.5V3V2.5H502.451V3ZM508.439 3V3.5L511.432 3.5V3V2.5L508.439 2.5V3ZM514.426 3V3.5H517.42V3V2.5H514.426V3ZM520.414 3V3.5H523.408V3V2.5H520.414V3ZM526.402 3V3.5H529.396V3V2.5H526.402V3ZM532.39 3V3.5L535.384 3.5V3V2.5L532.39 2.5V3ZM538.378 3V3.5L541.372 3.5V3V2.5L538.378 2.5V3ZM544.366 3V3.5L547.36 3.5V3V2.5L544.366 2.5V3ZM550.354 3V3.5L553.348 3.5V3V2.5L550.354 2.5V3ZM556.342 3V3.5H559.336V3V2.5H556.342V3ZM562.33 3V3.5H565.324V3V2.5L562.33 2.5V3ZM568.318 3V3.5H571.312V3V2.5H568.318V3ZM574.306 3V3.5H577.3V3V2.5L574.306 2.5V3ZM580.294 3V3.5H583.287V3V2.5H580.294V3ZM586.281 3V3.5L589.275 3.5V3V2.5L586.281 2.5V3ZM592.269 3V3.5L595.263 3.5V3V2.5L592.269 2.5V3ZM598.257 3V3.5L601.251 3.5V3V2.5L598.257 2.5V3ZM604.245 3V3.5L607.239 3.5V3V2.5L604.245 2.5V3ZM610.233 3V3.5H613.227V3V2.5H610.233V3ZM616.221 3V3.5H619.215V3V2.5H616.221V3ZM622.209 3V3.5H625.203V3V2.5H622.209V3ZM628.197 3V3.5L631.191 3.5V3V2.5L628.197 2.5V3ZM634.185 3V3.5L637.179 3.5V3V2.5L634.185 2.5V3ZM640.173 3V3.5L643.167 3.5V3V2.5L640.173 2.5V3ZM646.161 3V3.5L649.155 3.5V3V2.5L646.161 2.5V3ZM652.148 3V3.5H655.142V3V2.5H652.148V3ZM658.136 3V3.5H661.13V3V2.5L658.136 2.5V3ZM664.124 3V3.5H667.118V3V2.5H664.124V3ZM670.112 3V3.5H673.106V3V2.5L670.112 2.5V3ZM676.1 3V3.5H679.094V3V2.5H676.1V3ZM682.088 3V3.5L685.082 3.5V3V2.5L682.088 2.5V3ZM688.076 3V3.5L691.07 3.5V3V2.5L688.076 2.5V3ZM694.064 3V3.5L697.058 3.5V3V2.5L694.064 2.5V3ZM700.052 3V3.5L703.046 3.5V3V2.5L700.052 2.5V3ZM706.04 3V3.5H709.034V3V2.5H706.04V3ZM712.028 3V3.5H715.022V3V2.5H712.028V3ZM718.016 3V3.5H721.009V3V2.5H718.016V3ZM724.003 3V3.5L726.997 3.5V3V2.5L724.003 2.5V3ZM729.991 3V3.5L732.985 3.5V3V2.5H729.991V3ZM735.979 3V3.5L738.973 3.5V3V2.5L735.979 2.5V3ZM741.967 3V3.5L744.961 3.5V3V2.5L741.967 2.5V3ZM747.955 3V3.5L750.949 3.5V3V2.5H747.955V3ZM753.943 3V3.5L756.937 3.5V3V2.5L753.943 2.5V3ZM759.931 3V3.5H762.925V3V2.5H759.931V3ZM765.919 3V3.5H768.913V3V2.5H765.919V3ZM771.907 3V3.5H774.901V3V2.5H771.907V3ZM777.895 3V3.5L780.889 3.5V3V2.5L777.895 2.5V3ZM783.883 3V3.5L786.877 3.5V3V2.5L783.883 2.5V3ZM789.87 3V3.5L792.865 3.5V3V2.5L789.87 2.5V3ZM795.858 3V3.5L798.852 3.5V3V2.5L795.858 2.5V3ZM801.846 3V3.5H804.84V3V2.5H801.846V3ZM807.834 3V3.5H810.828V3V2.5H807.834V3ZM813.822 3V3.5H816.816V3V2.5H813.822V3ZM819.81 3V3.5L822.804 3.5V3V2.5L819.81 2.5V3ZM825.798 3V3.5L828.792 3.5V3V2.5H825.798V3ZM831.786 3V3.5L834.78 3.5V3V2.5L831.786 2.5V3ZM837.774 3V3.5L840.768 3.5V3V2.5L837.774 2.5V3ZM843.762 3V3.5L846.756 3.5V3V2.5H843.762V3ZM849.75 3V3.5L852.744 3.5V3V2.5L849.75 2.5V3ZM855.738 3V3.5H858.732V3V2.5H855.738V3ZM861.726 3V3.5H864.719V3V2.5H861.726V3ZM867.713 3V3.5H870.707V3V2.5H867.713V3ZM873.701 3V3.5L876.695 3.5V3V2.5L873.701 2.5V3ZM879.689 3V3.5L882.683 3.5V3V2.5L879.689 2.5V3ZM885.677 3V3.5L888.671 3.5V3V2.5L885.677 2.5V3ZM891.665 3V3.5L894.659 3.5V3V2.5L891.665 2.5V3ZM897.653 3V3.5H900.647V3V2.5H897.653V3ZM903.641 3V3.5H906.635V3V2.5L903.641 2.5V3ZM909.629 3V3.5H912.623V3V2.5H909.629V3ZM915.617 3V3.5H918.611V3V2.5L915.617 2.5V3ZM921.605 3V3.5H924.599V3V2.5H921.605V3ZM927.593 3V3.5L930.587 3.5V3V2.5L927.593 2.5V3ZM933.58 3V3.5L936.574 3.5V3V2.5L933.58 2.5V3ZM939.568 3V3.5L942.562 3.5V3V2.5L939.568 2.5V3ZM945.556 3V3.5L948.55 3.5V3V2.5L945.556 2.5V3ZM951.544 3V3.5H954.538V3V2.5H951.544V3ZM957.532 3V3.5H960.526V3V2.5H957.532V3ZM963.52 3V3.5H966.514V3V2.5H963.52V3ZM969.508 3V3.5L972.502 3.5V3V2.5L969.508 2.5V3ZM975.496 3V3.5L978.49 3.5V3V2.5L975.496 2.5V3ZM981.484 3V3.5L984.478 3.5V3V2.5L981.484 2.5V3ZM987.472 3V3.5L990.466 3.5V3V2.5L987.472 2.5V3ZM993.46 3V3.5H996.454V3V2.5H993.46V3ZM999.448 3V3.5H1002.44V3V2.5L999.448 2.5V3ZM1005.44 3V3.5H1008.43V3V2.5H1005.44V3ZM1011.42 3V3.5L1014.42 3.5V3V2.5H1011.42V3ZM1017.41 3V3.5L1020.4 3.5V3V2.5H1017.41V3ZM1023.4 3V3.5L1026.39 3.5V3V2.5L1023.4 2.5V3ZM1029.39 3V3.5L1032.38 3.5V3V2.5L1029.39 2.5V3ZM1035.37 3V3.5L1038.37 3.5V3V2.5L1035.37 2.5V3ZM1041.36 3V3.5H1044.36V3V2.5L1041.36 2.5V3ZM1047.35 3V3.5H1050.34V3V2.5H1047.35V3ZM1053.34 3V3.5H1056.33V3V2.5L1053.34 2.5V3ZM1059.33 3V3.5H1062.32V3V2.5H1059.33V3ZM1065.31 3V3.5L1068.31 3.5V3V2.5H1065.31V3ZM1071.3 3V3.5L1074.3 3.5V3V2.5H1071.3V3ZM1077.29 3V3.5L1080.28 3.5V3V2.5L1077.29 2.5V3ZM1083.28 3V3.5L1086.27 3.5V3V2.5L1083.28 2.5V3ZM1089.26 3V3.5H1092.26V3V2.5L1089.26 2.5V3ZM1095.25 3V3.5L1098.25 3.5V3V2.5L1095.25 2.5V3ZM1101.24 3V3.5H1104.23V3V2.5H1101.24V3ZM1107.23 3V3.5H1110.22V3V2.5H1107.23V3ZM1113.22 3V3.5L1116.21 3.5V3V2.5H1113.22V3ZM1119.2 3V3.5L1122.2 3.5V3V2.5L1119.2 2.5V3ZM1125.19 3V3.5L1128.19 3.5V3V2.5H1125.19V3ZM1131.18 3V3.5L1134.17 3.5V3V2.5L1131.18 2.5V3ZM1137.17 3V3.5L1140.16 3.5V3V2.5L1137.17 2.5V3ZM1143.15 3V3.5H1146.15V3V2.5H1143.15V3ZM1149.14 3V3.5H1152.14V3V2.5H1149.14V3ZM1155.13 3V3.5H1158.12V3V2.5H1155.13V3ZM1161.12 3V3.5L1164.11 3.5V3V2.5H1161.12V3ZM1167.11 3V3.5L1170.1 3.5V3V2.5H1167.11V3ZM1173.09 3V3.5L1176.09 3.5V3V2.5L1173.09 2.5V3ZM1179.08 3V3.5L1182.08 3.5V3V2.5L1179.08 2.5V3ZM1185.07 3V3.5H1188.06V3V2.5L1185.07 2.5V3ZM1191.06 3V3.5L1194.05 3.5V3V2.5L1191.06 2.5V3ZM1197.04 3V3.5H1200.04V3V2.5H1197.04V3ZM1203.03 3V3.5H1206.03V3V2.5H1203.03V3ZM1209.02 3V3.5H1212.01V3V2.5H1209.02V3ZM1215.01 3V3.5L1218 3.5V3V2.5L1215.01 2.5V3ZM1221 3V3.5L1223.99 3.5V3V2.5H1221V3ZM1226.98 3V3.5L1229.98 3.5V3V2.5L1226.98 2.5V3ZM1232.97 3V3.5L1235.97 3.5V3V2.5L1232.97 2.5V3ZM1238.96 3V3.5H1241.95V3V2.5L1238.96 2.5V3ZM1244.95 3V3.5H1247.94V3V2.5L1244.95 2.5V3ZM1250.94 3V3.5H1253.93V3V2.5H1250.94V3ZM1256.92 3V3.5H1259.92V3V2.5L1256.92 2.5V3ZM1262.91 3V3.5L1265.9 3.5V3V2.5H1262.91V3ZM1268.9 3V3.5L1271.89 3.5V3V2.5L1268.9 2.5V3ZM1274.89 3V3.5L1277.88 3.5V3V2.5L1274.89 2.5V3ZM1280.87 3V3.5H1283.87V3V2.5L1280.87 2.5V3ZM1286.86 3V3.5H1289.86V3V2.5L1286.86 2.5V3ZM1292.85 3V3.5H1295.84V3V2.5H1292.85V3ZM1298.84 3V3.5H1301.83V3V2.5L1298.84 2.5V3ZM1304.83 3V3.5H1307.82V3V2.5H1304.83V3ZM1310.81 3V3.5L1313.81 3.5V3V2.5L1310.81 2.5V3ZM1316.8 3V3.5L1319.79 3.5V3V2.5H1316.8V3ZM1322.79 3V3.5L1325.78 3.5V3V2.5L1322.79 2.5V3ZM1328.78 3V3.5L1331.77 3.5V3V2.5L1328.78 2.5V3ZM1334.76 3V3.5H1337.76V3V2.5L1334.76 2.5V3ZM1340.75 3V3.5H1343.75V3V2.5L1340.75 2.5V3ZM1346.74 3V3.5H1349.73V3V2.5H1346.74V3ZM1352.73 3V3.5H1355.72V3V2.5L1352.73 2.5V3ZM1358.72 3V3.5L1361.71 3.5V3V2.5H1358.72V3ZM1364.7 3V3.5L1367.7 3.5V3V2.5L1364.7 2.5V3ZM1370.69 3V3.5L1373.68 3.5V3V2.5L1370.69 2.5V3ZM1376.68 3V3.5H1379.67V3V2.5L1376.68 2.5V3ZM1382.67 3V3.5L1385.66 3.5V3V2.5L1382.67 2.5V3ZM1388.65 3V3.5H1391.65V3V2.5H1388.65V3ZM1394.64 3V3.5H1397.64V3V2.5L1394.64 2.5V3ZM1400.63 3V3.5H1403.62V3V2.5H1400.63V3ZM1406.62 3V3.5L1409.61 3.5V3V2.5H1406.62V3ZM1412.61 3V3.5L1415.6 3.5V3V2.5H1412.61V3ZM1418.59 3V3.5L1421.59 3.5V3V2.5L1418.59 2.5V3ZM1424.58 3V3.5L1427.57 3.5V3V2.5L1424.58 2.5V3ZM1430.57 3V3.5H1433.56V3V2.5L1430.57 2.5V3ZM1436.56 3V3.5H1439.55V3V2.5L1436.56 2.5V3ZM1442.54 3V3.5H1445.54V3V2.5H1442.54V3ZM1448.53 3V3.5H1451.53V3V2.5H1448.53V3ZM1454.52 3V3.5H1456.02V3V2.5H1454.52V3Z" fill="black"/>
</svg>
