<svg width="1364" height="6" viewBox="0 0 1364 6" fill="none" xmlns="http://www.w3.org/2000/svg">
<path d="M0.00309499 3C0.00309499 4.47276 1.197 5.66667 2.66976 5.66667C4.14252 5.66667 5.33643 4.47276 5.33643 3C5.33643 1.52724 4.14252 0.333333 2.66976 0.333333C1.197 0.333333 0.00309499 1.52724 0.00309499 3ZM1358.66 3C1358.66 4.47276 1359.86 5.66667 1361.33 5.66667C1362.8 5.66667 1364 4.47276 1364 3C1364 1.52724 1362.8 0.333333 1361.33 0.333333C1359.86 0.333333 1358.66 1.52724 1358.66 3ZM2.66976 3V3.5L4.1727 3.5V3V2.5L2.66976 2.5V3ZM7.17859 3V3.5L10.1845 3.5V3V2.5L7.17859 2.5V3ZM13.1904 3V3.5L16.1962 3.5V3V2.5L13.1904 2.5V3ZM19.2021 3V3.5L22.208 3.5V3V2.5L19.2021 2.5V3ZM25.2139 3V3.5L28.2198 3.5V3V2.5L25.2139 2.5V3ZM31.2257 3V3.5L34.2316 3.5V3V2.5L31.2257 2.5V3ZM37.2374 3V3.5L40.2433 3.5V3V2.5L37.2374 2.5V3ZM43.2492 3V3.5L46.2551 3.5V3V2.5L43.2492 2.5V3ZM49.261 3V3.5L52.2669 3.5V3V2.5L49.261 2.5V3ZM55.2728 3V3.5L58.2787 3.5V3V2.5L55.2728 2.5V3ZM61.2845 3V3.5L64.2904 3.5V3V2.5L61.2845 2.5V3ZM67.2963 3V3.5L70.3022 3.5V3V2.5L67.2963 2.5V3ZM73.3081 3V3.5L76.314 3.5V3V2.5L73.3081 2.5V3ZM79.3199 3V3.5L82.3258 3.5V3V2.5L79.3199 2.5V3ZM85.3316 3V3.5L88.3375 3.5V3V2.5L85.3316 2.5V3ZM91.3434 3V3.5L94.3493 3.5V3V2.5L91.3434 2.5V3ZM97.3552 3V3.5L100.361 3.5V3V2.5L97.3552 2.5V3ZM103.367 3V3.5L106.373 3.5V3V2.5L103.367 2.5V3ZM109.379 3V3.5L112.385 3.5V3V2.5L109.379 2.5V3ZM115.391 3V3.5L118.396 3.5V3V2.5L115.391 2.5V3ZM121.402 3V3.5L124.408 3.5V3V2.5L121.402 2.5V3ZM127.414 3V3.5L130.42 3.5V3V2.5L127.414 2.5V3ZM133.426 3V3.5L136.432 3.5V3V2.5L133.426 2.5V3ZM139.438 3V3.5L142.444 3.5V3V2.5L139.438 2.5V3ZM145.449 3V3.5L148.455 3.5V3V2.5L145.449 2.5V3ZM151.461 3V3.5L154.467 3.5V3V2.5L151.461 2.5V3ZM157.473 3V3.5L160.479 3.5V3V2.5L157.473 2.5V3ZM163.485 3V3.5L166.491 3.5V3V2.5L163.485 2.5V3ZM169.497 3V3.5L172.502 3.5V3V2.5L169.497 2.5V3ZM175.508 3V3.5L178.514 3.5V3V2.5L175.508 2.5V3ZM181.52 3V3.5L184.526 3.5V3V2.5L181.52 2.5V3ZM187.532 3V3.5L190.538 3.5V3V2.5L187.532 2.5V3ZM193.544 3V3.5L196.55 3.5V3V2.5L193.544 2.5V3ZM199.555 3V3.5L202.561 3.5V3V2.5L199.555 2.5V3ZM205.567 3V3.5L208.573 3.5V3V2.5L205.567 2.5V3ZM211.579 3V3.5L214.585 3.5V3V2.5L211.579 2.5V3ZM217.591 3V3.5L220.597 3.5V3V2.5L217.591 2.5V3ZM223.603 3V3.5L226.608 3.5V3V2.5L223.603 2.5V3ZM229.614 3V3.5L232.62 3.5V3V2.5L229.614 2.5V3ZM235.626 3V3.5L238.632 3.5V3V2.5L235.626 2.5V3ZM241.638 3V3.5L244.644 3.5V3V2.5L241.638 2.5V3ZM247.65 3V3.5L250.656 3.5V3V2.5L247.65 2.5V3ZM253.661 3V3.5L256.667 3.5V3V2.5L253.661 2.5V3ZM259.673 3V3.5L262.679 3.5V3V2.5L259.673 2.5V3ZM265.685 3V3.5L268.691 3.5V3V2.5L265.685 2.5V3ZM271.697 3V3.5L274.703 3.5V3V2.5L271.697 2.5V3ZM277.709 3V3.5L280.714 3.5V3V2.5L277.709 2.5V3ZM283.72 3V3.5L286.726 3.5V3V2.5L283.72 2.5V3ZM289.732 3V3.5L292.738 3.5V3V2.5L289.732 2.5V3ZM295.744 3V3.5L298.75 3.5V3V2.5L295.744 2.5V3ZM301.756 3V3.5L304.762 3.5V3V2.5L301.756 2.5V3ZM307.767 3V3.5L310.773 3.5V3V2.5L307.767 2.5V3ZM313.779 3V3.5L316.785 3.5V3V2.5L313.779 2.5V3ZM319.791 3V3.5L322.797 3.5V3V2.5L319.791 2.5V3ZM325.803 3V3.5L328.809 3.5V3V2.5L325.803 2.5V3ZM331.815 3V3.5L334.82 3.5V3V2.5L331.815 2.5V3ZM337.826 3V3.5L340.832 3.5V3V2.5L337.826 2.5V3ZM343.838 3V3.5L346.844 3.5V3V2.5L343.838 2.5V3ZM349.85 3V3.5L352.856 3.5V3V2.5L349.85 2.5V3ZM355.862 3V3.5L358.868 3.5V3V2.5L355.862 2.5V3ZM361.873 3V3.5L364.879 3.5V3V2.5L361.873 2.5V3ZM367.885 3V3.5L370.891 3.5V3V2.5L367.885 2.5V3ZM373.897 3V3.5L376.903 3.5V3V2.5L373.897 2.5V3ZM379.909 3V3.5L382.915 3.5V3V2.5L379.909 2.5V3ZM385.921 3V3.5L388.927 3.5V3V2.5L385.921 2.5V3ZM391.932 3V3.5L394.938 3.5V3V2.5L391.932 2.5V3ZM397.944 3V3.5L400.95 3.5V3V2.5L397.944 2.5V3ZM403.956 3V3.5L406.962 3.5V3V2.5L403.956 2.5V3ZM409.968 3V3.5L412.974 3.5V3V2.5L409.968 2.5V3ZM415.98 3V3.5L418.985 3.5V3V2.5L415.98 2.5V3ZM421.991 3V3.5L424.997 3.5V3V2.5L421.991 2.5V3ZM428.003 3V3.5L431.009 3.5V3V2.5L428.003 2.5V3ZM434.015 3V3.5L437.021 3.5V3V2.5L434.015 2.5V3ZM440.027 3V3.5L443.033 3.5V3V2.5L440.027 2.5V3ZM446.038 3V3.5L449.044 3.5V3V2.5L446.038 2.5V3ZM452.05 3V3.5L455.056 3.5V3V2.5L452.05 2.5V3ZM458.062 3V3.5L461.068 3.5V3V2.5L458.062 2.5V3ZM464.074 3V3.5L467.08 3.5V3V2.5L464.074 2.5V3ZM470.086 3V3.5L473.091 3.5V3V2.5L470.086 2.5V3ZM476.097 3V3.5L479.103 3.5V3V2.5L476.097 2.5V3ZM482.109 3V3.5L485.115 3.5V3V2.5L482.109 2.5V3ZM488.121 3V3.5L491.127 3.5V3V2.5L488.121 2.5V3ZM494.133 3V3.5L497.139 3.5V3V2.5L494.133 2.5V3ZM500.144 3V3.5L503.15 3.5V3V2.5L500.144 2.5V3ZM506.156 3V3.5L509.162 3.5V3V2.5L506.156 2.5V3ZM512.168 3V3.5L515.174 3.5V3V2.5L512.168 2.5V3ZM518.18 3V3.5L521.186 3.5V3V2.5L518.18 2.5V3ZM524.191 3V3.5L527.197 3.5V3V2.5L524.191 2.5V3ZM530.203 3V3.5L533.209 3.5V3V2.5L530.203 2.5V3ZM536.215 3V3.5L539.221 3.5V3V2.5L536.215 2.5V3ZM542.227 3V3.5L545.232 3.5V3V2.5L542.227 2.5V3ZM548.238 3V3.5L551.244 3.5V3V2.5L548.238 2.5V3ZM554.25 3V3.5L557.256 3.5V3V2.5L554.25 2.5V3ZM560.262 3V3.5L563.268 3.5V3V2.5L560.262 2.5V3ZM566.273 3V3.5L569.279 3.5V3V2.5L566.273 2.5V3ZM572.285 3V3.5L575.291 3.5V3V2.5L572.285 2.5V3ZM578.297 3V3.5L581.303 3.5V3V2.5L578.297 2.5V3ZM584.309 3V3.5L587.314 3.5V3V2.5L584.309 2.5V3ZM590.32 3V3.5L593.326 3.5V3V2.5L590.32 2.5V3ZM596.332 3V3.5L599.338 3.5V3V2.5L596.332 2.5V3ZM602.344 3V3.5L605.35 3.5V3V2.5L602.344 2.5V3ZM608.355 3V3.5L611.361 3.5V3V2.5L608.355 2.5V3ZM614.367 3V3.5L617.373 3.5V3V2.5L614.367 2.5V3ZM620.379 3V3.5L623.385 3.5V3V2.5L620.379 2.5V3ZM626.391 3V3.5L629.397 3.5V3V2.5L626.391 2.5V3ZM632.402 3V3.5L635.408 3.5V3V2.5L632.402 2.5V3ZM638.414 3V3.5L641.42 3.5V3V2.5L638.414 2.5V3ZM644.426 3V3.5L647.432 3.5V3V2.5L644.426 2.5V3ZM650.438 3V3.5L653.443 3.5V3V2.5L650.438 2.5V3ZM656.449 3V3.5L659.455 3.5V3V2.5L656.449 2.5V3ZM662.461 3V3.5L665.467 3.5V3V2.5L662.461 2.5V3ZM668.473 3V3.5L671.479 3.5V3V2.5L668.473 2.5V3ZM674.484 3V3.5L677.49 3.5V3V2.5L674.484 2.5V3ZM680.496 3V3.5L683.502 3.5V3V2.5L680.496 2.5V3ZM686.508 3V3.5L689.514 3.5V3V2.5L686.508 2.5V3ZM692.52 3V3.5L695.525 3.5V3V2.5L692.52 2.5V3ZM698.531 3V3.5L701.537 3.5V3V2.5L698.531 2.5V3ZM704.543 3V3.5L707.549 3.5V3V2.5L704.543 2.5V3ZM710.555 3V3.5L713.561 3.5V3V2.5L710.555 2.5V3ZM716.566 3V3.5L719.572 3.5V3V2.5L716.566 2.5V3ZM722.578 3V3.5L725.584 3.5V3V2.5L722.578 2.5V3ZM728.59 3V3.5L731.596 3.5V3V2.5L728.59 2.5V3ZM734.602 3V3.5L737.607 3.5V3V2.5L734.602 2.5V3ZM740.613 3V3.5L743.619 3.5V3V2.5L740.613 2.5V3ZM746.625 3V3.5L749.631 3.5V3V2.5L746.625 2.5V3ZM752.637 3V3.5L755.643 3.5V3V2.5L752.637 2.5V3ZM758.648 3V3.5L761.654 3.5V3V2.5L758.648 2.5V3ZM764.66 3V3.5L767.666 3.5V3V2.5L764.66 2.5V3ZM770.672 3V3.5L773.678 3.5V3V2.5L770.672 2.5V3ZM776.684 3V3.5L779.69 3.5V3V2.5L776.684 2.5V3ZM782.695 3V3.5L785.701 3.5V3V2.5L782.695 2.5V3ZM788.707 3V3.5L791.713 3.5V3V2.5L788.707 2.5V3ZM794.719 3V3.5L797.725 3.5V3V2.5L794.719 2.5V3ZM800.73 3V3.5L803.736 3.5V3V2.5L800.73 2.5V3ZM806.742 3V3.5L809.748 3.5V3V2.5L806.742 2.5V3ZM812.754 3V3.5L815.76 3.5V3V2.5L812.754 2.5V3ZM818.766 3V3.5L821.772 3.5V3V2.5L818.766 2.5V3ZM824.777 3V3.5L827.783 3.5V3V2.5L824.777 2.5V3ZM830.789 3V3.5L833.795 3.5V3V2.5L830.789 2.5V3ZM836.801 3V3.5L839.807 3.5V3V2.5L836.801 2.5V3ZM842.813 3V3.5L845.818 3.5V3V2.5L842.813 2.5V3ZM848.824 3V3.5L851.83 3.5V3V2.5L848.824 2.5V3ZM854.836 3V3.5L857.842 3.5V3V2.5L854.836 2.5V3ZM860.848 3V3.5L863.854 3.5V3V2.5L860.848 2.5V3ZM866.859 3V3.5L869.865 3.5V3V2.5L866.859 2.5V3ZM872.871 3V3.5L875.877 3.5V3V2.5L872.871 2.5V3ZM878.883 3V3.5L881.889 3.5V3V2.5L878.883 2.5V3ZM884.895 3V3.5L887.9 3.5V3V2.5L884.895 2.5V3ZM890.906 3V3.5L893.912 3.5V3V2.5L890.906 2.5V3ZM896.918 3V3.5L899.924 3.5V3V2.5L896.918 2.5V3ZM902.93 3V3.5L905.936 3.5V3V2.5L902.93 2.5V3ZM908.941 3V3.5L911.947 3.5V3V2.5L908.941 2.5V3ZM914.953 3V3.5L917.959 3.5V3V2.5L914.953 2.5V3ZM920.965 3V3.5L923.971 3.5V3V2.5L920.965 2.5V3ZM926.977 3V3.5L929.982 3.5V3V2.5L926.977 2.5V3ZM932.988 3V3.5L935.994 3.5V3V2.5L932.988 2.5V3ZM939 3V3.5L942.006 3.5V3V2.5L939 2.5V3ZM945.012 3V3.5L948.018 3.5V3V2.5L945.012 2.5V3ZM951.024 3V3.5L954.029 3.5V3V2.5L951.024 2.5V3ZM957.035 3V3.5L960.041 3.5V3V2.5L957.035 2.5V3ZM963.047 3V3.5L966.053 3.5V3V2.5L963.047 2.5V3ZM969.059 3V3.5L972.064 3.5V3V2.5L969.059 2.5V3ZM975.07 3V3.5L978.076 3.5V3V2.5L975.07 2.5V3ZM981.082 3V3.5L984.088 3.5V3V2.5L981.082 2.5V3ZM987.094 3V3.5L990.1 3.5V3V2.5L987.094 2.5V3ZM993.105 3V3.5L996.111 3.5V3V2.5L993.105 2.5V3ZM999.117 3V3.5L1002.12 3.5V3V2.5L999.117 2.5V3ZM1005.13 3V3.5L1008.13 3.5V3V2.5L1005.13 2.5V3ZM1011.14 3V3.5L1014.15 3.5V3V2.5L1011.14 2.5V3ZM1017.15 3V3.5L1020.16 3.5V3V2.5L1017.15 2.5V3ZM1023.16 3V3.5L1026.17 3.5V3V2.5L1023.16 2.5V3ZM1029.18 3V3.5L1032.18 3.5V3V2.5L1029.18 2.5V3ZM1035.19 3V3.5L1038.19 3.5V3V2.5L1035.19 2.5V3ZM1041.2 3V3.5L1044.21 3.5V3V2.5L1041.2 2.5V3ZM1047.21 3V3.5L1050.22 3.5V3V2.5L1047.21 2.5V3ZM1053.22 3V3.5L1056.23 3.5V3V2.5L1053.22 2.5V3ZM1059.23 3V3.5L1062.24 3.5V3V2.5L1059.23 2.5V3ZM1065.25 3V3.5L1068.25 3.5V3V2.5L1065.25 2.5V3ZM1071.26 3V3.5L1074.26 3.5V3V2.5L1071.26 2.5V3ZM1077.27 3V3.5L1080.28 3.5V3V2.5L1077.27 2.5V3ZM1083.28 3V3.5L1086.29 3.5V3V2.5L1083.28 2.5V3ZM1089.29 3V3.5L1092.3 3.5V3V2.5L1089.29 2.5V3ZM1095.3 3V3.5L1098.31 3.5V3V2.5L1095.3 2.5V3ZM1101.32 3V3.5L1104.32 3.5V3V2.5L1101.32 2.5V3ZM1107.33 3V3.5L1110.33 3.5V3V2.5L1107.33 2.5V3ZM1113.34 3V3.5L1116.35 3.5V3V2.5L1113.34 2.5V3ZM1119.35 3V3.5L1122.36 3.5V3V2.5L1119.35 2.5V3ZM1125.36 3V3.5L1128.37 3.5V3V2.5L1125.36 2.5V3ZM1131.38 3V3.5L1134.38 3.5V3V2.5L1131.38 2.5V3ZM1137.39 3V3.5L1140.39 3.5V3V2.5L1137.39 2.5V3ZM1143.4 3V3.5L1146.4 3.5V3V2.5L1143.4 2.5V3ZM1149.41 3V3.5L1152.42 3.5V3V2.5L1149.41 2.5V3ZM1155.42 3V3.5L1158.43 3.5V3V2.5L1155.42 2.5V3ZM1161.43 3V3.5L1164.44 3.5V3V2.5L1161.43 2.5V3ZM1167.45 3V3.5L1170.45 3.5V3V2.5L1167.45 2.5V3ZM1173.46 3V3.5L1176.46 3.5V3V2.5L1173.46 2.5V3ZM1179.47 3V3.5L1182.47 3.5V3V2.5L1179.47 2.5V3ZM1185.48 3V3.5L1188.49 3.5V3V2.5L1185.48 2.5V3ZM1191.49 3V3.5L1194.5 3.5V3V2.5L1191.49 2.5V3ZM1197.5 3V3.5L1200.51 3.5V3V2.5L1197.5 2.5V3ZM1203.52 3V3.5L1206.52 3.5V3V2.5L1203.52 2.5V3ZM1209.53 3V3.5L1212.53 3.5V3V2.5L1209.53 2.5V3ZM1215.54 3V3.5L1218.54 3.5V3V2.5L1215.54 2.5V3ZM1221.55 3V3.5L1224.56 3.5V3V2.5L1221.55 2.5V3ZM1227.56 3V3.5L1230.57 3.5V3V2.5L1227.56 2.5V3ZM1233.57 3V3.5L1236.58 3.5V3V2.5L1233.57 2.5V3ZM1239.59 3V3.5L1242.59 3.5V3V2.5L1239.59 2.5V3ZM1245.6 3V3.5L1248.6 3.5V3V2.5L1245.6 2.5V3ZM1251.61 3V3.5L1254.62 3.5V3V2.5L1251.61 2.5V3ZM1257.62 3V3.5L1260.63 3.5V3V2.5L1257.62 2.5V3ZM1263.63 3V3.5L1266.64 3.5V3V2.5L1263.63 2.5V3ZM1269.64 3V3.5L1272.65 3.5V3V2.5L1269.64 2.5V3ZM1275.66 3V3.5L1278.66 3.5V3V2.5L1275.66 2.5V3ZM1281.67 3V3.5L1284.67 3.5V3V2.5L1281.67 2.5V3ZM1287.68 3V3.5L1290.69 3.5V3V2.5L1287.68 2.5V3ZM1293.69 3V3.5L1296.7 3.5V3V2.5L1293.69 2.5V3ZM1299.7 3V3.5L1302.71 3.5V3V2.5L1299.7 2.5V3ZM1305.71 3V3.5L1308.72 3.5V3V2.5L1305.71 2.5V3ZM1311.73 3V3.5L1314.73 3.5V3V2.5L1311.73 2.5V3ZM1317.74 3V3.5L1320.74 3.5V3V2.5L1317.74 2.5V3ZM1323.75 3V3.5L1326.76 3.5V3V2.5L1323.75 2.5V3ZM1329.76 3V3.5L1332.77 3.5V3V2.5L1329.76 2.5V3ZM1335.77 3V3.5L1338.78 3.5V3V2.5L1335.77 2.5V3ZM1341.79 3V3.5L1344.79 3.5V3V2.5L1341.79 2.5V3ZM1347.8 3V3.5L1350.8 3.5V3V2.5L1347.8 2.5V3ZM1353.81 3V3.5L1356.81 3.5V3V2.5L1353.81 2.5V3ZM1359.82 3V3.5L1361.33 3.5V3V2.5H1359.82V3Z" fill="black"/>
</svg>
