<svg width="7" height="309" viewBox="0 0 7 309" fill="none" xmlns="http://www.w3.org/2000/svg">
<path d="M2.96841 308.613C4.41183 308.906 5.81907 307.973 6.11156 306.529C6.40405 305.086 5.47104 303.679 4.02761 303.386C2.58419 303.094 1.17695 304.027 0.884462 305.47C0.591971 306.914 1.52498 308.321 2.96841 308.613ZM2.96863 5.61695C4.41205 5.90945 5.81929 4.97643 6.11178 3.53301C6.40427 2.08959 5.47125 0.682349 4.02783 0.389858C2.58441 0.097366 1.17717 1.03038 0.884681 2.4738C0.59219 3.91723 1.5252 5.32446 2.96863 5.61695ZM3.49801 306L3.99801 306L3.99801 304.485L3.49801 304.485L2.99801 304.485L2.99801 306L3.49801 306ZM3.49801 301.455L3.99801 301.455L3.99802 298.425L3.49802 298.425L2.99802 298.425L2.99801 301.455L3.49801 301.455ZM3.49802 295.395L3.99802 295.395L3.99802 292.365L3.49802 292.365L2.99802 292.365L2.99802 295.395L3.49802 295.395ZM3.49802 289.335L3.99802 289.335L3.99802 286.305L3.49802 286.305L2.99802 286.305L2.99802 289.335L3.49802 289.335ZM3.49803 283.275L3.99803 283.275L3.99803 280.245L3.49803 280.245L2.99803 280.245L2.99803 283.275L3.49803 283.275ZM3.49803 277.215L3.99803 277.215L3.99803 274.185L3.49803 274.185L2.99803 274.185L2.99803 277.215L3.49803 277.215ZM3.49804 271.155L3.99804 271.155L3.99804 268.125L3.49804 268.125L2.99804 268.125L2.99804 271.155L3.49804 271.155ZM3.49804 265.095L3.99804 265.095L3.99804 262.065L3.49804 262.065L2.99804 262.065L2.99804 265.095L3.49804 265.095ZM3.49804 259.035L3.99804 259.035L3.99805 256.005L3.49805 256.005L2.99805 256.005L2.99804 259.035L3.49804 259.035ZM3.49805 252.975L3.99805 252.975L3.99805 249.945L3.49805 249.945L2.99805 249.945L2.99805 252.975L3.49805 252.975ZM3.49805 246.915L3.99805 246.915L3.99806 243.885L3.49806 243.885L2.99806 243.885L2.99805 246.915L3.49805 246.915ZM3.49806 240.855L3.99806 240.855L3.99806 237.826L3.49806 237.826L2.99806 237.826L2.99806 240.855L3.49806 240.855ZM3.49806 234.796L3.99806 234.796L3.99806 231.766L3.49806 231.766L2.99806 231.766L2.99806 234.796L3.49806 234.796ZM3.49807 228.736L3.99807 228.736L3.99807 225.706L3.49807 225.706L2.99807 225.706L2.99807 228.736L3.49807 228.736ZM3.49807 222.676L3.99807 222.676L3.99807 219.646L3.49807 219.646L2.99807 219.646L2.99807 222.676L3.49807 222.676ZM3.49807 216.616L3.99807 216.616L3.99808 213.586L3.49808 213.586L2.99808 213.586L2.99807 216.616L3.49807 216.616ZM3.49808 210.556L3.99808 210.556L3.99808 207.526L3.49808 207.526L2.99808 207.526L2.99808 210.556L3.49808 210.556ZM3.49808 204.496L3.99808 204.496L3.99809 201.466L3.49809 201.466L2.99809 201.466L2.99808 204.496L3.49808 204.496ZM3.49809 198.436L3.99809 198.436L3.99809 195.406L3.49809 195.406L2.99809 195.406L2.99809 198.436L3.49809 198.436ZM3.49809 192.376L3.99809 192.376L3.99809 189.346L3.49809 189.346L2.99809 189.346L2.99809 192.376L3.49809 192.376ZM3.4981 186.316L3.9981 186.316L3.9981 183.286L3.4981 183.286L2.9981 183.286L2.9981 186.316L3.4981 186.316ZM3.4981 180.256L3.9981 180.256L3.9981 177.226L3.4981 177.226L2.9981 177.226L2.9981 180.256L3.4981 180.256ZM3.49811 174.196L3.99811 174.196L3.99811 171.166L3.49811 171.166L2.99811 171.166L2.99811 174.196L3.49811 174.196ZM3.49811 168.136L3.99811 168.136L3.99811 165.106L3.49811 165.106L2.99811 165.106L2.99811 168.136L3.49811 168.136ZM3.49811 162.076L3.99811 162.076L3.99812 159.046L3.49812 159.046L2.99812 159.046L2.99811 162.076L3.49811 162.076ZM3.49812 156.017L3.99812 156.017L3.99812 152.987L3.49812 152.987L2.99812 152.987L2.99812 156.017L3.49812 156.017ZM3.49812 149.957L3.99812 149.957L3.99813 146.927L3.49813 146.927L2.99813 146.927L2.99812 149.957L3.49812 149.957ZM3.49813 143.897L3.99813 143.897L3.99813 140.867L3.49813 140.867L2.99813 140.867L2.99813 143.897L3.49813 143.897ZM3.49813 137.837L3.99813 137.837L3.99813 134.807L3.49813 134.807L2.99813 134.807L2.99813 137.837L3.49813 137.837ZM3.49814 131.777L3.99814 131.777L3.99814 128.747L3.49814 128.747L2.99814 128.747L2.99814 131.777L3.49814 131.777ZM3.49814 125.717L3.99814 125.717L3.99814 122.687L3.49814 122.687L2.99814 122.687L2.99814 125.717L3.49814 125.717ZM3.49814 119.657L3.99814 119.657L3.99815 116.627L3.49815 116.627L2.99815 116.627L2.99814 119.657L3.49814 119.657ZM3.49815 113.597L3.99815 113.597L3.99815 110.567L3.49815 110.567L2.99815 110.567L2.99815 113.597L3.49815 113.597ZM3.49815 107.537L3.99815 107.537L3.99816 104.507L3.49816 104.507L2.99816 104.507L2.99815 107.537L3.49815 107.537ZM3.49816 101.477L3.99816 101.477L3.99816 98.4471L3.49816 98.4471L2.99816 98.4471L2.99816 101.477L3.49816 101.477ZM3.49816 95.4171L3.99816 95.4171L3.99816 92.3872L3.49816 92.3872L2.99816 92.3872L2.99816 95.4171L3.49816 95.4171ZM3.49817 89.3572L3.99817 89.3572L3.99817 86.3273L3.49817 86.3272L2.99817 86.3272L2.99817 89.3572L3.49817 89.3572ZM3.49817 83.2973L3.99817 83.2973L3.99817 80.2673L3.49817 80.2673L2.99817 80.2673L2.99817 83.2973L3.49817 83.2973ZM3.49818 77.2373L3.99818 77.2373L3.99818 74.2074L3.49818 74.2074L2.99818 74.2074L2.99818 77.2373L3.49818 77.2373ZM3.49818 71.1774L3.99818 71.1774L3.99818 68.1474L3.49818 68.1474L2.99818 68.1474L2.99818 71.1774L3.49818 71.1774ZM3.49818 65.1175L3.99818 65.1175L3.99819 62.0875L3.49819 62.0875L2.99819 62.0875L2.99818 65.1175L3.49818 65.1175ZM3.49819 59.0575L3.99819 59.0575L3.99819 56.0276L3.49819 56.0276L2.99819 56.0276L2.99819 59.0575L3.49819 59.0575ZM3.49819 52.9976L3.99819 52.9976L3.9982 49.9676L3.4982 49.9676L2.9982 49.9676L2.99819 52.9976L3.49819 52.9976ZM3.4982 46.9377L3.9982 46.9377L3.9982 43.9077L3.4982 43.9077L2.9982 43.9077L2.9982 46.9377L3.4982 46.9377ZM3.4982 40.8777L3.9982 40.8777L3.9982 37.8478L3.4982 37.8478L2.9982 37.8478L2.9982 40.8777L3.4982 40.8777ZM3.49821 34.8178L3.99821 34.8178L3.99821 31.7878L3.49821 31.7878L2.99821 31.7878L2.99821 34.8178L3.49821 34.8178ZM3.49821 28.7579L3.99821 28.7579L3.99821 25.7279L3.49821 25.7279L2.99821 25.7279L2.99821 28.7579L3.49821 28.7579ZM3.49821 22.6979L3.99821 22.6979L3.99822 19.668L3.49822 19.668L2.99822 19.668L2.99821 22.6979L3.49821 22.6979ZM3.49822 16.638L3.99822 16.638L3.99822 13.608L3.49822 13.608L2.99822 13.608L2.99822 16.638L3.49822 16.638ZM3.49822 10.5781L3.99822 10.5781L3.99823 7.54807L3.49823 7.54807L2.99823 7.54807L2.99822 10.5781L3.49822 10.5781ZM3.49823 4.51811L3.99823 4.51811L3.99823 3.00341L3.49823 3.00341L2.99823 3.00341L2.99823 4.51811L3.49823 4.51811Z" fill="black"/>
</svg>
