<svg width="6" height="586" viewBox="0 0 6 586" fill="none" xmlns="http://www.w3.org/2000/svg">
<path d="M3.2666 585.667C4.73936 585.667 5.93327 584.473 5.93327 583C5.93327 581.527 4.73936 580.333 3.2666 580.333C1.79384 580.333 0.599935 581.527 0.599935 583C0.599935 584.473 1.79384 585.667 3.2666 585.667ZM3.26663 5.66664C4.73939 5.66664 5.93329 4.47274 5.93329 2.99998C5.93329 1.52722 4.73939 0.333311 3.26663 0.333311C1.79387 0.333311 0.59996 1.52722 0.59996 2.99998C0.59996 4.47274 1.79387 5.66664 3.26663 5.66664ZM3.2666 583L3.7666 583L3.7666 581.505L3.2666 581.505L2.7666 581.505L2.7666 583L3.2666 583ZM3.2666 578.515L3.7666 578.515L3.7666 575.526L3.2666 575.526L2.7666 575.526L2.7666 578.515L3.2666 578.515ZM3.2666 572.536L3.7666 572.536L3.7666 569.546L3.2666 569.546L2.7666 569.546L2.7666 572.536L3.2666 572.536ZM3.2666 566.557L3.7666 566.557L3.7666 563.567L3.2666 563.567L2.7666 563.567L2.7666 566.557L3.2666 566.557ZM3.2666 560.577L3.7666 560.577L3.7666 557.588L3.2666 557.588L2.7666 557.588L2.7666 560.577L3.2666 560.577ZM3.2666 554.598L3.7666 554.598L3.7666 551.608L3.2666 551.608L2.7666 551.608L2.7666 554.598L3.2666 554.598ZM3.2666 548.619L3.7666 548.619L3.7666 545.629L3.2666 545.629L2.7666 545.629L2.7666 548.619L3.2666 548.619ZM3.2666 542.639L3.7666 542.639L3.7666 539.649L3.2666 539.649L2.7666 539.649L2.7666 542.639L3.2666 542.639ZM3.2666 536.66L3.7666 536.66L3.7666 533.67L3.2666 533.67L2.7666 533.67L2.7666 536.66L3.2666 536.66ZM3.2666 530.68L3.7666 530.68L3.7666 527.691L3.2666 527.691L2.7666 527.691L2.7666 530.68L3.2666 530.68ZM3.2666 524.701L3.7666 524.701L3.7666 521.711L3.2666 521.711L2.7666 521.711L2.7666 524.701L3.2666 524.701ZM3.2666 518.722L3.7666 518.722L3.7666 515.732L3.2666 515.732L2.7666 515.732L2.7666 518.722L3.2666 518.722ZM3.2666 512.742L3.7666 512.742L3.7666 509.753L3.2666 509.753L2.7666 509.753L2.7666 512.742L3.2666 512.742ZM3.2666 506.763L3.7666 506.763L3.7666 503.773L3.2666 503.773L2.7666 503.773L2.7666 506.763L3.2666 506.763ZM3.26661 500.783L3.76661 500.783L3.76661 497.794L3.26661 497.794L2.76661 497.794L2.76661 500.783L3.26661 500.783ZM3.26661 494.804L3.76661 494.804L3.76661 491.814L3.26661 491.814L2.76661 491.814L2.76661 494.804L3.26661 494.804ZM3.26661 488.825L3.76661 488.825L3.76661 485.835L3.26661 485.835L2.76661 485.835L2.76661 488.825L3.26661 488.825ZM3.26661 482.845L3.76661 482.845L3.76661 479.856L3.26661 479.856L2.76661 479.856L2.76661 482.845L3.26661 482.845ZM3.26661 476.866L3.76661 476.866L3.76661 473.876L3.26661 473.876L2.76661 473.876L2.76661 476.866L3.26661 476.866ZM3.26661 470.887L3.76661 470.887L3.76661 467.897L3.26661 467.897L2.76661 467.897L2.76661 470.887L3.26661 470.887ZM3.26661 464.907L3.76661 464.907L3.76661 461.917L3.26661 461.917L2.76661 461.917L2.76661 464.907L3.26661 464.907ZM3.26661 458.928L3.76661 458.928L3.76661 455.938L3.26661 455.938L2.76661 455.938L2.76661 458.928L3.26661 458.928ZM3.26661 452.948L3.76661 452.948L3.76661 449.959L3.26661 449.959L2.76661 449.959L2.76661 452.948L3.26661 452.948ZM3.26661 446.969L3.76661 446.969L3.76661 443.979L3.26661 443.979L2.76661 443.979L2.76661 446.969L3.26661 446.969ZM3.26661 440.99L3.76661 440.99L3.76661 438L3.26661 438L2.76661 438L2.76661 440.99L3.26661 440.99ZM3.26661 435.01L3.76661 435.01L3.76661 432.021L3.26661 432.021L2.76661 432.021L2.76661 435.01L3.26661 435.01ZM3.26661 429.031L3.76661 429.031L3.76661 426.041L3.26661 426.041L2.76661 426.041L2.76661 429.031L3.26661 429.031ZM3.26661 423.052L3.76661 423.052L3.76661 420.062L3.26661 420.062L2.76661 420.062L2.76661 423.052L3.26661 423.052ZM3.26661 417.072L3.76661 417.072L3.76661 414.082L3.26661 414.082L2.76661 414.082L2.76661 417.072L3.26661 417.072ZM3.26661 411.093L3.76661 411.093L3.76661 408.103L3.26661 408.103L2.76661 408.103L2.76661 411.093L3.26661 411.093ZM3.26661 405.113L3.76661 405.113L3.76661 402.124L3.26661 402.124L2.76661 402.124L2.76661 405.113L3.26661 405.113ZM3.26661 399.134L3.76661 399.134L3.76661 396.144L3.26661 396.144L2.76661 396.144L2.76661 399.134L3.26661 399.134ZM3.26661 393.155L3.76661 393.155L3.76661 390.165L3.26661 390.165L2.76661 390.165L2.76661 393.155L3.26661 393.155ZM3.26661 387.175L3.76661 387.175L3.76661 384.186L3.26661 384.186L2.76661 384.186L2.76661 387.175L3.26661 387.175ZM3.26661 381.196L3.76661 381.196L3.76661 378.206L3.26661 378.206L2.76661 378.206L2.76661 381.196L3.26661 381.196ZM3.26661 375.217L3.76661 375.217L3.76661 372.227L3.26661 372.227L2.76661 372.227L2.76661 375.217L3.26661 375.217ZM3.26661 369.237L3.76661 369.237L3.76661 366.248L3.26661 366.248L2.76661 366.248L2.76661 369.237L3.26661 369.237ZM3.26661 363.258L3.76661 363.258L3.76661 360.268L3.26661 360.268L2.76661 360.268L2.76661 363.258L3.26661 363.258ZM3.26661 357.278L3.76661 357.278L3.76661 354.289L3.26661 354.289L2.76661 354.289L2.76661 357.278L3.26661 357.278ZM3.26661 351.299L3.76661 351.299L3.76661 348.309L3.26661 348.309L2.76661 348.309L2.76661 351.299L3.26661 351.299ZM3.26661 345.32L3.76661 345.32L3.76661 342.33L3.26661 342.33L2.76661 342.33L2.76661 345.32L3.26661 345.32ZM3.26661 339.34L3.76661 339.34L3.76661 336.351L3.26661 336.351L2.76661 336.351L2.76661 339.34L3.26661 339.34ZM3.26661 333.361L3.76661 333.361L3.76661 330.371L3.26661 330.371L2.76661 330.371L2.76661 333.361L3.26661 333.361ZM3.26661 327.382L3.76661 327.382L3.76661 324.392L3.26661 324.392L2.76661 324.392L2.76661 327.382L3.26661 327.382ZM3.26661 321.402L3.76661 321.402L3.76661 318.413L3.26661 318.413L2.76661 318.413L2.76661 321.402L3.26661 321.402ZM3.26661 315.423L3.76661 315.423L3.76661 312.433L3.26661 312.433L2.76661 312.433L2.76661 315.423L3.26661 315.423ZM3.26661 309.444L3.76661 309.444L3.76661 306.454L3.26661 306.454L2.76661 306.454L2.76661 309.444L3.26661 309.444ZM3.26661 303.464L3.76661 303.464L3.76661 300.474L3.26661 300.474L2.76661 300.474L2.76661 303.464L3.26661 303.464ZM3.26661 297.485L3.76661 297.485L3.76661 294.495L3.26661 294.495L2.76661 294.495L2.76661 297.485L3.26661 297.485ZM3.26661 291.505L3.76661 291.505L3.76661 288.516L3.26661 288.516L2.76661 288.516L2.76661 291.505L3.26661 291.505ZM3.26661 285.526L3.76661 285.526L3.76661 282.536L3.26661 282.536L2.76661 282.536L2.76661 285.526L3.26661 285.526ZM3.26661 279.547L3.76661 279.547L3.76661 276.557L3.26661 276.557L2.76661 276.557L2.76661 279.547L3.26661 279.547ZM3.26661 273.567L3.76661 273.567L3.76661 270.578L3.26661 270.578L2.76661 270.578L2.76661 273.567L3.26661 273.567ZM3.26662 267.588L3.76662 267.588L3.76662 264.598L3.26662 264.598L2.76662 264.598L2.76662 267.588L3.26662 267.588ZM3.26662 261.609L3.76662 261.609L3.76662 258.619L3.26662 258.619L2.76662 258.619L2.76662 261.609L3.26662 261.609ZM3.26662 255.629L3.76662 255.629L3.76662 252.639L3.26662 252.639L2.76662 252.639L2.76662 255.629L3.26662 255.629ZM3.26662 249.65L3.76662 249.65L3.76662 246.66L3.26662 246.66L2.76662 246.66L2.76662 249.65L3.26662 249.65ZM3.26662 243.67L3.76662 243.67L3.76662 240.681L3.26662 240.681L2.76662 240.681L2.76662 243.67L3.26662 243.67ZM3.26662 237.691L3.76662 237.691L3.76662 234.701L3.26662 234.701L2.76662 234.701L2.76662 237.691L3.26662 237.691ZM3.26662 231.712L3.76662 231.712L3.76662 228.722L3.26662 228.722L2.76662 228.722L2.76662 231.712L3.26662 231.712ZM3.26662 225.732L3.76662 225.732L3.76662 222.743L3.26662 222.743L2.76662 222.743L2.76662 225.732L3.26662 225.732ZM3.26662 219.753L3.76662 219.753L3.76662 216.763L3.26662 216.763L2.76662 216.763L2.76662 219.753L3.26662 219.753ZM3.26662 213.774L3.76662 213.774L3.76662 210.784L3.26662 210.784L2.76662 210.784L2.76662 213.774L3.26662 213.774ZM3.26662 207.794L3.76662 207.794L3.76662 204.805L3.26662 204.805L2.76662 204.805L2.76662 207.794L3.26662 207.794ZM3.26662 201.815L3.76662 201.815L3.76662 198.825L3.26662 198.825L2.76662 198.825L2.76662 201.815L3.26662 201.815ZM3.26662 195.835L3.76662 195.835L3.76662 192.846L3.26662 192.846L2.76662 192.846L2.76662 195.835L3.26662 195.835ZM3.26662 189.856L3.76662 189.856L3.76662 186.866L3.26662 186.866L2.76662 186.866L2.76662 189.856L3.26662 189.856ZM3.26662 183.877L3.76662 183.877L3.76662 180.887L3.26662 180.887L2.76662 180.887L2.76662 183.877L3.26662 183.877ZM3.26662 177.897L3.76662 177.897L3.76662 174.908L3.26662 174.908L2.76662 174.908L2.76662 177.897L3.26662 177.897ZM3.26662 171.918L3.76662 171.918L3.76662 168.928L3.26662 168.928L2.76662 168.928L2.76662 171.918L3.26662 171.918ZM3.26662 165.939L3.76662 165.939L3.76662 162.949L3.26662 162.949L2.76662 162.949L2.76662 165.939L3.26662 165.939ZM3.26662 159.959L3.76662 159.959L3.76662 156.97L3.26662 156.97L2.76662 156.97L2.76662 159.959L3.26662 159.959ZM3.26662 153.98L3.76662 153.98L3.76662 150.99L3.26662 150.99L2.76662 150.99L2.76662 153.98L3.26662 153.98ZM3.26662 148.001L3.76662 148.001L3.76662 145.011L3.26662 145.011L2.76662 145.011L2.76662 148.001L3.26662 148.001ZM3.26662 142.021L3.76662 142.021L3.76662 139.031L3.26662 139.031L2.76662 139.031L2.76662 142.021L3.26662 142.021ZM3.26662 136.042L3.76662 136.042L3.76662 133.052L3.26662 133.052L2.76662 133.052L2.76662 136.042L3.26662 136.042ZM3.26662 130.062L3.76662 130.062L3.76662 127.073L3.26662 127.073L2.76662 127.073L2.76662 130.062L3.26662 130.062ZM3.26662 124.083L3.76662 124.083L3.76662 121.093L3.26662 121.093L2.76662 121.093L2.76662 124.083L3.26662 124.083ZM3.26662 118.104L3.76662 118.104L3.76662 115.114L3.26662 115.114L2.76662 115.114L2.76662 118.104L3.26662 118.104ZM3.26662 112.124L3.76662 112.124L3.76662 109.135L3.26662 109.135L2.76662 109.135L2.76662 112.124L3.26662 112.124ZM3.26662 106.145L3.76662 106.145L3.76662 103.155L3.26662 103.155L2.76662 103.155L2.76662 106.145L3.26662 106.145ZM3.26662 100.166L3.76662 100.166L3.76662 97.1758L3.26662 97.1758L2.76662 97.1758L2.76662 100.166L3.26662 100.166ZM3.26662 94.1862L3.76662 94.1862L3.76662 91.1965L3.26662 91.1965L2.76662 91.1965L2.76662 94.1862L3.26662 94.1862ZM3.26662 88.2068L3.76662 88.2068L3.76662 85.2171L3.26662 85.2171L2.76662 85.2171L2.76662 88.2068L3.26662 88.2068ZM3.26662 82.2274L3.76662 82.2274L3.76662 79.2377L3.26662 79.2377L2.76662 79.2377L2.76662 82.2274L3.26662 82.2274ZM3.26662 76.2481L3.76662 76.2481L3.76662 73.2584L3.26662 73.2584L2.76662 73.2584L2.76662 76.2481L3.26662 76.2481ZM3.26662 70.2687L3.76662 70.2687L3.76662 67.279L3.26662 67.279L2.76662 67.279L2.76662 70.2687L3.26662 70.2687ZM3.26662 64.2893L3.76662 64.2893L3.76662 61.2996L3.26662 61.2996L2.76662 61.2996L2.76662 64.2893L3.26662 64.2893ZM3.26662 58.3099L3.76662 58.3099L3.76662 55.3202L3.26662 55.3202L2.76662 55.3202L2.76662 58.3099L3.26662 58.3099ZM3.26662 52.3306L3.76662 52.3306L3.76662 49.3409L3.26662 49.3409L2.76662 49.3409L2.76662 52.3306L3.26662 52.3306ZM3.26662 46.3512L3.76662 46.3512L3.76662 43.3615L3.26662 43.3615L2.76662 43.3615L2.76662 46.3512L3.26662 46.3512ZM3.26662 40.3718L3.76662 40.3718L3.76662 37.3821L3.26662 37.3821L2.76662 37.3821L2.76662 40.3718L3.26662 40.3718ZM3.26663 34.3925L3.76663 34.3925L3.76663 31.4027L3.26663 31.4027L2.76663 31.4027L2.76663 34.3925L3.26663 34.3925ZM3.26663 28.4131L3.76663 28.4131L3.76663 25.4234L3.26663 25.4234L2.76663 25.4234L2.76663 28.4131L3.26663 28.4131ZM3.26663 22.4337L3.76663 22.4337L3.76663 19.444L3.26663 19.444L2.76663 19.444L2.76663 22.4337L3.26663 22.4337ZM3.26663 16.4543L3.76663 16.4543L3.76663 13.4646L3.26663 13.4646L2.76663 13.4646L2.76663 16.4543L3.26663 16.4543ZM3.26663 10.475L3.76663 10.475L3.76663 7.48528L3.26663 7.48528L2.76663 7.48528L2.76663 10.475L3.26663 10.475ZM3.26663 4.49558L3.76663 4.49558L3.76663 2.99998L3.26663 2.99998L2.76663 2.99998L2.76663 4.49558L3.26663 4.49558Z" fill="black"/>
</svg>
