<svg width="358" height="309" viewBox="0 0 358 309" fill="none" xmlns="http://www.w3.org/2000/svg">
<path d="M2.4704 308.614C3.91382 308.906 5.32106 307.973 5.61355 306.53C5.90604 305.086 4.97303 303.679 3.5296 303.386C2.08618 303.094 0.678944 304.027 0.386452 305.47C0.0939605 306.914 1.02697 308.321 2.4704 308.614ZM353.97 5.61351C355.413 5.906 356.82 4.97299 357.113 3.52957C357.405 2.08614 356.472 0.678907 355.029 0.386416C353.586 0.093924 352.178 1.02694 351.886 2.47036C351.593 3.91378 352.526 5.32102 353.97 5.61351ZM3 306L3.32646 306.379L4.46769 305.395L4.14123 305.016L3.81477 304.638L2.67354 305.621L3 306ZM6.42369 303.049L6.75015 303.427L9.03262 301.46L8.70616 301.081L8.3797 300.702L6.09724 302.67L6.42369 303.049ZM10.9886 299.114L11.3151 299.492L13.5975 297.525L13.2711 297.146L12.9446 296.767L10.6622 298.735L10.9886 299.114ZM15.5535 295.179L15.88 295.557L18.1625 293.59L17.836 293.211L17.5095 292.832L15.2271 294.8L15.5535 295.179ZM20.1185 291.244L20.4449 291.622L22.7274 289.655L22.4009 289.276L22.0745 288.897L19.792 290.865L20.1185 291.244ZM24.6834 287.308L25.0099 287.687L27.2923 285.72L26.9659 285.341L26.6394 284.962L24.3569 286.93L24.6834 287.308ZM29.2483 283.373L29.5748 283.752L31.8572 281.785L31.5308 281.406L31.2043 281.027L28.9219 282.995L29.2483 283.373ZM33.8132 279.438L34.1397 279.817L36.4222 277.849L36.0957 277.471L35.7692 277.092L33.4868 279.06L33.8132 279.438ZM38.3782 275.503L38.7046 275.882L40.9871 273.914L40.6606 273.536L40.3342 273.157L38.0517 275.125L38.3782 275.503ZM42.9431 271.568L43.2696 271.947L45.552 269.979L45.2256 269.601L44.8991 269.222L42.6166 271.189L42.9431 271.568ZM47.508 267.633L47.8345 268.012L50.1169 266.044L49.7905 265.666L49.464 265.287L47.1816 267.254L47.508 267.633ZM52.0729 263.698L52.3994 264.077L54.6819 262.109L54.3554 261.731L54.0289 261.352L51.7465 263.319L52.0729 263.698ZM56.6379 259.763L56.9643 260.142L59.2468 258.174L58.9203 257.795L58.5939 257.417L56.3114 259.384L56.6379 259.763ZM61.2028 255.828L61.5293 256.207L63.8117 254.239L63.4853 253.86L63.1588 253.482L60.8763 255.449L61.2028 255.828ZM65.7677 251.893L66.0942 252.272L68.3767 250.304L68.0502 249.925L67.7237 249.547L65.4413 251.514L65.7677 251.893ZM70.3327 247.958L70.6591 248.336L72.9416 246.369L72.6151 245.99L72.2887 245.612L70.0062 247.579L70.3327 247.958ZM74.8976 244.023L75.2241 244.401L77.5065 242.434L77.1801 242.055L76.8536 241.676L74.5711 243.644L74.8976 244.023ZM79.4625 240.088L79.789 240.466L82.0715 238.499L81.745 238.12L81.4185 237.741L79.1361 239.709L79.4625 240.088ZM84.0275 236.153L84.3539 236.531L86.6364 234.564L86.3099 234.185L85.9835 233.806L83.701 235.774L84.0275 236.153ZM88.5924 232.218L88.9188 232.596L91.2013 230.629L90.8749 230.25L90.5484 229.871L88.2659 231.839L88.5924 232.218ZM93.1573 228.282L93.4838 228.661L95.7662 226.694L95.4398 226.315L95.1133 225.936L92.8309 227.904L93.1573 228.282ZM97.7223 224.347L98.0487 224.726L100.331 222.759L100.005 222.38L99.6782 222.001L97.3958 223.969L97.7223 224.347ZM102.287 220.412L102.614 220.791L104.896 218.823L104.57 218.445L104.243 218.066L101.961 220.034L102.287 220.412ZM106.852 216.477L107.179 216.856L109.461 214.888L109.135 214.51L108.808 214.131L106.526 216.099L106.852 216.477ZM111.417 212.542L111.743 212.921L114.026 210.953L113.7 210.575L113.373 210.196L111.091 212.163L111.417 212.542ZM115.982 208.607L116.308 208.986L118.591 207.018L118.264 206.64L117.938 206.261L115.656 208.228L115.982 208.607ZM120.547 204.672L120.873 205.051L123.156 203.083L122.829 202.704L122.503 202.326L120.22 204.293L120.547 204.672ZM125.112 200.737L125.438 201.116L127.721 199.148L127.394 198.769L127.068 198.391L124.785 200.358L125.112 200.737ZM129.677 196.802L130.003 197.181L132.286 195.213L131.959 194.834L131.633 194.456L129.35 196.423L129.677 196.802ZM134.242 192.867L134.568 193.246L136.851 191.278L136.524 190.899L136.198 190.521L133.915 192.488L134.242 192.867ZM138.807 188.932L139.133 189.31L141.416 187.343L141.089 186.964L140.763 186.586L138.48 188.553L138.807 188.932ZM143.372 184.997L143.698 185.375L145.98 183.408L145.654 183.029L145.328 182.65L143.045 184.618L143.372 184.997ZM147.936 181.062L148.263 181.44L150.545 179.473L150.219 179.094L149.892 178.715L147.61 180.683L147.936 181.062ZM152.501 177.127L152.828 177.505L155.11 175.538L154.784 175.159L154.457 174.78L152.175 176.748L152.501 177.127ZM157.066 173.191L157.393 173.57L159.675 171.603L159.349 171.224L159.022 170.845L156.74 172.813L157.066 173.191ZM161.631 169.256L161.958 169.635L164.24 167.668L163.914 167.289L163.587 166.91L161.305 168.878L161.631 169.256ZM166.196 165.321L166.523 165.7L168.805 163.733L168.479 163.354L168.152 162.975L165.87 164.943L166.196 165.321ZM170.761 161.386L171.088 161.765L173.37 159.797L173.044 159.419L172.717 159.04L170.435 161.008L170.761 161.386ZM175.326 157.451L175.653 157.83L177.935 155.862L177.609 155.484L177.282 155.105L175 157.072L175.326 157.451ZM179.891 153.516L180.217 153.895L182.5 151.927L182.173 151.549L181.847 151.17L179.565 153.137L179.891 153.516ZM184.456 149.581L184.782 149.96L187.065 147.992L186.738 147.614L186.412 147.235L184.129 149.202L184.456 149.581ZM189.021 145.646L189.347 146.025L191.63 144.057L191.303 143.678L190.977 143.3L188.694 145.267L189.021 145.646ZM193.586 141.711L193.912 142.09L196.195 140.122L195.868 139.743L195.542 139.365L193.259 141.332L193.586 141.711ZM198.151 137.776L198.477 138.155L200.76 136.187L200.433 135.808L200.107 135.43L197.824 137.397L198.151 137.776ZM202.716 133.841L203.042 134.22L205.325 132.252L204.998 131.873L204.672 131.495L202.389 133.462L202.716 133.841ZM207.281 129.906L207.607 130.284L209.889 128.317L209.563 127.938L209.237 127.56L206.954 129.527L207.281 129.906ZM211.845 125.971L212.172 126.349L214.454 124.382L214.128 124.003L213.801 123.624L211.519 125.592L211.845 125.971ZM216.41 122.036L216.737 122.414L219.019 120.447L218.693 120.068L218.366 119.689L216.084 121.657L216.41 122.036ZM220.975 118.101L221.302 118.479L223.584 116.512L223.258 116.133L222.931 115.754L220.649 117.722L220.975 118.101ZM225.54 114.166L225.867 114.544L228.149 112.577L227.823 112.198L227.496 111.819L225.214 113.787L225.54 114.166ZM230.105 110.231L230.432 110.609L232.714 108.642L232.388 108.263L232.061 107.884L229.779 109.852L230.105 110.231ZM234.67 106.295L234.996 106.674L237.279 104.707L236.952 104.328L236.626 103.949L234.344 105.917L234.67 106.295ZM239.235 102.36L239.561 102.739L241.844 100.772L241.517 100.393L241.191 100.014L238.908 101.982L239.235 102.36ZM243.8 98.4254L244.126 98.8041L246.409 96.8366L246.082 96.4578L245.756 96.0791L243.473 98.0466L243.8 98.4254ZM248.365 94.4903L248.691 94.869L250.974 92.9015L250.647 92.5228L250.321 92.1441L248.038 94.1116L248.365 94.4903ZM252.93 90.5553L253.256 90.934L255.539 88.9665L255.212 88.5877L254.886 88.209L252.603 90.1765L252.93 90.5553ZM257.495 86.6202L257.821 86.9989L260.103 85.0314L259.777 84.6527L259.45 84.274L257.168 86.2415L257.495 86.6202ZM262.059 82.6852L262.386 83.0639L264.668 81.0964L264.342 80.7177L264.015 80.3389L261.733 82.3065L262.059 82.6852ZM266.624 78.7501L266.951 79.1288L269.233 77.1613L268.907 76.7826L268.58 76.4039L266.298 78.3714L266.624 78.7501ZM271.189 74.8151L271.516 75.1938L273.798 73.2262L273.472 72.8475L273.145 72.4688L270.863 74.4364L271.189 74.8151ZM275.754 70.88L276.081 71.2587L278.363 69.2912L278.037 68.9125L277.71 68.5338L275.428 70.5013L275.754 70.88ZM280.319 66.945L280.646 67.3237L282.928 65.3562L282.602 64.9774L282.275 64.5987L279.993 66.5663L280.319 66.945ZM284.884 63.0099L285.21 63.3886L287.493 61.4211L287.166 61.0424L286.84 60.6637L284.557 62.6312L284.884 63.0099ZM289.449 59.0749L289.775 59.4536L292.058 57.4861L291.731 57.1073L291.405 56.7286L289.122 58.6962L289.449 59.0749ZM294.014 55.1398L294.34 55.5185L296.623 53.551L296.296 53.1723L295.97 52.7936L293.687 54.7611L294.014 55.1398ZM298.579 51.2048L298.905 51.5835L301.188 49.616L300.861 49.2372L300.535 48.8585L298.252 50.8261L298.579 51.2048ZM303.144 47.2697L303.47 47.6484L305.753 45.6809L305.426 45.3022L305.1 44.9235L302.817 46.891L303.144 47.2697ZM307.708 43.3347L308.035 43.7134L310.317 41.7459L309.991 41.3671L309.664 40.9884L307.382 42.956L307.708 43.3347ZM312.273 39.3996L312.6 39.7783L314.882 37.8108L314.556 37.4321L314.229 37.0534L311.947 39.0209L312.273 39.3996ZM316.838 35.4646L317.165 35.8433L319.447 33.8758L319.121 33.497L318.794 33.1183L316.512 35.0859L316.838 35.4646ZM321.403 31.5295L321.73 31.9082L324.012 29.9407L323.686 29.562L323.359 29.1833L321.077 31.1508L321.403 31.5295ZM325.968 27.5945L326.295 27.9732L328.577 26.0057L328.251 25.6269L327.924 25.2482L325.642 27.2158L325.968 27.5945ZM330.533 23.6594L330.859 24.0381L333.142 22.0706L332.815 21.6919L332.489 21.3132L330.207 23.2807L330.533 23.6594ZM335.098 19.7244L335.424 20.1031L337.707 18.1356L337.38 17.7569L337.054 17.3781L334.771 19.3457L335.098 19.7244ZM339.663 15.7893L339.989 16.1681L342.272 14.2005L341.945 13.8218L341.619 13.4431L339.336 15.4106L339.663 15.7893ZM344.228 11.8543L344.554 12.233L346.837 10.2655L346.51 9.88675L346.184 9.50804L343.901 11.4756L344.228 11.8543ZM348.793 7.91924L349.119 8.29795L351.402 6.33042L351.075 5.95171L350.749 5.57299L348.466 7.54053L348.793 7.91924ZM353.358 3.98419L353.684 4.3629L354.826 3.37868L354.499 2.99996L354.173 2.62125L353.031 3.60548L353.358 3.98419Z" fill="black"/>
</svg>
