<svg width="166" height="213" viewBox="0 0 166 213" fill="none" xmlns="http://www.w3.org/2000/svg">
<path d="M8.63207 209.572C8.39578 208.118 7.0258 207.131 5.57211 207.368C4.11843 207.604 3.13154 208.974 3.36782 210.428C3.60411 211.881 4.9741 212.868 6.42778 212.632C7.88146 212.396 8.86836 211.026 8.63207 209.572ZM164.982 2.57186C164.745 1.11818 163.375 0.131282 161.922 0.367568C160.468 0.603854 159.481 1.97384 159.717 3.42752C159.954 4.8812 161.324 5.8681 162.777 5.63181C164.231 5.39553 165.218 4.02554 164.982 2.57186ZM112.067 19.5127L111.911 19.0376L112.067 19.5127ZM162.35 2.99969L162.194 2.52465L160.797 2.98335L160.953 3.45838L161.109 3.93342L162.506 3.47473L162.35 2.99969ZM158.159 4.37577L158.003 3.90073L155.21 4.81812L155.366 5.29316L155.522 5.7682L158.315 4.85081L158.159 4.37577ZM152.572 6.21055L152.416 5.73551L149.623 6.6529L149.779 7.12794L149.935 7.60298L152.728 6.68559L152.572 6.21055ZM146.985 8.04532L146.829 7.57028L144.036 8.48767L144.192 8.96271L144.348 9.43775L147.141 8.52036L146.985 8.04532ZM141.398 9.8801L141.242 9.40506L138.449 10.3224L138.605 10.7975L138.761 11.2725L141.554 10.3551L141.398 9.8801ZM135.811 11.7149L135.655 11.2398L132.862 12.1572L133.018 12.6323L133.174 13.1073L135.967 12.1899L135.811 11.7149ZM130.224 13.5497L130.068 13.0746L127.275 13.992L127.431 14.467L127.587 14.9421L130.38 14.0247L130.224 13.5497ZM124.637 15.3844L124.481 14.9094L121.688 15.8268L121.844 16.3018L122 16.7769L124.793 15.8595L124.637 15.3844ZM119.05 17.2192L118.894 16.7442L116.101 17.6616L116.257 18.1366L116.413 18.6116L119.206 17.6942L119.05 17.2192ZM113.463 19.054L113.307 18.5789L111.911 19.0376L112.067 19.5127L112.223 19.9877L113.619 19.529L113.463 19.054ZM112.067 19.5127L111.911 19.0376C111.433 19.1947 110.956 19.3537 110.48 19.5149L110.64 19.9884L110.801 20.462C111.273 20.3019 111.747 20.1438 112.223 19.9877L112.067 19.5127ZM107.809 20.9763L107.64 20.5058C106.698 20.8441 105.761 21.1905 104.829 21.5448L105.007 22.0122L105.184 22.4795C106.111 22.1274 107.042 21.7832 107.978 21.4469L107.809 20.9763ZM102.211 23.1047L102.025 22.6407C101.094 23.0144 100.168 23.3961 99.2478 23.7856L99.4427 24.2461L99.6375 24.7065C100.552 24.3194 101.472 23.9401 102.397 23.5687L102.211 23.1047ZM96.6982 25.4376L96.4949 24.9808C95.5771 25.3895 94.6646 25.806 93.7575 26.2303L93.9693 26.6832L94.1812 27.1361C95.0827 26.7144 95.9895 26.3005 96.9016 25.8944L96.6982 25.4376ZM91.2725 27.9754L91.0522 27.5265C90.1508 27.9688 89.2549 28.4188 88.3646 28.8765L88.5932 29.3212L88.8218 29.7659C89.7066 29.311 90.5969 28.8638 91.4927 28.4243L91.2725 27.9754ZM85.942 30.7155L85.7051 30.2752C84.823 30.7497 83.9466 31.2318 83.0759 31.7213L83.3209 32.1572L83.566 32.593C84.4313 32.1065 85.3023 31.6274 86.1788 31.1559L85.942 30.7155ZM80.7203 33.6517L80.4671 33.2206C79.6033 33.7278 78.7453 34.2425 77.8932 34.7646L78.1544 35.1909L78.4157 35.6173C79.2624 35.0985 80.115 34.587 80.9734 34.0829L80.7203 33.6517ZM75.6139 36.7804L75.3447 36.3591C74.4996 36.8989 73.6605 37.4461 72.8274 38.0006L73.1044 38.4168L73.3815 38.833C74.2093 38.2821 75.0432 37.7383 75.883 37.2018L75.6139 36.7804ZM70.6293 40.0977L70.3446 39.6867C69.5196 40.2584 68.7008 40.8372 67.8882 41.4231L68.1807 41.8287L68.4731 42.2342C69.2806 41.652 70.0943 41.0768 70.9141 40.5087L70.6293 40.0977ZM65.7695 43.6019L65.4695 43.2019C64.6673 43.8035 63.8714 44.4122 63.0819 45.0277L63.3894 45.422L63.6968 45.8163C64.4813 45.2046 65.2723 44.5998 66.0695 44.0019L65.7695 43.6019ZM61.0443 47.2861L60.7295 46.8976C59.9513 47.5281 59.1797 48.1654 58.4147 48.8094L58.7366 49.1919L59.0586 49.5744C59.8189 48.9345 60.5857 48.3011 61.359 47.6745L61.0443 47.2861ZM56.4615 51.1438L56.1324 50.7674C55.3783 51.4267 54.6309 52.0926 53.8903 52.7649L54.2264 53.1351L54.5625 53.5053C55.2985 52.8371 56.0412 52.1754 56.7906 51.5202L56.4615 51.1438ZM52.0269 55.1697L51.684 54.8059C50.9547 55.4933 50.2322 56.1871 49.5168 56.8872L49.8664 57.2446L50.2161 57.602C50.9272 56.9062 51.6451 56.2167 52.3699 55.5336L52.0269 55.1697ZM47.7462 59.3583L47.3899 59.0075C46.6866 59.722 45.9902 60.4426 45.301 61.1693L45.6638 61.5134L46.0266 61.8574C46.7115 61.1352 47.4035 60.4191 48.1025 59.7091L47.7462 59.3583ZM43.6239 63.7048L43.2548 63.3675C42.5787 64.1075 41.9099 64.8534 41.2484 65.6052L41.6237 65.9355L41.9991 66.2658C42.6565 65.5187 43.3212 64.7774 43.993 64.042L43.6239 63.7048ZM39.666 68.2024L39.2846 67.8791C38.637 68.6433 37.9967 69.4132 37.3639 70.1887L37.7513 70.5048L38.1387 70.8209C38.7676 70.0502 39.4039 69.2851 40.0475 68.5256L39.666 68.2024ZM35.8788 72.8436L35.4856 72.5348C34.8669 73.3224 34.2558 74.1155 33.6522 74.914L34.0511 75.2155L34.45 75.517C35.0498 74.7234 35.6572 73.9352 36.272 73.1525L35.8788 72.8436ZM32.2669 77.6222L31.8625 77.3282C31.2734 78.1384 30.692 78.9538 30.1183 79.7745L30.5281 80.061L30.9379 80.3474C31.5081 79.5319 32.0859 78.7214 32.6713 77.9162L32.2669 77.6222ZM28.835 82.5315L28.42 82.2527C27.8614 83.0842 27.3106 83.9209 26.7676 84.7624L27.1878 85.0335L27.6079 85.3045C28.1475 84.4682 28.6949 83.6367 29.2501 82.8103L28.835 82.5315ZM25.5875 87.565L25.1624 87.3018C24.6351 88.1534 24.1157 89.0098 23.6043 89.871L24.0342 90.1263L24.4642 90.3816C24.9724 89.5258 25.4886 88.6746 26.0126 87.8282L25.5875 87.565ZM22.5288 92.7157L22.0942 92.4685C21.5989 93.3389 21.1117 94.2139 20.6326 95.0934L21.0717 95.3326L21.5108 95.5718C21.9869 94.6977 22.4711 93.8281 22.9634 92.963L22.5288 92.7157ZM19.6633 97.9761L19.2199 97.7451C18.7572 98.6333 18.3027 99.5259 17.8565 100.423L18.3041 100.645L18.7518 100.868C19.1952 99.9769 19.6469 99.0899 20.1068 98.2071L19.6633 97.9761ZM16.9949 103.339L16.5432 103.125C16.1138 104.029 15.6927 104.938 15.28 105.851L15.7356 106.057L16.1912 106.263C16.6013 105.356 17.0198 104.453 17.4466 103.553L16.9949 103.339ZM14.5272 108.797L14.0678 108.6C13.6723 109.52 13.2853 110.444 12.9068 111.371L13.3698 111.56L13.8327 111.749C14.2088 110.827 14.5935 109.909 14.9865 108.995L14.5272 108.797ZM12.2636 114.344L11.7972 114.164C11.4363 115.097 11.0839 116.035 10.7402 116.975L11.2099 117.147L11.6795 117.318C12.0211 116.384 12.3713 115.452 12.7299 114.524L12.2636 114.344ZM10.2079 119.97L9.73514 119.808C9.40918 120.754 9.0919 121.704 8.78338 122.657L9.25908 122.811L9.73477 122.965C10.0414 122.018 10.3567 121.074 10.6806 120.133L10.2079 119.97ZM8.36309 125.669L7.88461 125.524C7.59396 126.482 7.31212 127.443 7.03915 128.408L7.52025 128.544L8.00135 128.68C8.27262 127.722 8.55272 126.766 8.84157 125.814L8.36309 125.669ZM6.73173 131.432L6.24818 131.305C5.99341 132.274 5.74756 133.245 5.51068 134.219L5.99652 134.337L6.48236 134.455C6.71777 133.487 6.9621 132.522 7.21529 131.559L6.73173 131.432ZM5.31634 137.253L4.82838 137.144C4.61006 138.121 4.40074 139.1 4.20049 140.082L4.6904 140.182L5.18032 140.282C5.37933 139.306 5.58735 138.333 5.80431 137.362L5.31634 137.253ZM4.11919 143.123L3.62749 143.033C3.44598 144.016 3.27355 145.002 3.11025 145.991L3.60356 146.072L4.09687 146.154C4.25915 145.172 4.43051 144.192 4.61089 143.214L4.11919 143.123ZM3.14257 149.034L2.64782 148.962C2.5033 149.951 2.36793 150.943 2.24176 151.937L2.73778 152L3.2338 152.063C3.35918 151.075 3.4937 150.09 3.63732 149.106L3.14257 149.034ZM2.38829 154.975L1.89118 154.921C1.78371 155.916 1.68548 156.914 1.59654 157.912L2.09457 157.957L2.5926 158.001C2.68098 157.008 2.7786 156.018 2.8854 155.029L2.38829 154.975ZM1.85709 160.94L1.35831 160.905C1.28819 161.905 1.22737 162.905 1.17592 163.908L1.67526 163.933L2.1746 163.959C2.22573 162.963 2.28617 161.968 2.35586 160.975L1.85709 160.94ZM1.54989 166.923L1.05016 166.906C1.01759 167.907 0.994369 168.908 0.980544 169.911L1.4805 169.918L1.98045 169.925C1.99419 168.928 2.01727 167.933 2.04963 166.939L1.54989 166.923ZM1.46729 172.915L0.967301 172.917C0.972272 173.916 0.986594 174.917 1.01033 175.918L1.51019 175.906L2.01005 175.894C1.98646 174.899 1.97223 173.905 1.96729 172.912L1.46729 172.915ZM1.60939 178.904L1.10984 178.925C1.15223 179.923 1.204 180.922 1.2652 181.922L1.76427 181.892L2.26334 181.861C2.20251 180.867 2.15107 179.875 2.10893 178.883L1.60939 178.904ZM1.97526 184.88L1.47686 184.919C1.5567 185.917 1.64598 186.916 1.74475 187.915L2.24233 187.866L2.7399 187.817C2.64174 186.824 2.55302 185.831 2.47367 184.84L1.97526 184.88ZM2.56419 190.839L2.06762 190.897C2.18467 191.892 2.31116 192.887 2.44716 193.883L2.94256 193.815L3.43796 193.747C3.3028 192.758 3.17709 191.769 3.06076 190.781L2.56419 190.839ZM3.37506 196.775L2.881 196.852C3.03465 197.84 3.19769 198.828 3.3702 199.816L3.86275 199.73L4.35529 199.644C4.18385 198.662 4.02181 197.68 3.86912 196.698L3.37506 196.775ZM4.40643 202.682L3.91556 202.777C4.10522 203.756 4.30421 204.735 4.5126 205.713L5.00164 205.609L5.49068 205.505C5.28357 204.532 5.08579 203.559 4.8973 202.587L4.40643 202.682ZM5.65305 208.536L5.16601 208.649C5.27963 209.139 5.39561 209.628 5.51397 210.117L5.99995 210L6.48593 209.882C6.3683 209.396 6.25302 208.91 6.14009 208.423L5.65305 208.536Z" fill="black"/>
</svg>
